<?xml version="1.0" standalone="no"?>
<!DOCTYPE svg PUBLIC "-//W3C//DTD SVG 1.1//EN" "http://www.w3.org/Graphics/SVG/1.1/DTD/svg11.dtd" >
<svg xmlns="http://www.w3.org/2000/svg">
<metadata>
<json>
<![CDATA[
{
	"fontFamily": "cisco-ucp",
	"majorVersion": 1,
	"minorVersion": 0,
	"version": "Version 1.0",
	"fontId": "cisco-ucp",
	"psName": "cisco-ucp",
	"subFamily": "Regular",
	"fullName": "cisco-ucp",
	"description": "Font generated by IcoMoon."
}
]]>
</json>
</metadata>
<defs>
<font id="cisco-ucp" horiz-adv-x="1024">
<font-face units-per-em="1024" ascent="960" descent="-64" />
<missing-glyph horiz-adv-x="1024" />
<glyph unicode="&#x20;" horiz-adv-x="512" d="" />
<glyph unicode="&#x21;" glyph-name="exclam" data-tags="exclam" horiz-adv-x="256" d="M104.448 376.32v512h39.936v-512h-39.936zM100.352 151.040v65.536h55.296v-65.536h-55.296z" />
<glyph unicode="&#x22;" glyph-name="quotedbl" data-tags="quotedbl" d="M151.552 652.8h-25.6l-8.192 156.672v94.208h40.96v-94.208zM284.672 652.8h-25.6l-8.192 156.672v94.208h40.96v-94.208z" />
<glyph unicode="&#x23;" glyph-name="numbersign" data-tags="numbersign" d="M76.8 662.016h95.232l18.432 205.824h36.864l-18.432-205.824h222.208l18.432 205.824h36.864l-18.432-205.824h90.112v-33.792h-93.184l-20.48-237.568h93.184v-33.792h-96.256l-17.408-205.824h-36.864l17.408 205.824h-222.208l-17.408-205.824h-36.864l17.408 205.824h-89.088v33.792h92.16l20.48 237.568h-92.16v33.792zM185.344 390.656h222.208l20.48 237.568h-222.208z" />
<glyph unicode="&#x24;" glyph-name="dollar" data-tags="dollar" d="M293.888 141.824q-49.152 2.048-91.136 15.36t-75.264 37.888-55.808 59.904-31.744 81.408h39.936q8.192-40.96 30.208-71.168t52.736-50.176 69.632-29.696 80.896-9.728q104.448 0 162.304 44.032t57.856 115.712q0 32.768-10.752 59.392t-37.376 48.64-73.728 39.936-118.784 34.304q-59.392 13.312-101.376 30.208t-68.096 39.424-37.888 50.688-11.776 65.024q0 35.84 14.336 67.584t42.496 55.808 69.12 38.912 94.208 16.896v118.784h35.84v-118.784q46.080-2.048 86.528-14.848t72.704-35.328 54.784-54.272 31.744-71.68h-38.912q-17.408 67.584-77.312 105.472t-143.872 37.888q-50.176 0-88.064-11.264t-63.488-30.72-38.4-45.568-12.8-55.808q0-30.72 9.216-54.272t32.256-41.984 62.976-33.28 101.376-28.16q70.656-15.36 118.784-35.84t78.336-46.080 43.52-57.344 13.312-71.68-16.384-74.752-47.104-60.928-75.776-42.496-103.424-18.432v-128h-35.84v129.024z" />
<glyph unicode="&#x25;" glyph-name="percent" data-tags="percent" horiz-adv-x="844" d="M278.528 151.040h-35.84l320.512 716.8h35.84zM95.232 710.144q0-37.888 10.752-65.024t28.672-44.544 40.96-25.6 48.64-8.192q24.576 0 48.128 8.192t41.984 25.6 29.184 44.544 10.752 65.024-10.752 65.024-28.672 44.544-41.472 25.6-49.152 8.192-48.64-8.192-40.96-25.6-28.672-44.544-10.752-65.024zM389.12 710.144q0-43.008-13.312-75.776t-35.84-54.272-52.224-32.256-63.488-10.752-63.488 10.752-51.712 32.256-35.328 54.272-13.312 75.776 13.312 75.776 35.84 54.272 52.224 32.256 62.464 10.752q33.792 0 63.488-10.752t52.224-32.256 35.84-54.272 13.312-75.776zM489.472 308.736q0-37.888 10.752-65.024t28.672-44.544 40.96-25.6 48.64-8.192q24.576 0 48.128 8.192t41.984 25.6 29.184 44.544 10.752 65.024-10.752 65.024-28.672 44.544-41.472 25.6-49.152 8.192-48.64-8.192-40.96-25.6-28.672-44.544-10.752-65.024zM783.36 308.736q0-43.008-13.312-75.776t-35.84-54.272-52.224-32.256-63.488-10.752-63.488 10.752-51.712 32.256-35.328 54.272-13.312 75.776 13.312 75.776 35.84 54.272 52.224 32.256 62.464 10.752q33.792 0 63.488-10.752t52.224-32.256 35.84-54.272 13.312-75.776z" />
<glyph unicode="&#x26;" glyph-name="ampersand" data-tags="ampersand" horiz-adv-x="620" d="M577.536 488.96q-7.168-55.296-27.136-113.152t-53.76-107.008l112.64-112.64-25.6-20.48-106.496 106.496q-38.912-48.128-93.696-77.312t-125.44-29.184q-110.592 0-167.424 48.64t-56.832 127.488q0 35.84 11.264 64.512t32.768 53.76 51.712 47.616 67.072 45.056q-27.648 27.648-52.224 53.76t-43.008 50.688-29.184 49.664-10.752 51.712q0 28.672 10.752 56.32t32.768 49.664 56.32 35.328 81.408 13.312q48.128 0 82.944-13.312t57.856-35.84 34.304-50.688 11.264-56.832q0-27.648-13.824-55.296t-37.888-54.784-57.344-52.224-72.192-47.616l225.28-224.256q28.672 43.008 46.592 94.72t24.064 105.984zM261.12 166.4q59.392 0 108.032 27.136t84.48 72.192l-233.472 234.496q-32.768-20.48-60.416-39.936t-47.104-41.984-30.208-47.616-10.752-55.808q0-70.656 49.664-109.568t139.776-38.912zM96.256 728.576q0-21.504 8.192-41.472t24.576-41.984 40.448-48.128 55.808-57.856q76.8 46.080 122.88 92.16t46.080 95.232q0 21.504-8.192 44.032t-26.624 40.96-47.104 29.696-69.632 11.264q-38.912 0-66.56-10.24t-45.056-27.136-26.112-39.424-8.704-47.104z" />
<glyph unicode="&#x27;" glyph-name="quotesingle" data-tags="quotesingle" horiz-adv-x="276" d="M151.552 652.8h-25.6l-8.192 156.672v94.208h40.96v-94.208z" />
<glyph unicode="&#x28;" glyph-name="parenleft" data-tags="parenleft" horiz-adv-x="348" d="M129.024 478.72q0-82.944 13.312-153.088t35.84-131.584 52.224-114.688 61.44-102.4h-34.816q-29.696 38.912-58.88 91.136t-52.736 115.712-38.4 137.728-14.848 157.184 14.848 157.184 38.4 137.728 52.736 115.712 58.88 91.136h34.816q-31.744-49.152-61.44-102.4t-52.224-114.688-35.84-131.584-13.312-153.088z" />
<glyph unicode="&#x29;" glyph-name="parenright" data-tags="parenright" horiz-adv-x="348" d="M219.136 478.72q0 82.944-13.312 153.088t-35.84 131.584-52.224 114.688-61.44 102.4h34.816q29.696-38.912 58.88-91.136t52.736-115.712 38.4-137.728 14.848-157.184-14.848-157.184-38.4-137.728-52.736-115.712-58.88-91.136h-34.816q31.744 49.152 61.44 102.4t52.224 114.688 35.84 131.584 13.312 153.088z" />
<glyph unicode="&#x2a;" glyph-name="asterisk" data-tags="asterisk" horiz-adv-x="481" d="M240.64 694.784l-96.256-145.408-28.672 22.528 109.568 137.216-169.984 47.104 11.264 33.792 163.84-61.44-8.192 175.104h36.864l-8.192-175.104 163.84 61.44 11.264-33.792-169.984-47.104 109.568-137.216-28.672-22.528z" />
<glyph unicode="&#x2b;" glyph-name="plus" data-tags="plus" d="M325.632 685.568v-187.392h186.368v-34.816h-186.368v-187.392h-36.864v187.392h-186.368v34.816h186.368v187.392h36.864z" />
<glyph unicode="&#x2c;" glyph-name="comma" data-tags="comma" horiz-adv-x="276" d="M169.984 154.112q0-59.392-24.576-93.184t-70.656-48.128v29.696q29.696 12.288 43.008 37.376t13.312 71.168h-18.432v65.536h57.344v-62.464z" />
<glyph unicode="&#x2d;" glyph-name="hyphen" data-tags="hyphen" horiz-adv-x="553" d="M450.56 463.36h-348.16v34.816h348.16v-34.816z" />
<glyph unicode="&#x2e;" glyph-name="period" data-tags="period" horiz-adv-x="285" d="M114.688 151.040v65.536h55.296v-65.536h-55.296z" />
<glyph unicode="&#x2f;" glyph-name="slash" data-tags="slash" horiz-adv-x="348" d="M84.992 58.88h-35.84l214.016 844.8h35.84z" />
<glyph unicode="&#x30;" glyph-name="zero" data-tags="zero" d="M307.2 168.448q93.184 0 147.968 82.944t54.784 257.024q0 173.056-54.784 257.536t-147.968 84.48-147.968-84.48-54.784-257.536q0-174.080 54.784-257.024t147.968-82.944zM307.2 135.68q-51.2 0-95.232 21.504t-76.288 67.072-50.688 115.712-18.432 168.448 18.432 168.96 50.688 116.736 76.288 67.584 95.232 21.504 95.232-21.504 76.288-67.584 50.688-116.736 18.432-168.96-18.432-168.96-50.688-115.712-76.288-66.56-95.232-21.504z" />
<glyph unicode="&#x31;" glyph-name="one" data-tags="one" d="M331.776 151.040v675.84l-167.936-99.328v39.936l168.96 100.352h36.864v-716.8h-37.888z" />
<glyph unicode="&#x32;" glyph-name="two" data-tags="two" d="M76.8 700.928q14.336 88.064 76.288 135.168t151.040 47.104q44.032 0 82.432-13.312t67.072-38.4 45.056-60.928 16.384-79.872q0-34.816-8.704-64.512t-26.112-59.392-44.032-60.928-62.464-68.096l-245.76-251.904h386.048v-34.816h-434.176v34.816l280.576 289.792q27.648 28.672 49.664 54.784t37.376 51.712 23.040 51.712 7.68 56.832q0 73.728-47.616 116.736t-127.488 43.008q-38.912 0-70.656-10.752t-56.32-30.72-39.936-47.616-19.456-60.416h-39.936z" />
<glyph unicode="&#x33;" glyph-name="three" data-tags="three" d="M291.84 135.68q-46.080 0-86.016 11.264t-71.168 33.28-52.224 53.76-29.184 73.728h37.888q14.336-67.584 69.632-103.424t132.096-35.84q44.032 0 80.384 12.288t62.464 34.816 40.448 55.296 14.336 74.752q0 81.92-48.64 125.44t-130.56 43.52h-79.872v33.792h75.776q78.848 0 121.856 42.496t43.008 107.008q0 71.68-48.64 112.128t-128.512 40.448q-78.848 0-129.024-35.84t-64.512-103.424h-37.888q16.384 80.896 77.312 126.464t155.136 45.568q46.080 0 85.504-12.8t67.584-36.352 44.032-56.832 15.872-75.264q0-137.216-137.216-169.984 33.792-4.096 62.464-18.432t49.664-37.888 32.768-55.808 11.776-72.192q0-50.176-17.408-89.6t-48.64-66.56-74.752-41.472-95.744-14.336z" />
<glyph unicode="&#x34;" glyph-name="four" data-tags="four" d="M448.512 867.84v-548.864h108.544v-32.768h-108.544v-135.168h-37.888v135.168h-334.848v39.936l331.776 541.696h40.96zM410.624 318.976v491.52l-300.032-491.52h300.032z" />
<glyph unicode="&#x35;" glyph-name="five" data-tags="five" d="M291.84 135.68q-41.984 0-80.384 11.776t-69.12 34.816-52.224 56.32-29.696 76.288h37.888q7.168-37.888 26.112-65.536t45.056-45.568 58.368-26.624 67.072-8.704q41.984 0 79.36 14.848t65.024 41.984 43.52 66.048 15.872 87.040q0 47.104-14.336 83.968t-40.448 62.464-62.464 38.912-79.36 13.312q-38.912 0-70.144-9.216t-54.784-23.040-39.424-29.696-25.088-29.184h-28.672l13.312 381.952h397.312v-32.768h-361.472l-12.288-299.008q26.624 27.648 72.704 50.688t112.64 23.040q50.176 0 92.16-15.36t72.704-45.568 48.128-73.216 17.408-98.304-18.944-99.84-52.224-76.288-77.824-48.64-95.744-16.896z" />
<glyph unicode="&#x36;" glyph-name="six" data-tags="six" d="M474.112 745.984q-15.36 50.176-55.808 77.312t-97.792 27.136q-43.008 0-81.92-15.872t-69.12-56.832-48.64-111.616-19.456-180.224q11.264 25.6 30.72 49.664t45.568 41.472 58.88 28.16 69.632 10.752q47.104 0 88.576-15.872t72.192-46.592 48.64-74.752 17.92-100.352-17.92-101.376-48.64-76.288-72.192-48.128-88.576-16.896q-69.632 0-115.712 27.648t-73.728 74.24-38.912 108.544-11.264 130.56q0 120.832 21.504 199.68t57.344 124.928 81.408 64 93.696 17.92q67.584 0 120.832-36.352t70.656-100.864h-37.888zM303.104 583.168q-36.864 0-71.68-12.288t-61.44-36.864-43.008-60.416-16.384-81.92q0-29.696 8.704-68.096t31.232-72.704 60.928-57.856 96.768-23.552q36.864 0 70.656 13.824t59.904 39.936 41.984 64.512 15.872 86.528q0 50.176-14.336 89.6t-39.936 65.536-60.928 39.936-78.336 13.824z" />
<glyph unicode="&#x37;" glyph-name="seven" data-tags="seven" d="M190.464 151.040h-39.936l334.848 683.008h-413.696v33.792h452.608v-33.792z" />
<glyph unicode="&#x38;" glyph-name="eight" data-tags="eight" d="M531.456 708.096q0-40.96-14.848-70.144t-38.4-50.176-52.736-34.304-58.88-21.504q33.792-9.216 67.584-24.576t60.928-38.912 44.544-56.832 17.408-77.312q0-41.984-17.408-78.336t-49.664-62.976-78.336-41.984-104.448-15.36q-57.344 0-103.936 15.36t-78.848 41.984-49.664 61.952-17.408 75.264q0 47.104 15.872 80.896t40.96 56.832 56.832 37.888 64.512 24.064q-26.624 8.192-53.76 22.016t-49.152 34.816-35.84 49.664-13.824 66.56q0 45.056 18.944 78.848t50.176 56.32 71.68 33.792 83.456 11.264q44.032 0 84.48-10.24t71.68-31.744 49.664-54.784 18.432-78.336zM519.168 333.312q0 45.056-19.968 76.8t-51.712 53.248-70.656 34.304-75.776 18.944q-39.936-9.216-76.8-22.528t-65.536-34.304-46.080-51.712-17.408-75.776q0-37.888 16.384-68.096t45.056-51.712 67.584-32.768 82.944-11.264 82.432 11.264 67.072 32.256 45.568 51.712 16.896 69.632zM119.808 706.048q0-40.96 16.896-69.12t43.52-46.592 58.88-28.672 64-16.384q36.864 8.192 71.168 19.456t61.44 29.696 43.008 45.568 15.872 66.048-15.872 66.56-41.984 45.056-59.904 25.6-69.632 8.192q-33.792 0-67.072-8.192t-59.904-25.6-43.52-45.056-16.896-66.56z" />
<glyph unicode="&#x39;" glyph-name="nine" data-tags="nine" d="M119.808 272.896q7.168-25.6 22.528-45.056t36.864-32.768 47.104-19.968 53.248-6.656q48.128 0 88.064 18.432t68.608 61.44 45.056 112.64 17.408 172.032q-11.264-26.624-30.72-50.176t-45.568-41.472-58.88-28.16-69.632-10.24q-45.056 0-86.528 14.848t-72.704 45.056-49.664 74.752-18.432 102.912q0 54.272 17.92 99.328t48.128 76.8 70.656 49.152 86.528 17.408q69.632 0 116.224-27.648t75.264-74.752 40.448-108.544 11.776-130.048q0-113.664-19.456-191.488t-53.248-125.44-80.384-68.608-100.864-20.992q-33.792 0-65.536 9.728t-58.368 27.648-45.568 43.008-27.136 56.832h36.864zM296.96 435.712q36.864 0 71.68 12.288t61.44 36.864 43.008 60.416 16.384 81.92q0 29.696-8.704 68.096t-31.232 72.704-60.928 57.856-96.768 23.552q-38.912 0-73.216-14.848t-59.904-41.984-40.448-64.512-14.848-83.456q0-53.248 15.36-92.16t41.472-65.024 61.44-38.912 75.264-12.8z" />
<glyph unicode="&#x3a;" glyph-name="colon" data-tags="colon" horiz-adv-x="285" d="M114.688 151.040v65.536h55.296v-65.536h-55.296zM114.688 617.984v65.536h55.296v-65.536h-55.296z" />
<glyph unicode="&#x3b;" glyph-name="semicolon" data-tags="semicolon" horiz-adv-x="285" d="M114.688 617.984v65.536h55.296v-65.536h-55.296zM169.984 154.112q0-59.392-24.576-93.184t-70.656-48.128v29.696q29.696 12.288 43.008 37.376t13.312 71.168h-18.432v65.536h57.344v-62.464z" />
<glyph unicode="&#x3c;" glyph-name="less" data-tags="less" d="M145.408 480.768l366.592-181.248v-40.96l-409.6 207.872v29.696l409.6 207.872v-40.96l-366.592-181.248v-1.024z" />
<glyph unicode="&#x3d;" glyph-name="equal" data-tags="equal" d="M512 570.88h-409.6v34.816h409.6v-34.816zM512 355.84h-409.6v34.816h409.6v-34.816z" />
<glyph unicode="&#x3e;" glyph-name="greater" data-tags="greater" d="M468.992 481.792l-366.592 181.248v40.96l409.6-207.872v-29.696l-409.6-207.872v40.96l366.592 181.248v1.024z" />
<glyph unicode="&#x3f;" glyph-name="question" data-tags="question" horiz-adv-x="505" d="M58.368 737.792q6.144 34.816 23.040 65.024t43.52 52.736 62.464 35.328 79.872 12.8q43.008 0 79.36-12.288t62.464-33.792 40.448-50.688 14.336-61.952q0-24.576-5.12-44.032t-19.456-41.984-39.424-51.2-64-69.632q-22.528-23.552-35.328-43.52t-18.944-40.96-7.68-44.032-1.536-53.76h-36.864q0 40.96 2.048 69.12t9.728 50.176 22.528 41.984 41.472 46.592q30.72 30.72 52.224 53.76t35.84 43.008 20.992 39.424 6.656 44.032q0 25.6-11.264 48.64t-32.256 40.448-50.688 28.16-66.56 10.752q-32.768 0-60.928-10.24t-50.176-27.648-36.864-42.496-20.992-53.76h-38.912zM226.304 151.040v65.536h55.296v-65.536h-55.296z" />
<glyph unicode="&#x40;" glyph-name="at" data-tags="at" horiz-adv-x="952" d="M706.56 258.56q-26.624 0-46.080 9.216t-32.768 24.576-20.48 35.84-7.168 43.008q-6.144-14.336-20.48-33.28t-35.84-35.328-50.688-27.648-64-11.264q-32.768 0-62.976 12.288t-53.248 36.352-37.376 59.392-14.336 81.408q0 63.488 17.408 113.664t47.616 84.48 70.656 52.736 85.504 18.432q19.456 0 40.448-5.632t39.936-16.384 33.792-27.136 23.040-38.912l18.432 80.896h27.648l-37.888-290.816q-1.024-11.264-1.536-17.408t-0.512-14.336q0-50.176 22.528-76.288t58.368-26.112q30.72 0 57.856 16.896t47.104 50.176 31.232 82.432 11.264 114.688q0 67.584-25.088 125.952t-72.192 100.352-114.688 66.048-152.576 24.064q-64.512 0-133.632-20.48t-126.464-66.56-94.208-121.344-36.864-183.808q0-91.136 32.256-161.792t86.528-118.272 125.952-72.192 150.528-24.576q46.080 0 87.552 7.168t72.192 17.408l10.24-30.72q-31.744-11.264-76.288-19.456t-94.72-8.192q-81.92 0-159.232 26.112t-137.728 77.824-97.28 128.512-36.864 178.176q0 115.712 39.424 196.608t101.376 131.584 138.24 73.728 148.992 23.040q95.232 0 169.984-27.648t125.952-75.264 78.336-110.592 27.136-134.656q0-69.632-14.336-124.416t-38.912-93.184-58.368-58.88-72.704-20.48zM435.2 295.424q27.648 0 54.272 9.728t48.64 28.672 37.376 47.616 20.48 66.56l10.24 74.752q1.024 8.192 1.536 16.384t0.512 16.384q0 36.864-10.752 62.976t-28.672 41.984-40.448 23.552-46.080 7.68q-34.816 0-68.096-14.848t-59.392-44.032-41.984-73.216-15.872-102.4q0-38.912 10.752-69.12t29.696-50.688 44.032-31.232 53.76-10.752z" />
<glyph unicode="&#x41;" glyph-name="A" data-tags="A" horiz-adv-x="657" d="M605.184 151.040l-86.016 218.112h-381.952l-87.040-218.112h-39.936l292.864 737.28h52.224l291.84-737.28h-41.984zM149.504 401.92h357.376l-177.152 451.584z" />
<glyph unicode="&#x42;" glyph-name="B" data-tags="B" horiz-adv-x="647" d="M334.848 888.32q108.544 0 166.912-47.616t58.368-129.536q0-29.696-9.728-56.832t-27.648-49.152-43.52-38.912-58.368-24.064q35.84-5.12 67.072-20.48t54.272-39.936 36.352-56.832 13.312-70.144q0-94.208-62.464-148.992t-188.416-54.784h-253.952v737.28h247.808zM124.928 523.776v-338.944h221.184q99.328 0 152.576 44.032t53.248 125.952q0 36.864-13.824 68.096t-39.424 53.76-62.976 34.816-83.456 12.288h-227.328zM124.928 854.528v-297.984h224.256q43.008 0 75.264 12.288t53.76 32.768 32.768 48.64 11.264 59.904q0 68.608-47.104 106.496t-134.144 37.888h-216.064z" />
<glyph unicode="&#x43;" glyph-name="C" data-tags="C" horiz-adv-x="732" d="M387.072 135.68q-73.728 0-134.144 27.136t-104.448 76.288-68.096 118.272-24.064 154.112q0 95.232 25.6 168.448t69.632 122.88 103.424 75.264 128 25.6q57.344 0 107.52-14.848t89.088-44.032 65.536-72.192 35.84-100.352h-36.864q-20.48 99.328-90.624 148.48t-170.496 49.152q-60.416 0-113.152-23.552t-91.648-69.632-60.928-112.64-22.016-152.576q0-78.848 22.016-142.336t61.44-108.032 92.672-68.096 115.712-23.552q51.2 0 94.72 14.848t76.8 43.008 54.784 69.12 28.672 93.184h37.888q-7.168-54.272-30.208-100.864t-60.928-80.384-88.576-53.248-113.152-19.456z" />
<glyph unicode="&#x44;" glyph-name="D" data-tags="D" horiz-adv-x="690" d="M281.6 888.32q76.8 0 141.824-24.576t111.616-71.68 72.704-115.712 26.112-156.672q0-87.040-27.136-155.648t-74.24-115.712-112.128-72.192-139.776-25.088h-193.536v737.28h194.56zM124.928 854.528v-669.696h160.768q65.536 0 122.368 22.016t98.304 64 65.024 104.448 23.552 144.384-23.552 144.384-65.536 104.96-98.816 64-123.392 21.504h-158.72z" />
<glyph unicode="&#x45;" glyph-name="E" data-tags="E" horiz-adv-x="574" d="M483.328 509.44h-358.4v-324.608h388.096v-33.792h-425.984v737.28h425.984v-33.792h-388.096v-311.296h358.4v-33.792z" />
<glyph unicode="&#x46;" glyph-name="F" data-tags="F" horiz-adv-x="563" d="M506.88 888.32v-33.792h-381.952v-331.776h344.064v-33.792h-344.064v-337.92h-37.888v737.28h419.84z" />
<glyph unicode="&#x47;" glyph-name="G" data-tags="G" horiz-adv-x="745" d="M666.624 151.040h-27.648l-5.12 135.168q-32.768-70.656-97.792-110.592t-148.992-39.936q-67.584 0-127.488 24.576t-105.472 72.704-71.68 119.808-26.112 165.888 25.088 166.4 69.12 120.832 103.424 73.216 128 24.576q113.664 0 188.928-53.76t98.816-156.16h-38.912q-23.552 89.088-88.064 132.608t-160.768 43.52q-55.296 0-107.008-21.504t-91.648-65.024-64-109.568-24.064-155.136q0-86.016 24.064-151.552t64-109.056 92.672-66.048 111.104-22.528q50.176 0 95.232 16.896t78.848 46.592 53.248 70.144 19.456 88.576v108.544h-248.832v33.792h281.6v-382.976z" />
<glyph unicode="&#x48;" glyph-name="H" data-tags="H" horiz-adv-x="692" d="M605.184 888.32v-737.28h-37.888v359.424h-442.368v-359.424h-37.888v737.28h37.888v-343.040h442.368v343.040h37.888z" />
<glyph unicode="&#x49;" glyph-name="I" data-tags="I" horiz-adv-x="212" d="M124.928 888.32v-737.28h-37.888v737.28h37.888z" />
<glyph unicode="&#x4a;" glyph-name="J" data-tags="J" horiz-adv-x="529" d="M72.704 341.504q4.096-83.968 50.688-128t120.32-44.032q76.8 0 121.344 46.080t44.544 136.192v536.576h37.888v-535.552q0-48.128-14.336-88.064t-40.448-68.608-64-44.544-84.992-15.872q-96.256 0-150.016 56.32t-57.856 149.504h36.864z" />
<glyph unicode="&#x4b;" glyph-name="K" data-tags="K" horiz-adv-x="594" d="M527.36 151.040l-402.432 368.64v-368.64h-37.888v737.28h37.888v-349.184l377.856 349.184h46.080l-381.952-356.352 411.648-380.928h-51.2z" />
<glyph unicode="&#x4c;" glyph-name="L" data-tags="L" horiz-adv-x="559" d="M124.928 888.32v-703.488h388.096v-33.792h-425.984v737.28h37.888z" />
<glyph unicode="&#x4d;" glyph-name="M" data-tags="M" horiz-adv-x="849" d="M409.6 151.040l-285.696 698.368v-698.368h-36.864v737.28h59.392l286.72-701.44 271.36 701.44h57.344v-737.28h-36.864v693.248l-269.312-693.248h-46.080z" />
<glyph unicode="&#x4e;" glyph-name="N" data-tags="N" horiz-adv-x="726" d="M638.976 888.32v-737.28h-39.936l-475.136 684.032v-684.032h-36.864v737.28h41.984l475.136-678.912v678.912h34.816z" />
<glyph unicode="&#x4f;" glyph-name="O" data-tags="O" horiz-adv-x="762" d="M380.928 169.472q56.32 0 108.032 20.48t91.136 63.488 62.976 109.056 23.552 156.16q0 86.016-22.016 151.552t-60.416 110.080-90.624 67.072-112.64 22.528-112.64-22.528-90.624-67.072-60.416-110.080-22.016-151.552q0-88.064 23.552-153.6t62.976-109.056 91.136-65.024 108.032-21.504zM380.928 135.68q-67.584 0-126.976 25.088t-102.912 74.24-69.12 120.32-25.6 163.328q0 93.184 25.6 164.864t69.632 120.832 102.912 74.24 126.464 25.088 126.464-25.088 102.912-74.24 69.632-120.832 25.6-164.864q0-94.208-25.6-165.888t-69.12-119.808-102.912-72.704-126.976-24.576z" />
<glyph unicode="&#x50;" glyph-name="P" data-tags="P" horiz-adv-x="639" d="M337.92 888.32q119.808 0 184.832-60.416t65.024-166.912q0-51.2-18.944-91.648t-52.736-68.608-79.872-43.52-100.352-15.36h-210.944v-290.816h-37.888v737.28h250.88zM124.928 854.528v-377.856h210.944q97.28 0 154.624 48.64t57.344 135.68q0 91.136-54.272 142.336t-152.576 51.2h-216.064z" />
<glyph unicode="&#x51;" glyph-name="Q" data-tags="Q" horiz-adv-x="762" d="M380.928 135.68q-67.584 0-126.976 25.088t-102.912 74.24-69.12 120.32-25.6 163.328q0 93.184 25.6 164.864t69.632 120.832 102.912 74.24 126.464 25.088 126.464-25.088 102.912-74.24 69.632-120.832 25.6-164.864q0-108.544-32.768-185.856t-89.088-125.44l113.664-139.264-34.816-24.576-107.52 142.336q-74.752-50.176-174.080-50.176zM380.928 169.472q56.32 0 108.032 20.48t91.136 63.488 62.976 109.056 23.552 156.16q0 86.016-22.016 151.552t-60.416 110.080-90.624 67.072-112.64 22.528-112.64-22.528-90.624-67.072-60.416-110.080-22.016-151.552q0-88.064 23.552-153.6t62.976-109.056 91.136-65.024 108.032-21.504z" />
<glyph unicode="&#x52;" glyph-name="R" data-tags="R" horiz-adv-x="634" d="M566.272 151.040l-205.824 312.32h-235.52v-312.32h-37.888v737.28h257.024q118.784 0 181.76-57.344t62.976-158.72q0-39.936-14.336-73.216t-39.424-59.392-59.392-44.032-74.24-27.136l211.968-317.44h-47.104zM124.928 854.528v-357.376h217.088q48.128 0 86.528 13.312t65.024 36.352 40.96 55.296 14.336 70.144q0 87.040-51.2 134.656t-150.528 47.616h-222.208z" />
<glyph unicode="&#x53;" glyph-name="S" data-tags="S" horiz-adv-x="658" d="M329.728 170.496q111.616 0 171.008 44.032t59.392 120.832q0 36.864-11.264 65.536t-39.424 51.712-76.8 40.448-123.392 32.768q-123.904 24.576-176.64 73.216t-52.736 126.464q0 38.912 15.872 71.68t47.104 56.32 78.336 36.864 108.544 13.312q52.224 0 97.792-12.288t81.408-34.816 59.904-55.808 33.28-74.24h-38.912q-17.408 67.584-78.336 105.472t-153.088 37.888q-108.544 0-160.768-39.424t-52.224-101.888q0-32.768 9.728-58.88t34.304-46.592 66.56-36.864 105.472-29.696q72.704-15.36 122.88-34.816t81.92-46.080 45.568-60.928 13.824-78.336q0-43.008-17.408-79.872t-51.712-64-84.992-41.984-116.224-14.848q-112.64 0-187.904 49.664t-94.72 145.92h39.936q8.192-40.96 30.208-71.168t54.272-50.176 72.704-29.696 86.528-9.728z" />
<glyph unicode="&#x54;" glyph-name="T" data-tags="T" horiz-adv-x="577" d="M556.032 854.528h-248.832v-703.488h-37.888v703.488h-248.832v33.792h535.552v-33.792z" />
<glyph unicode="&#x55;" glyph-name="U" data-tags="U" horiz-adv-x="717" d="M358.4 135.68q-66.56 0-117.76 20.48t-86.528 55.808-53.76 81.92-18.432 97.792v496.64h36.864v-497.664q0-49.152 18.432-89.6t50.688-69.632 75.776-45.568 94.72-16.384q50.176 0 94.208 16.384t76.288 45.568 50.688 69.632 18.432 89.6v497.664h36.864v-496.64q0-51.2-18.944-97.792t-54.272-81.92-86.528-55.808-116.736-20.48z" />
<glyph unicode="&#x56;" glyph-name="V" data-tags="V" horiz-adv-x="633" d="M49.152 888.32l266.24-707.584 270.336 707.584h36.864l-278.528-737.28h-56.32l-277.504 737.28h38.912z" />
<glyph unicode="&#x57;" glyph-name="W" data-tags="W" horiz-adv-x="973" d="M957.44 888.32l-207.872-737.28h-56.32l-206.848 706.56-205.824-706.56h-57.344l-207.872 737.28h39.936l197.632-707.584 206.848 707.584h56.32l205.824-705.536 198.656 705.536h36.864z" />
<glyph unicode="&#x58;" glyph-name="X" data-tags="X" horiz-adv-x="610" d="M330.752 531.968l259.072-380.928h-45.056l-239.616 353.28-240.64-353.28h-44.032l262.144 382.976-241.664 354.304h45.056l222.208-326.656 230.4 326.656h41.984z" />
<glyph unicode="&#x59;" glyph-name="Y" data-tags="Y" horiz-adv-x="635" d="M51.2 888.32l265.216-412.672 269.312 412.672h38.912l-288.768-449.536v-287.744h-37.888v289.792l-287.744 447.488h40.96z" />
<glyph unicode="&#x5a;" glyph-name="Z" data-tags="Z" horiz-adv-x="654" d="M95.232 184.832h497.664v-33.792h-541.696v34.816l506.88 668.672h-483.328v33.792h528.384v-31.744z" />
<glyph unicode="&#x5b;" glyph-name="bracketleft" data-tags="bracketleft" horiz-adv-x="236" d="M204.8-23.040h-174.080v1003.52h174.080v-32.768h-137.216v-937.984h137.216v-32.768z" />
<glyph unicode="&#x5c;" glyph-name="backslash" data-tags="backslash" horiz-adv-x="311" d="M30.72 903.68h35.84l214.016-844.8h-35.84z" />
<glyph unicode="&#x5d;" glyph-name="bracketright" data-tags="bracketright" horiz-adv-x="236" d="M30.72 9.728h137.216v937.984h-137.216v32.768h174.080v-1003.52h-174.080v32.768z" />
<glyph unicode="&#x5e;" glyph-name="asciicircum" data-tags="asciicircum" horiz-adv-x="492" d="M84.992 560.64h-37.888l178.176 327.68h40.96l178.176-327.68h-37.888l-160.768 299.008z" />
<glyph unicode="&#x5f;" glyph-name="underscore" data-tags="underscore" horiz-adv-x="618" d="M587.776 44.544h-557.056v34.816h557.056v-34.816z" />
<glyph unicode="&#x60;" glyph-name="grave" data-tags="grave" horiz-adv-x="221" d="M190.464 763.392h-34.816l-124.928 140.288h54.272z" />
<glyph unicode="&#x61;" glyph-name="a" data-tags="a" horiz-adv-x="532" d="M68.608 550.4q3.072 32.768 18.944 60.416t41.472 47.104 60.416 30.208 76.8 10.752q40.96 0 75.776-11.776t60.416-33.792 39.424-53.76 13.824-71.68v-376.832h-29.696l-6.144 95.232q-12.288-21.504-29.696-41.472t-41.472-35.328-54.272-24.576-67.072-9.216-69.12 9.728-55.808 28.672-37.376 46.592-13.824 64.512q0 66.56 46.080 108.032t159.744 60.928l161.792 26.624v54.272q0 61.44-40.96 97.28t-113.664 35.84q-67.584 0-110.592-32.768t-48.128-84.992h-36.864zM418.816 450.048l-147.456-24.576q-53.248-9.216-88.064-22.016t-55.808-29.696-29.696-38.4-8.704-48.128q0-61.44 41.984-90.624t106.496-29.184q33.792 0 66.048 12.288t57.856 34.816 41.472 53.76 15.872 70.144v111.616z" />
<glyph unicode="&#x62;" glyph-name="b" data-tags="b" horiz-adv-x="582" d="M81.92 151.040v737.28h36.864v-314.368q24.576 55.296 73.216 90.112t118.272 34.816q48.128 0 88.576-16.896t69.632-50.688 45.568-85.504 16.384-121.344q0-71.68-17.408-125.44t-47.616-90.112-70.656-54.784-87.552-18.432q-68.608 0-117.248 34.304t-72.192 89.6l-6.144-108.544h-29.696zM492.544 425.472q0 62.464-13.824 108.032t-38.912 75.776-59.904 44.544-75.776 14.336q-33.792 0-68.096-12.8t-60.928-43.008-43.52-78.336-16.896-118.784q0-63.488 14.336-110.080t39.424-77.312 59.392-46.080 74.24-15.36 74.752 15.872 60.416 48.128 40.448 80.896 14.848 114.176z" />
<glyph unicode="&#x63;" glyph-name="c" data-tags="c" horiz-adv-x="547" d="M495.616 301.568q-6.144-36.864-24.576-67.072t-46.592-52.224-64.512-34.304-78.336-12.288q-48.128 0-90.112 17.92t-73.216 52.736-49.152 86.528-17.92 120.32q0 71.68 18.944 125.44t50.688 89.6 73.728 53.248 89.088 17.408q40.96 0 76.8-11.264t62.976-32.256 45.056-50.176 24.064-65.024h-38.912q-10.24 58.368-55.808 93.184t-113.152 34.816q-40.96 0-76.8-15.872t-62.464-47.616-41.984-79.872-15.36-113.664q0-62.464 15.872-108.544t42.496-75.776 61.952-44.544 75.264-14.848q33.792 0 63.488 10.24t52.736 27.648 37.888 41.984 19.968 54.272h37.888z" />
<glyph unicode="&#x64;" glyph-name="d" data-tags="d" horiz-adv-x="582" d="M470.016 151.040l-6.144 112.64q-24.576-56.32-73.216-92.16t-118.272-35.84q-45.056 0-84.992 16.896t-70.144 51.2-48.128 86.016-17.92 121.344q0 72.704 17.92 126.464t48.64 89.6 71.168 53.76 85.504 17.92q66.56 0 115.2-33.28t73.216-87.552v310.272h36.864v-737.28h-29.696zM89.088 412.16q0-63.488 14.848-109.568t40.448-76.288 60.416-45.056 73.728-14.848q33.792 0 67.072 12.8t60.416 43.008 44.032 78.336 16.896 118.784q0 62.464-14.336 109.568t-39.936 77.824-59.392 46.080-73.728 15.36q-38.912 0-73.216-15.36t-60.416-47.104-41.472-79.872-15.36-113.664z" />
<glyph unicode="&#x65;" glyph-name="e" data-tags="e" horiz-adv-x="582" d="M515.072 292.352q-19.456-72.704-76.8-114.688t-138.24-41.984q-53.248 0-98.816 18.432t-78.848 54.784-52.224 88.576-18.944 119.808 18.432 120.32 50.176 88.576 75.264 54.272 92.672 18.432 92.672-17.92 75.776-53.76 50.688-90.624 18.432-128.512h-436.224q1.024-61.44 18.432-107.008t46.080-75.264 66.56-44.032 80.896-14.336q64.512 0 111.616 32.256t63.488 92.672h38.912zM287.744 668.16q-39.936 0-74.752-14.848t-61.44-43.52-43.008-71.68-19.456-98.304h397.312q-3.072 56.32-19.456 99.328t-43.008 71.68-61.44 43.008-74.752 14.336z" />
<glyph unicode="&#x66;" glyph-name="f" data-tags="f" horiz-adv-x="298" d="M303.104 860.672q-18.432 5.12-39.936 8.704t-37.888 3.584q-36.864 0-57.856-23.040t-20.992-69.12v-97.28h130.048v-31.744h-130.048v-500.736h-36.864v500.736h-78.848v31.744h78.848v96.256q0 60.416 31.744 92.16t83.968 31.744q38.912 0 77.824-12.288v-30.72z" />
<glyph unicode="&#x67;" glyph-name="g" data-tags="g" horiz-adv-x="582" d="M112.64 95.744q6.144-29.696 21.504-51.2t38.4-35.328 51.712-20.48 60.416-6.656q40.96 0 74.24 12.288t56.32 34.304 35.328 53.248 12.288 69.12v136.192q-24.576-51.2-72.704-83.456t-116.736-32.256q-44.032 0-83.968 16.896t-70.656 49.664-49.152 80.896-18.432 111.616q0 65.536 17.92 115.712t48.128 83.968 70.656 51.2 86.528 17.408q65.536 0 115.2-31.744t74.24-86.016l6.144 102.4h29.696v-532.48q0-43.008-14.848-79.36t-42.496-62.976-67.072-41.984-89.6-15.36q-84.992 0-141.312 36.864t-70.656 107.52h38.912zM89.088 431.616q0-56.32 14.848-99.328t40.96-71.68 60.416-43.52 74.24-14.848q34.816 0 68.096 11.264t59.904 38.4 43.008 71.68 16.384 111.104q0 60.416-14.848 104.448t-39.936 72.704-59.392 42.496-74.24 13.824q-38.912 0-73.216-14.336t-59.904-43.52-40.96-73.728-15.36-104.96z" />
<glyph unicode="&#x68;" glyph-name="h" data-tags="h" horiz-adv-x="560" d="M81.92 151.040v737.28h36.864v-305.152q25.6 56.32 74.752 86.016t107.52 29.696q40.96 0 74.752-12.8t57.856-35.84 36.864-56.32 12.8-74.24v-368.64h-36.864v366.592q0 70.656-39.936 110.592t-113.664 39.936q-30.72 0-61.952-13.312t-56.32-37.376-40.448-58.368-15.36-77.312v-330.752h-36.864z" />
<glyph unicode="&#x69;" glyph-name="i" data-tags="i" horiz-adv-x="188" d="M75.776 151.040v532.48h36.864v-532.48h-36.864zM70.656 829.952v58.368h47.104v-58.368h-47.104z" />
<glyph unicode="&#x6a;" glyph-name="j" data-tags="j" horiz-adv-x="188" d="M-60.416-4.608q16.384-5.12 34.816-8.192t31.744-3.072q33.792 0 51.712 20.48t17.92 69.632v609.28h36.864v-611.328q0-60.416-26.112-90.624t-75.264-30.208q-17.408 0-34.816 2.56t-36.864 8.704v32.768zM70.656 829.952v58.368h47.104v-58.368h-47.104z" />
<glyph unicode="&#x6b;" glyph-name="k" data-tags="k" horiz-adv-x="485" d="M81.92 151.040v737.28h36.864v-425.984l274.432 221.184h51.2l-287.744-232.448 323.584-300.032h-50.176l-311.296 286.72v-286.72h-36.864z" />
<glyph unicode="&#x6c;" glyph-name="l" data-tags="l" horiz-adv-x="201" d="M118.784 151.040h-36.864v737.28h36.864v-737.28z" />
<glyph unicode="&#x6d;" glyph-name="m" data-tags="m" horiz-adv-x="863" d="M81.92 151.040v532.48h30.72l5.12-91.136q25.6 55.296 72.192 80.896t94.72 25.6q62.464 0 103.936-29.696t55.808-84.992q25.6 59.392 74.752 87.040t99.328 27.648q79.872 0 123.904-46.592t44.032-131.584v-369.664h-36.864v367.616q0 76.8-36.352 113.152t-100.864 36.352q-34.816 0-64-14.336t-50.688-39.424-33.28-58.88-11.776-72.704v-331.776h-36.864v367.616q0 75.776-35.328 112.64t-99.84 36.864q-35.84 0-65.536-14.336t-51.2-39.424-33.28-58.88-11.776-72.704v-331.776h-36.864z" />
<glyph unicode="&#x6e;" glyph-name="n" data-tags="n" horiz-adv-x="560" d="M81.92 151.040v532.48h30.72l5.12-101.376q26.624 57.344 75.776 87.040t107.52 29.696q40.96 0 74.752-12.8t57.856-35.84 36.864-56.32 12.8-74.24v-368.64h-36.864v366.592q0 70.656-39.936 110.592t-113.664 39.936q-30.72 0-61.952-12.8t-56.32-36.864-40.448-58.368-15.36-77.312v-331.776h-36.864z" />
<glyph unicode="&#x6f;" glyph-name="o" data-tags="o" horiz-adv-x="579" d="M89.088 417.28q0-62.464 15.36-109.568t42.496-78.336 64-47.104 78.848-15.872q43.008 0 79.872 15.872t63.488 47.104 41.472 78.336 14.848 109.568-14.848 109.568-41.472 78.848-63.488 47.104-79.872 15.36-79.872-15.872-64-47.104-41.984-78.336-14.848-109.568zM51.2 417.28q0 69.632 17.92 122.368t50.176 88.064 75.776 53.248 94.72 17.92q52.224 0 95.744-17.92t75.264-53.76 49.152-88.576 17.408-121.344q0-69.632-17.92-122.368t-49.152-88.064-74.752-53.248-93.696-17.92q-51.2 0-95.232 18.432t-76.288 53.76-50.688 88.064-18.432 121.344z" />
<glyph unicode="&#x70;" glyph-name="p" data-tags="p" horiz-adv-x="582" d="M111.616 683.52l6.144-111.616q23.552 55.296 72.704 91.136t119.808 35.84q47.104 0 87.552-16.896t70.144-50.688 46.080-85.504 16.384-121.344q0-71.68-17.408-125.44t-48.128-90.112-71.68-54.784-88.064-18.432q-67.584 0-115.2 33.28t-71.168 88.576v-290.816h-36.864v716.8h29.696zM492.544 425.472q0 62.464-14.336 108.032t-39.424 75.776-59.392 44.544-75.264 14.336q-33.792 0-68.096-12.8t-60.928-43.008-43.52-78.336-16.896-118.784q0-63.488 14.336-110.080t38.912-77.312 58.368-46.080 73.728-15.36 74.752 15.872 60.928 48.128 41.472 80.896 15.36 114.176z" />
<glyph unicode="&#x71;" glyph-name="q" data-tags="q" horiz-adv-x="582" d="M499.712 683.52v-716.8h-36.864v294.912q-24.576-55.296-73.216-90.624t-117.248-35.328q-45.056 0-84.992 16.896t-70.144 51.2-48.128 86.016-17.92 121.344q0 72.704 17.92 126.464t48.64 89.6 71.168 53.76 85.504 17.92q67.584 0 116.224-34.304t73.216-89.6l6.144 108.544h29.696zM89.088 412.16q0-63.488 14.848-109.568t40.448-76.288 60.416-45.056 73.728-14.848q33.792 0 67.072 12.8t60.416 43.008 44.032 78.336 16.896 118.784q0 62.464-14.336 109.568t-39.936 77.824-59.392 46.080-73.728 15.36q-38.912 0-73.216-15.36t-60.416-47.104-41.472-79.872-15.36-113.664z" />
<glyph unicode="&#x72;" glyph-name="r" data-tags="r" horiz-adv-x="342" d="M81.92 151.040v532.48h29.696l6.144-112.64q20.48 67.584 61.952 97.792t93.696 30.208q14.336 0 29.184-2.56t24.064-5.632v-35.84q-13.312 4.096-27.136 6.656t-29.184 2.56q-30.72 0-58.368-15.36t-48.128-43.52-32.768-67.072-12.288-86.016v-301.056h-36.864z" />
<glyph unicode="&#x73;" glyph-name="s" data-tags="s" horiz-adv-x="503" d="M412.672 290.304q0 53.248-41.984 81.92t-141.312 44.032q-37.888 6.144-69.12 17.408t-54.272 28.672-35.84 41.984-12.8 57.344q0 27.648 11.776 52.736t34.816 44.032 58.368 29.696 83.456 10.752q39.936 0 74.752-10.24t61.44-29.184 44.032-45.568 23.552-58.368h-38.912q-3.072 23.552-16.896 44.032t-35.84 35.84-51.712 24.064-63.488 8.704q-37.888 0-65.536-8.192t-46.080-22.528-27.136-33.28-8.704-39.424q0-49.152 35.328-76.288t124.416-42.496q106.496-18.432 151.552-54.272t45.056-100.352q0-29.696-13.824-57.856t-39.936-49.664-64-34.816-84.992-13.312q-92.16 0-144.896 42.496t-62.976 109.056h38.912q5.12-52.224 50.688-86.016t119.296-33.792q39.936 0 70.144 10.24t50.688 27.136 31.232 39.424 10.752 46.080z" />
<glyph unicode="&#x74;" glyph-name="t" data-tags="t" horiz-adv-x="301" d="M139.264 651.776v-403.456q0-43.008 20.48-62.464t55.296-19.456q14.336 0 29.696 2.048t35.84 7.168v-30.72q-35.84-9.216-65.536-9.216-52.224 0-82.432 27.648t-30.208 86.016v402.432h-76.8v31.744h76.8l4.096 128h32.768v-128h126.976v-31.744h-126.976z" />
<glyph unicode="&#x75;" glyph-name="u" data-tags="u" horiz-adv-x="555" d="M113.664 683.52v-364.544q0-76.8 40.96-114.688t110.592-37.888q35.84 0 67.072 14.336t54.272 39.424 36.352 59.904 13.312 75.776v327.68h36.864v-532.48h-30.72l-5.12 95.232q-14.336-28.672-34.304-49.664t-44.032-34.304-50.176-19.968-51.712-6.656q-38.912 0-71.68 11.264t-56.832 33.792-37.888 56.832-13.824 79.36v366.592h36.864z" />
<glyph unicode="&#x76;" glyph-name="v" data-tags="v" horiz-adv-x="502" d="M481.28 683.52l-205.824-532.48h-49.152l-205.824 532.48h39.936l190.464-499.712 192.512 499.712h37.888z" />
<glyph unicode="&#x77;" glyph-name="w" data-tags="w" horiz-adv-x="770" d="M744.448 683.52l-152.576-532.48h-47.104l-157.696 499.712-148.48-499.712h-47.104l-165.888 532.48h36.864l153.6-496.64 147.456 496.64h49.152l155.648-494.592 140.288 494.592h35.84z" />
<glyph unicode="&#x78;" glyph-name="x" data-tags="x" horiz-adv-x="516" d="M277.504 431.616l218.112-280.576h-46.080l-196.608 253.952-188.416-253.952h-44.032l209.92 280.576-200.704 251.904h47.104l179.2-225.28 164.864 225.28h43.008z" />
<glyph unicode="&#x79;" glyph-name="y" data-tags="y" horiz-adv-x="502" d="M290.816 147.968q-21.504-58.368-36.352-96.768t-29.184-60.416-31.232-30.72-42.496-8.704q-13.312 0-27.136 3.072t-25.088 7.168v30.72q28.672-10.24 53.248-10.24 16.384 0 28.672 8.192t23.040 27.648 22.528 52.224 28.16 80.896h-17.408l-217.088 532.48h39.936l204.8-505.856 178.176 505.856h37.888z" />
<glyph unicode="&#x7a;" glyph-name="z" data-tags="z" horiz-adv-x="489" d="M81.92 182.784h366.592v-31.744h-407.552v36.864l368.64 463.872h-353.28v31.744h392.192v-38.912z" />
<glyph unicode="&#x7b;" glyph-name="braceleft" data-tags="braceleft" horiz-adv-x="348" d="M61.44 498.176q44.032 0 70.656 27.136t26.624 76.288v243.712q0 64.512 30.72 99.84t107.52 35.328v-32.768q-60.416 0-80.896-25.6t-20.48-71.68v-245.76q0-51.2-25.6-83.968t-68.608-40.96q43.008-8.192 68.608-40.96t25.6-83.968v-245.76q0-46.080 20.48-71.68t80.896-25.6v-32.768q-76.8 0-107.52 35.328t-30.72 99.84v243.712q0 49.152-26.624 76.288t-70.656 27.136v36.864z" />
<glyph unicode="&#x7c;" glyph-name="bar" data-tags="bar" horiz-adv-x="348" d="M191.488 954.88v-947.2h-34.816v947.2h34.816z" />
<glyph unicode="&#x7d;" glyph-name="braceright" data-tags="braceright" horiz-adv-x="348" d="M286.72 461.312q-44.032 0-70.656-27.136t-26.624-76.288v-243.712q0-64.512-30.72-99.84t-107.52-35.328v32.768q60.416 0 80.896 25.6t20.48 71.68v245.76q0 51.2 25.6 83.968t68.608 40.96q-43.008 8.192-68.608 40.96t-25.6 83.968v245.76q0 46.080-20.48 71.68t-80.896 25.6v32.768q76.8 0 107.52-35.328t30.72-99.84v-243.712q0-49.152 26.624-76.288t70.656-27.136v-36.864z" />
<glyph unicode="&#x7e;" glyph-name="asciitilde" data-tags="asciitilde" d="M405.504 472.576q31.744 0 55.808 13.312t50.688 36.864v-41.984q-20.48-16.384-46.080-28.672t-61.44-12.288q-31.744 0-56.32 9.216t-46.592 20.992-44.032 20.992-48.64 9.216q-31.744 0-55.808-13.312t-50.688-36.864v41.984q20.48 16.384 46.080 28.672t61.44 12.288q31.744 0 56.32-9.216t46.592-20.992 44.032-20.992 48.64-9.216z" />
<glyph unicode="&#x7f;" glyph-name="exclam2" data-tags="exclam" horiz-adv-x="317" d="M94.208 396.8l81.92 506.88h202.752l-133.12-506.88h-151.552zM26.624 151.040l33.792 160.768h181.248l-33.792-160.768h-181.248z" />
<glyph unicode="&#x80;" glyph-name="quotedbl2" data-tags="quotedbl" d="M261.12 652.8h-102.4l17.408 156.672 20.48 94.208h133.12l-20.48-94.208zM445.44 652.8h-102.4l17.408 156.672 20.48 94.208h133.12l-20.48-94.208z" />
<glyph unicode="&#x81;" glyph-name="numbersign2" data-tags="numbersign" d="M137.216 704h71.68l49.152 163.84h132.096l-49.152-163.84h117.76l49.152 163.84h132.096l-49.152-163.84h58.368l-23.552-112.64h-68.608l-49.152-163.84h62.464l-23.552-112.64h-71.68l-49.152-163.84h-132.096l49.152 163.84h-117.76l-49.152-163.84h-132.096l49.152 163.84h-58.368l23.552 112.64h67.584l49.152 163.84h-61.44zM258.048 427.52h117.76l49.152 163.84h-117.76z" />
<glyph unicode="&#x82;" glyph-name="dollar2" data-tags="dollar" d="M631.808 384.512q0-50.176-16.896-94.208t-54.272-76.8-95.744-53.248-141.312-24.576l-25.6-122.88h-132.096l26.624 130.048q-55.296 10.24-92.16 33.28t-58.368 52.224-30.208 61.44-8.704 62.976q0 3.072 0.512 6.656t0.512 7.68h162.816q0-48.128 31.232-80.384t105.984-32.256q31.744 0 58.88 5.632t46.592 16.896 30.72 29.696 11.264 43.008q0 22.528-12.8 38.912t-34.816 28.672-51.712 21.504-63.488 17.408q-38.912 9.216-76.288 24.064t-67.072 37.888-47.616 55.296-17.92 77.312q0 59.392 18.944 100.864t54.272 68.608 85.504 41.472 111.616 19.456l25.6 119.808h132.096l-26.624-122.88h-4.096q53.248-8.192 89.088-27.136t57.856-44.032 31.744-55.296 9.728-59.904v-13.312h-160.768q0 24.576-9.728 40.96t-25.6 26.624-37.376 14.848-45.056 4.608q-24.576 0-47.616-2.56t-40.448-11.264-27.648-24.064-10.24-40.96q0-35.84 32.768-56.832t99.328-36.352q50.176-12.288 93.696-28.16t75.776-40.448 50.688-58.88 18.432-81.408z" />
<glyph unicode="&#x83;" glyph-name="percent2" data-tags="percent" horiz-adv-x="818" d="M257.024 151.040h-126.976l501.76 716.8h126.976zM278.528 883.2q79.872 0 123.904-40.448t44.032-111.104q0-43.008-13.312-78.848t-37.888-61.44-60.416-39.936-81.92-14.336q-79.872 0-123.392 39.936t-43.52 109.568q0 90.112 50.176 143.36t142.336 53.248zM275.456 803.328q-36.864 0-58.88-28.672t-22.016-87.040q0-70.656 60.416-70.656 38.912 0 60.928 31.232t22.016 81.408q0 73.728-62.464 73.728zM800.768 331.264q0-43.008-12.8-79.36t-37.376-62.464-60.928-40.448-82.432-14.336q-79.872 0-123.392 39.936t-43.52 109.568q0 44.032 13.312 80.384t38.4 62.464 60.928 39.936 80.896 13.824q79.872 0 123.392-39.936t43.52-109.568zM692.224 329.216q0 35.84-15.872 53.76t-45.568 17.92q-35.84 0-58.88-27.648t-23.040-84.992q0-73.728 62.464-73.728 38.912 0 59.904 32.256t20.992 82.432z" />
<glyph unicode="&#x84;" glyph-name="ampersand2" data-tags="ampersand" horiz-adv-x="701" d="M692.224 494.080q-15.36-45.056-38.912-91.648t-56.32-89.6l69.632-81.92-123.904-95.232-56.32 66.56q-43.008-30.72-94.72-48.64t-110.080-17.92q-64.512 0-111.104 14.336t-76.8 38.912-44.544 57.344-14.336 69.632 12.288 66.048 34.816 53.248 54.784 45.056 73.216 42.496q-32.768 34.816-49.152 71.68t-16.384 79.872q0 35.84 11.776 72.704t40.448 67.072 76.8 49.664 120.832 19.456q54.272 0 93.184-13.312t63.488-34.816 36.352-48.128 11.776-54.272q0-39.936-15.36-71.68t-40.96-57.344-58.88-47.104-69.12-40.96l92.16-96.256q12.288 23.552 22.016 47.104t17.92 47.104zM303.104 251.392q27.648 0 57.344 10.24t52.224 28.672l-125.952 138.24q-43.008-27.648-58.88-49.152t-15.872-53.248q0-36.864 24.576-55.808t66.56-18.944zM302.080 712.192q-2.048-5.12-2.048-11.264v-10.24q0-20.48 9.216-40.448t31.744-43.52q31.744 18.432 52.224 33.28t32.768 28.672 16.896 27.648 4.608 30.208q0 26.624-16.384 41.472t-46.080 14.848q-37.888 0-56.832-17.92t-26.112-52.736z" />
<glyph unicode="&#x85;" glyph-name="quotesingle2" data-tags="quotesingle" horiz-adv-x="276" d="M254.976 652.8h-102.4l17.408 156.672 20.48 94.208h133.12l-20.48-94.208z" />
<glyph unicode="&#x86;" glyph-name="parenleft2" data-tags="parenleft" horiz-adv-x="348" d="M118.784-23.040q-27.648 58.368-49.664 143.872t-22.016 190.976q0 104.448 27.136 202.752t69.12 184.32 92.16 157.696 97.28 123.904h135.168q-71.68-93.184-122.88-180.736t-84.48-171.52-49.152-165.376-15.872-162.304q0-76.8 14.336-156.16t44.032-167.424h-135.168z" />
<glyph unicode="&#x87;" glyph-name="parenright2" data-tags="parenright" horiz-adv-x="348" d="M285.696 980.48q13.312-29.696 26.624-66.048t23.552-79.36 16.384-91.136 6.144-100.352q0-104.448-27.136-202.24t-69.632-183.808-93.184-157.696-96.768-122.88h-134.144q79.872 110.592 132.096 202.24t83.456 172.544 43.52 154.624 12.288 148.48q0 76.8-14.336 156.672t-44.032 168.96h135.168z" />
<glyph unicode="&#x88;" glyph-name="asterisk2" data-tags="asterisk" horiz-adv-x="481" d="M314.368 637.44l-51.2-121.856-114.688 83.968 94.208 90.112-133.12 10.24 45.056 135.168 114.688-61.44-30.72 130.048h141.312l-23.552-132.096 117.76 63.488 45.056-135.168-134.144-10.24 95.232-90.112-114.688-83.968z" />
<glyph unicode="&#x89;" glyph-name="plus2" data-tags="plus" d="M449.536 706.048l-34.816-161.792h159.744l-26.624-125.952h-159.744l-34.816-162.816h-132.096l34.816 162.816h-158.72l26.624 125.952h158.72l34.816 161.792h132.096z" />
<glyph unicode="&#x8a;" glyph-name="comma2" data-tags="comma" horiz-adv-x="276" d="M199.68 161.28q-12.288-59.392-39.424-96.256t-61.44-58.368-71.68-30.72-70.144-12.288l15.36 79.872q40.96 8.192 69.632 34.816t38.912 72.704h-64.512l33.792 160.768h181.248z" />
<glyph unicode="&#x8b;" glyph-name="hyphen2" data-tags="hyphen" horiz-adv-x="553" d="M486.4 418.304h-389.12l26.624 125.952h389.12z" />
<glyph unicode="&#x8c;" glyph-name="period2" data-tags="period" horiz-adv-x="296" d="M16.384 151.040l33.792 160.768h181.248l-33.792-160.768h-181.248z" />
<glyph unicode="&#x8d;" glyph-name="slash2" data-tags="slash" horiz-adv-x="348" d="M79.872 58.88h-140.288l386.048 844.8h141.312z" />
<glyph unicode="&#x8e;" glyph-name="zero2" data-tags="zero" d="M292.864 244.224q32.768 0 58.88 22.016t45.568 58.368 33.28 81.408 22.016 91.136 12.288 88.064 4.096 72.704q0 64.512-21.504 91.136t-56.32 26.624q-31.744 0-57.344-21.504t-45.568-56.832-33.792-80.384-23.040-91.136-13.312-89.6-4.096-76.288q0-64.512 21.504-90.112t57.344-25.6zM282.624 135.68q-51.2 0-93.184 15.872t-72.192 48.128-47.104 79.872-16.896 112.128q0 36.864 5.12 88.064t18.944 105.984 37.888 108.032 62.976 95.232 93.696 68.096 129.536 26.112q50.176 0 92.672-15.36t72.192-47.104 46.592-78.848 16.896-111.616q0-33.792-5.632-83.968t-19.968-104.96-38.912-109.568-63.488-98.304-92.672-70.656-126.464-27.136z" />
<glyph unicode="&#x8f;" glyph-name="one2" data-tags="one" d="M344.064 714.24l-182.272-83.968 31.744 150.528 183.296 87.040h158.72l-151.552-716.8h-159.744z" />
<glyph unicode="&#x90;" glyph-name="two2" data-tags="two" d="M113.664 671.232q18.432 52.224 49.664 91.648t70.656 66.048 86.016 40.448 95.744 13.824q48.128 0 89.6-13.312t71.68-37.376 47.104-57.344 16.896-72.192q0-17.408-3.072-33.792-8.192-40.96-24.576-72.192t-45.568-62.976-73.728-68.608-109.056-88.064l-119.808-96.256h282.624l-26.624-130.048h-496.64l26.624 130.048 209.92 169.984q61.44 49.152 102.912 83.456t66.56 60.928 35.84 49.152 10.752 49.152q0 32.768-20.992 51.712t-56.832 18.944-66.56-22.528-52.224-70.656h-166.912z" />
<glyph unicode="&#x91;" glyph-name="three2" data-tags="three" d="M280.576 251.392q24.576 0 46.592 7.68t38.912 24.064 27.136 41.472 10.24 60.928q0 43.008-27.136 65.536t-76.288 22.528h-62.464l23.552 109.568h74.752q20.48 0 41.984 7.168t39.424 20.992 29.184 34.816 11.264 49.664q0 32.768-22.016 52.736t-52.736 19.968q-69.632 0-100.352-70.656h-155.648q30.72 84.992 101.888 135.168t177.664 50.176q43.008 0 81.92-10.24t69.12-31.232 47.616-51.2 17.408-70.144q0-36.864-14.848-68.096t-39.936-55.296-58.88-39.424-71.68-21.504q28.672-3.072 52.736-16.896t41.472-34.816 27.136-47.616 9.728-55.296q0-16.384-3.072-32.768-19.456-101.376-98.304-157.184t-199.68-55.808q-53.248 0-96.256 13.312t-73.728 36.864-47.616 55.808-16.896 71.168v10.24q0 6.144 1.024 11.264h158.72v-8.192q0-33.792 22.528-54.272t65.536-20.48z" />
<glyph unicode="&#x92;" glyph-name="four2" data-tags="four" d="M614.4 867.84l-98.304-463.872h80.896l-24.576-117.76h-80.896l-28.672-135.168h-151.552l28.672 135.168h-310.272l28.672 135.168 392.192 446.464h163.84zM364.544 403.968l53.248 249.856-210.944-249.856h157.696z" />
<glyph unicode="&#x93;" glyph-name="five2" data-tags="five" d="M216.064 335.36q0-43.008 23.040-63.488t61.952-20.48q26.624 0 50.176 13.312t40.448 36.864 26.624 55.808 9.728 70.144q0 49.152-24.576 72.704t-67.584 23.552q-20.48 0-48.64-11.776t-51.712-32.256h-125.952l100.352 388.096h428.032l-23.552-112.64h-284.672l-43.008-160.768q29.696 16.384 60.928 25.088t60.928 8.704q40.96 0 75.776-13.312t59.392-37.888 38.4-58.88 13.824-77.312q0-70.656-25.6-126.976t-68.608-96.256-99.84-60.928-119.296-20.992q-49.152 0-90.112 12.288t-70.656 35.328-46.080 57.344-16.384 79.36q0 4.096 0.512 7.68t0.512 7.68h155.648z" />
<glyph unicode="&#x94;" glyph-name="six2" data-tags="six" d="M244.736 560.64q30.72 33.792 75.264 56.832t93.696 23.040q86.016 0 134.656-52.736t48.64-139.776q0-70.656-24.064-128.512t-67.072-98.816-101.376-62.976-125.952-22.016q-105.472 0-164.864 67.072t-59.392 187.904q0 52.224 12.288 115.712 24.576 120.832 64.512 194.56t88.064 114.176 101.888 54.272 105.984 13.824q96.256 0 155.648-40.96t67.584-115.712h-173.056q-3.072 24.576-21.504 36.864t-47.104 12.288q-21.504 0-42.496-9.728t-41.984-34.304-40.96-66.048-38.4-104.96zM355.328 527.872q-30.72 0-57.344-14.336t-46.080-38.4-30.208-54.784-10.752-63.488q0-18.432 4.096-37.888t14.336-35.328 26.112-25.6 40.448-9.728q27.648 0 52.736 14.336t44.032 39.424 29.696 60.416 10.752 77.312q0 88.064-77.824 88.064z" />
<glyph unicode="&#x95;" glyph-name="seven2" data-tags="seven" d="M257.024 151.040h-173.056l397.312 595.968h-334.848l25.6 120.832h496.64l-26.624-124.928z" />
<glyph unicode="&#x96;" glyph-name="eight2" data-tags="eight" d="M407.552 883.2q37.888 0 78.848-8.704t74.752-27.648 55.808-49.664 22.016-73.728q0-36.864-13.312-66.56t-35.328-53.248-50.176-40.96-56.832-29.696q18.432-11.264 36.352-27.136t31.744-35.84 22.016-44.032 8.192-51.712q0-55.296-21.504-99.84t-60.928-75.264-95.232-47.104-124.416-16.384q-58.368 0-104.448 13.312t-78.336 37.376-49.152 57.344-16.896 72.192q0 45.056 13.312 77.824t36.864 56.832 55.296 41.472 68.608 31.744q-35.84 22.528-58.88 53.76t-23.040 80.384q0 62.464 24.064 105.472t64 69.632 91.136 38.4 105.472 11.776zM289.792 247.296q19.456 0 41.472 7.168t39.936 22.528 29.696 38.912 11.776 55.296q0 23.552-9.216 40.448t-23.552 28.672-31.744 19.456-34.816 13.824q-17.408-8.192-36.864-19.456t-36.352-28.672-27.648-41.472-10.752-55.808q0-21.504 8.192-36.864t20.992-25.088 28.672-14.336 30.208-4.608zM398.336 782.848q-15.36 0-35.328-4.608t-38.4-16.384-30.72-32.256-12.288-52.224q0-20.48 8.192-36.352t20.992-27.648 28.672-19.456 30.208-11.776q19.456 9.216 39.424 20.992t35.84 27.136 25.6 35.328 9.728 44.544q0 19.456-8.704 33.28t-20.992 22.528-26.624 12.8-25.6 4.096z" />
<glyph unicode="&#x97;" glyph-name="nine2" data-tags="nine" d="M274.432 378.368q-49.152 0-84.48 14.336t-58.368 40.448-33.792 61.952-10.752 77.824q0 82.944 27.136 141.312t71.68 96.256 100.352 55.296 114.176 17.408q51.2 0 93.696-14.848t72.704-45.568 47.104-77.312 16.896-109.056q0-46.080-7.168-100.864t-24.064-110.592-44.032-108.032-67.584-92.16-95.232-64.512-125.44-24.576q-50.176 0-91.648 12.288t-71.68 34.304-48.128 53.76-19.968 71.68h173.056q0-32.768 19.456-48.64t52.224-15.872q21.504 0 41.472 9.216t39.424 33.28 38.4 64.512 37.376 102.912q-29.696-31.744-71.168-53.248t-91.648-21.504zM389.12 770.56q-34.816 0-60.928-15.36t-43.008-40.448-25.088-57.856-8.192-66.56q0-48.128 22.016-73.728t64-25.6q32.768 0 57.856 15.36t42.496 40.448 26.112 57.344 8.704 66.048q0 19.456-4.096 37.888t-13.824 32.256-26.112 22.016-39.936 8.192z" />
<glyph unicode="&#x98;" glyph-name="colon2" data-tags="colon" horiz-adv-x="296" d="M16.384 151.040l33.792 160.768h181.248l-33.792-160.768h-181.248zM95.232 522.752l33.792 160.768h181.248l-33.792-160.768h-181.248z" />
<glyph unicode="&#x99;" glyph-name="semicolon2" data-tags="semicolon" horiz-adv-x="296" d="M95.232 522.752l33.792 160.768h181.248l-33.792-160.768h-181.248zM199.68 161.28q-12.288-59.392-39.424-96.256t-61.44-58.368-71.68-30.72-70.144-12.288l15.36 79.872q40.96 8.192 69.632 34.816t38.912 72.704h-64.512l33.792 160.768h181.248z" />
<glyph unicode="&#x9a;" glyph-name="less2" data-tags="less" d="M123.904 542.208l495.616 215.040-31.744-154.624-314.368-119.808-1.024-7.168 263.168-119.808-32.768-148.48-404.48 215.040z" />
<glyph unicode="&#x9b;" glyph-name="equal2" data-tags="equal" d="M570.368 522.752h-450.56l26.624 125.952h450.56zM525.312 312.832h-450.56l26.624 125.952h450.56z" />
<glyph unicode="&#x9c;" glyph-name="greater2" data-tags="greater" d="M548.864 422.4l-496.64-215.040 32.768 154.624 314.368 119.808 1.024 7.168-263.168 119.808 31.744 148.48 405.504-215.040z" />
<glyph unicode="&#x9d;" glyph-name="question2" data-tags="question" horiz-adv-x="561" d="M120.832 698.88q11.264 41.984 36.864 79.36t61.952 65.024 81.92 44.032 97.792 16.384q49.152 0 88.576-11.264t66.56-31.232 41.472-47.616 14.336-59.392q0-35.84-9.728-64.512t-30.72-57.344-54.272-60.928-79.36-75.264q-26.624-23.552-36.352-51.2t-16.896-58.368h-160.768q7.168 33.792 13.824 58.88t17.408 46.592 27.648 42.496 44.544 47.616q35.84 34.816 57.344 58.368t33.28 40.96 15.872 30.72 4.096 27.648q0 21.504-14.848 32.768t-37.376 11.264q-26.624 0-49.664-20.48t-40.448-64.512h-173.056zM163.84 151.040l33.792 160.768h181.248l-33.792-160.768h-181.248z" />
<glyph unicode="&#x9e;" glyph-name="at2" data-tags="at" horiz-adv-x="937" d="M695.296 248.32q-50.176 0-78.336 27.136t-30.208 61.952q-7.168-12.288-20.992-26.624t-32.768-25.6-43.008-18.944-50.688-7.68q-38.912 0-67.584 13.312t-47.104 36.864-27.136 54.784-8.704 68.096q0 66.56 20.48 119.296t54.272 89.6 76.288 56.832 85.504 19.968q28.672 0 51.2-12.288t28.672-31.744l21.504 36.864h104.448l-54.272-270.336q-5.12-25.6-7.168-40.448t-2.048-19.968q0-22.528 9.216-29.184t23.552-6.656q21.504 0 39.936 17.408t31.744 49.152 20.48 76.288 7.168 98.816q0 105.472-59.904 160.256t-189.952 54.784q-52.224 0-110.592-17.408t-108.032-59.392-81.92-111.616-32.256-173.056q0-76.8 23.552-129.536t63.488-84.992 92.16-46.592 109.568-14.336q54.272 0 92.672 8.704t71.168 18.944l20.48-100.352q-32.768-11.264-81.92-22.016t-117.76-10.752q-79.872 0-154.112 23.552t-132.096 70.656-92.16 118.784-34.304 166.912q0 86.016 20.992 154.624t56.832 120.32 83.456 88.064 100.864 59.392 109.056 33.28 108.032 10.24q82.944 0 153.088-20.992t121.344-61.44 79.872-100.352 28.672-136.704q0-78.848-20.48-141.312t-54.784-105.472-78.336-66.048-91.136-23.040zM472.064 354.816q23.552 0 45.056 22.528t32.768 74.752l11.264 54.272q5.12 26.624 6.656 38.4t1.536 20.992q0 20.48-8.192 38.912t-33.792 18.432q-18.432 0-37.376-12.288t-33.792-37.376-24.064-62.976-9.216-90.112q0-25.6 9.728-45.568t39.424-19.968z" />
<glyph unicode="&#x9f;" glyph-name="A2" data-tags="A" horiz-adv-x="718" d="M500.736 151.040l-16.384 168.96h-262.144l-88.064-168.96h-175.104l418.816 737.28h191.488l107.52-737.28h-176.128zM280.576 432.64h193.536l-29.696 314.368z" />
<glyph unicode="&#xa0;" glyph-name="B2" data-tags="B" horiz-adv-x="663" d="M412.672 888.32q138.24 0 203.776-40.96t65.536-117.76q0-40.96-14.848-72.704t-40.448-55.296-58.368-38.912-68.608-21.504q61.44-13.312 100.864-53.76t39.424-99.84q0-55.296-18.944-98.816t-59.904-74.24-105.472-47.104-155.648-16.384h-279.552l156.672 737.28h235.52zM262.144 482.816l-46.080-219.136h105.472q70.656 0 107.008 33.28t36.352 97.792q0 41.984-27.136 65.024t-76.288 23.040h-99.328zM324.608 775.68l-39.936-186.368h94.208q59.392 0 93.184 30.208t33.792 80.384q0 35.84-27.648 55.808t-72.704 19.968h-80.896z" />
<glyph unicode="&#xa1;" glyph-name="exclamdown" data-tags="exclamdown" horiz-adv-x="256" d="M144.384 478.72v-512h-39.936v512h39.936zM155.648 704v-65.536h-55.296v65.536h55.296z" />
<glyph unicode="&#xa2;" glyph-name="cent" data-tags="cent" d="M293.888 136.704q-45.056 4.096-82.944 23.552t-66.048 54.272-44.032 84.48-15.872 114.176q0 67.584 16.384 118.784t45.056 86.528 66.56 55.296 80.896 24.064v129.024h35.84v-129.024q78.848-3.072 131.072-46.080t65.536-111.616h-38.912q-10.24 58.368-55.808 93.184t-113.152 34.816q-40.96 0-76.8-15.872t-62.464-47.616-41.984-79.872-15.36-113.664q0-62.464 15.872-108.544t42.496-75.776 61.952-44.544 75.264-14.848q33.792 0 63.488 10.24t52.736 27.648 37.888 41.984 19.968 54.272h37.888q-13.312-70.656-66.56-115.712t-133.12-49.152v-123.904h-35.84v123.904z" />
<glyph unicode="&#xa3;" glyph-name="sterling" data-tags="sterling" d="M392.192 494.080h-228.352v-203.776q0-26.624-11.776-55.808t-41.472-49.664h401.408v-33.792h-455.68v33.792q35.84 14.336 53.76 43.008t17.92 67.584v198.656h-46.080v32.768h46.080v161.792q0 93.184 51.2 143.872t136.192 50.688q35.84 0 67.072-10.752t55.808-29.696 40.96-44.544 23.552-55.296h-35.84q-11.264 46.080-52.224 77.312t-99.328 31.232q-73.728 0-112.64-42.496t-38.912-120.32v-161.792h228.352v-32.768z" />
<glyph unicode="&#xa4;" glyph-name="currency" data-tags="currency" d="M78.848 499.2q0 47.104 13.312 83.968t36.864 65.536l-66.56 66.56 24.576 24.576 65.536-66.56q33.792 30.72 74.752 45.568t79.872 14.848 80.384-15.36 74.24-46.080l67.584 67.584 24.576-24.576-68.608-68.608q22.528-27.648 36.352-64.512t13.824-82.944q0-48.128-13.824-85.504t-37.376-65.024l69.632-69.632-24.576-24.576-69.632 68.608q-32.768-29.696-73.216-44.032t-79.36-14.336-78.848 13.824-73.728 43.52l-67.584-67.584-24.576 24.576 68.608 68.608q-23.552 27.648-37.888 65.024t-14.336 86.528zM115.712 499.2q0-45.056 15.36-81.92t41.472-63.488 60.928-41.472 74.752-14.848q37.888 0 72.704 14.848t60.928 41.472 41.472 63.488 15.36 81.92-15.36 81.92-41.472 63.488-60.928 41.472-72.704 14.848q-38.912 0-74.24-14.848t-61.44-41.472-41.472-63.488-15.36-81.92z" />
<glyph unicode="&#xa5;" glyph-name="yen" data-tags="yen" d="M482.304 304.64h-156.672v-153.6h-37.888v153.6h-154.624v32.768h154.624v104.448h-154.624v32.768h134.144l-253.952 393.216h40.96l251.904-392.192 256 392.192h38.912l-253.952-393.216h135.168v-32.768h-156.672v-104.448h156.672v-32.768z" />
<glyph unicode="&#xa6;" glyph-name="brokenbar" data-tags="brokenbar" horiz-adv-x="348" d="M191.488 401.92v-394.24h-34.816v394.24h34.816zM191.488 954.88v-394.24h-34.816v394.24h34.816z" />
<glyph unicode="&#xa7;" glyph-name="section" data-tags="section" d="M106.496 477.696q0 53.248 36.352 90.112t103.936 52.224q-51.2 23.552-76.288 53.248t-25.088 72.704q0 61.44 45.568 99.328t125.44 37.888q33.792 0 62.464-8.704t51.2-23.040 37.376-33.792 20.992-40.96h-39.936q-11.264 32.768-48.128 54.272t-84.992 21.504q-64.512 0-99.328-30.72t-34.816-72.704q0-49.152 37.376-75.776t103.936-47.104q53.248-17.408 88.576-34.816t56.832-36.864 30.72-41.472 9.216-48.64q0-54.272-36.864-90.624t-103.424-52.736q51.2-23.552 76.8-53.248t25.6-71.68q0-31.744-12.8-57.344t-35.84-43.008-54.272-27.136-68.096-9.728q-33.792 0-63.488 9.216t-53.248 24.064-39.424 34.304-23.040 39.936h41.984q10.24-29.696 48.128-53.248t90.112-23.552q61.44 0 97.792 30.208t36.352 73.216q0 49.152-37.376 75.264t-103.936 47.616q-53.248 17.408-89.088 34.816t-57.344 36.864-30.72 41.472-9.216 48.64zM330.752 336.384q27.648 6.144 52.736 15.872t44.544 24.576 31.232 35.84 11.776 49.664q0 25.6-9.216 44.544t-29.184 34.304-52.736 29.696-79.872 29.696l-16.384 5.12q-30.72-6.144-56.32-15.872t-44.032-24.576-29.184-35.84-10.752-49.664q0-25.6 9.216-44.544t29.696-34.304 53.248-29.696 79.872-29.696z" />
<glyph unicode="&#xa8;" glyph-name="dieresis" data-tags="dieresis" horiz-adv-x="379" d="M61.44 829.952v58.368h47.104v-58.368h-47.104zM262.144 829.952v58.368h47.104v-58.368h-47.104z" />
<glyph unicode="&#xa9;" glyph-name="copyright" data-tags="copyright" horiz-adv-x="863" d="M93.184 519.68q0-93.184 29.184-160.256t76.8-110.080 108.544-63.488 123.392-20.48 123.392 20.48 108.544 63.488 76.8 110.080 29.184 160.256-29.184 160.256-76.8 110.080-108.544 63.488-123.392 20.48-123.392-20.48-108.544-63.488-76.8-110.080-29.184-160.256zM801.792 519.68q0-100.352-32.256-173.056t-84.992-119.808-119.296-69.12-134.144-22.016-134.144 22.016-119.296 69.12-84.992 119.808-32.256 173.056 32.256 173.056 84.992 119.296 119.296 69.12 134.144 22.528 134.144-22.528 119.296-69.12 84.992-119.296 32.256-173.056zM596.992 437.76q-11.264-58.368-55.808-93.696t-111.104-35.328q-37.888 0-70.656 13.824t-56.832 40.448-37.888 66.048-13.824 91.648q0 55.296 14.848 96.256t39.424 68.096 57.344 40.448 68.608 13.312q65.536 0 109.056-33.792t54.784-90.112h-36.864q-8.192 43.008-41.984 68.096t-83.968 25.088q-29.696 0-56.32-11.776t-46.592-34.816-31.232-58.88-11.264-82.944q0-46.080 11.776-79.872t31.744-55.808 46.080-32.768 54.784-10.752q51.2 0 86.528 26.624t43.52 70.656h35.84z" />
<glyph unicode="&#xaa;" glyph-name="ordfeminine" data-tags="ordfeminine" horiz-adv-x="451" d="M90.112 804.352q8.192 50.176 49.152 74.24t92.16 24.064q64.512 0 101.376-34.304t36.864-95.744v-307.2h-26.624l-6.144 68.608q-17.408-30.72-49.152-53.76t-82.944-23.040q-55.296 0-92.16 32.768t-36.864 90.112q0 29.696 11.264 51.712t30.72 37.376 46.592 25.088 57.856 15.872l113.664 20.48v44.032q0 47.104-26.624 73.728t-80.896 26.624q-43.008 0-70.656-18.944t-31.744-51.712h-35.84zM335.872 700.928l-101.376-18.432q-25.6-5.12-48.128-11.776t-39.424-18.432-26.624-28.672-9.728-41.472q0-46.080 27.648-71.168t75.776-25.088q25.6 0 47.616 10.752t38.4 28.672 26.112 39.936 9.728 45.568v90.112zM379.904 151.040h-309.248v34.816h309.248v-34.816z" />
<glyph unicode="&#xab;" glyph-name="guillemotleft" data-tags="guillemotleft" horiz-adv-x="470" d="M66.56 473.6l121.856 209.92h30.72l-108.544-211.968 98.304-228.352h-30.72zM250.88 473.6l121.856 209.92h30.72l-108.544-211.968 98.304-228.352h-30.72z" />
<glyph unicode="&#xac;" glyph-name="logicalnot" data-tags="logicalnot" d="M512 498.176v-222.208h-36.864v187.392h-372.736v34.816h409.6z" />
<glyph unicode="&#xad;" glyph-name="uni00AD" data-tags="uni00AD" horiz-adv-x="553" d="M450.56 463.36h-348.16v34.816h348.16v-34.816z" />
<glyph unicode="&#xae;" glyph-name="registered" data-tags="registered" horiz-adv-x="629" d="M76.8 655.872q0 62.464 21.504 108.544t55.808 75.776 76.8 44.032 83.456 14.336 83.456-14.336 76.8-44.032 55.808-75.776 21.504-108.544q0-63.488-21.504-109.056t-55.808-75.264-76.8-44.032-83.456-14.336-83.456 14.336-76.8 44.032-55.808 75.264-21.504 109.056zM105.472 655.872q0-53.248 17.92-93.696t47.104-68.096 66.56-41.472 77.312-13.824 77.312 13.824 66.56 41.472 47.104 68.096 17.92 93.696-17.92 93.696-47.104 68.096-66.56 41.472-77.312 13.824-77.312-13.824-66.56-41.472-47.104-68.096-17.92-93.696zM388.096 525.824l-64.512 106.496h-59.392v-106.496h-26.624v264.192h78.848q38.912 0 66.048-17.92t27.136-57.856q0-24.576-12.8-45.568t-45.568-31.232l68.608-111.616h-31.744zM264.192 767.488v-112.64h56.32q30.72 0 46.080 18.944t15.36 40.448q0 20.48-14.336 36.864t-50.176 16.384h-53.248z" />
<glyph unicode="&#xaf;" glyph-name="macron" data-tags="macron" horiz-adv-x="297" d="M30.72 827.904v32.768h235.52v-32.768h-235.52z" />
<glyph unicode="&#xb0;" glyph-name="degree" data-tags="degree" horiz-adv-x="553" d="M88.064 716.288q0-62.464 34.816-96.768t87.040-34.304 87.040 34.304 34.816 96.768-34.816 96.768-87.040 34.304-87.040-34.304-34.816-96.768zM368.64 716.288q0-39.936-13.312-70.144t-35.328-50.688-50.688-30.72-59.392-10.24-59.392 10.24-50.688 30.72-35.328 50.688-13.312 70.144 13.312 70.144 35.328 50.688 50.688 30.72 59.392 10.24 59.392-10.24 50.688-30.72 35.328-50.688 13.312-70.144z" />
<glyph unicode="&#xb1;" glyph-name="plusminus" data-tags="plusminus" d="M325.632 685.568v-187.392h186.368v-34.816h-186.368v-177.152h-36.864v177.152h-186.368v34.816h186.368v187.392h36.864zM512 151.040h-409.6v34.816h409.6v-34.816z" />
<glyph unicode="&#xb2;" glyph-name="twosuperior" data-tags="twosuperior" horiz-adv-x="413" d="M48.128 794.112q8.192 55.296 50.176 87.552t105.472 32.256q64.512 0 104.448-32.768t39.936-90.112q0-22.528-6.144-41.984t-18.432-38.912-31.232-40.448-43.52-46.592l-147.456-137.216h244.736v-33.792h-292.864v33.792l174.080 167.936q38.912 39.936 60.416 70.144t21.504 67.072q0 41.984-26.112 66.048t-79.36 24.064q-51.2 0-81.408-24.064t-35.328-62.976h-38.912z" />
<glyph unicode="&#xb3;" glyph-name="threesuperior" data-tags="threesuperior" horiz-adv-x="433" d="M210.944 913.92q64.512 0 104.448-30.208t39.936-85.504q0-40.96-24.064-68.096t-66.048-38.4q43.008-5.12 73.216-35.84t30.208-80.896q0-60.416-41.984-96.256t-118.784-35.84q-67.584 0-109.568 29.696t-50.176 82.944h38.912q17.408-80.896 120.832-80.896 58.368 0 90.112 26.624t31.744 73.728q0 50.176-30.72 74.752t-79.872 24.576h-49.152v32.768h48.128q45.056 0 71.68 24.064t26.624 64q0 43.008-28.16 64.512t-79.36 21.504-79.872-20.48-37.888-58.368h-36.864q9.216 52.224 49.152 81.92t107.52 29.696z" />
<glyph unicode="&#xb4;" glyph-name="acute" data-tags="acute" horiz-adv-x="221" d="M136.192 903.68h54.272l-124.928-140.288h-34.816z" />
<glyph unicode="&#xb5;" glyph-name="mu" data-tags="mu" horiz-adv-x="560" d="M118.784 683.52v-364.544q0-76.8 40.96-114.688t110.592-37.888q35.84 0 67.072 14.336t54.272 39.424 36.352 59.904 13.312 75.776v327.68h36.864v-532.48h-30.72l-5.12 95.232q-14.336-28.672-34.304-49.664t-44.032-34.304-50.176-19.968-51.712-6.656q-45.056 0-82.432 14.848t-60.928 45.568v-229.376h-36.864v716.8h36.864z" />
<glyph unicode="&#xb6;" glyph-name="paragraph" data-tags="paragraph" horiz-adv-x="563" d="M226.304-33.28v588.8q-19.456 0-46.080 8.192t-50.688 27.648-40.96 51.2-16.896 78.848 16.896 78.848 40.96 51.2 50.688 28.16 46.080 8.704h34.816v-921.6h-34.816zM450.56 888.32v-921.6h-34.816v921.6h34.816z" />
<glyph unicode="&#xb7;" glyph-name="periodcentered" data-tags="periodcentered" horiz-adv-x="285" d="M114.688 446.976v65.536h55.296v-65.536h-55.296z" />
<glyph unicode="&#xb8;" glyph-name="cedilla" data-tags="cedilla" horiz-adv-x="288" d="M257.024 4.608q0-20.48-8.192-37.888t-23.040-30.72-34.816-20.992-44.544-7.68q-46.080 0-77.824 20.992t-37.888 62.976h33.792q3.072-26.624 26.624-40.448t56.32-13.824q34.816 0 55.808 18.944t20.992 47.616q0 30.72-26.624 49.664t-91.136 18.944l7.168 94.208h28.672v-68.608q57.344-5.12 86.016-30.72t28.672-62.464z" />
<glyph unicode="&#xb9;" glyph-name="onesuperior" data-tags="onesuperior" horiz-adv-x="231" d="M166.912 452.096h-38.912v412.672l-107.52-58.368v37.888l109.568 59.392h36.864v-451.584z" />
<glyph unicode="&#xba;" glyph-name="ordmasculine" data-tags="ordmasculine" horiz-adv-x="393" d="M70.656 678.4q0-54.272 10.752-90.624t28.16-59.392 40.448-32.768 47.616-9.728 47.104 9.728 39.936 32.768 27.648 59.392 10.24 90.624-10.24 91.648-27.648 60.416-39.936 33.28-47.104 10.24-47.616-10.24-40.448-33.792-28.16-60.928-10.752-90.624zM35.84 678.4q0 112.64 44.032 168.448t117.76 55.808 116.736-54.784 43.008-169.472q0-113.664-44.032-167.424t-114.688-53.76q-71.68 0-117.248 54.272t-45.568 166.912zM342.016 151.040h-301.056v34.816h301.056v-34.816z" />
<glyph unicode="&#xbb;" glyph-name="guillemotright" data-tags="guillemotright" horiz-adv-x="470" d="M291.84 243.2h-30.72l98.304 228.352-108.544 211.968h30.72l121.856-209.92zM107.52 243.2h-30.72l98.304 228.352-108.544 211.968h30.72l121.856-209.92z" />
<glyph unicode="&#xbc;" glyph-name="onequarter" data-tags="onequarter" horiz-adv-x="851" d="M164.864 58.88l418.816 901.12h36.864l-419.84-901.12h-35.84zM197.632 452.096h-38.912v412.672l-107.52-58.368v37.888l109.568 59.392h36.864v-451.584zM728.064 268.8h71.68v-31.744h-71.68v-84.992h-34.816v84.992h-220.16v36.864l215.040 329.728h39.936v-334.848zM505.856 268.8h187.392v281.6z" />
<glyph unicode="&#xbd;" glyph-name="onehalf" data-tags="onehalf" horiz-adv-x="886" d="M164.864 58.88l418.816 901.12h36.864l-419.84-901.12h-35.84zM197.632 452.096h-38.912v412.672l-107.52-58.368v37.888l109.568 59.392h36.864v-451.584zM534.528 494.080q8.192 55.296 50.176 87.552t105.472 32.256q64.512 0 104.448-32.768t39.936-90.112q0-22.528-6.144-41.984t-18.432-38.912-31.232-40.448-43.52-46.592l-147.456-137.216h244.736v-33.792h-292.864v33.792l174.080 167.936q38.912 39.936 60.416 70.144t21.504 67.072q0 41.984-26.112 66.048t-79.36 24.064q-51.2 0-81.408-24.064t-35.328-62.976h-38.912z" />
<glyph unicode="&#xbe;" glyph-name="threequarters" data-tags="threequarters" horiz-adv-x="956" d="M270.336 58.88l418.816 901.12h36.864l-419.84-901.12h-35.84zM214.016 913.92q64.512 0 104.448-30.208t39.936-85.504q0-40.96-24.064-68.096t-66.048-38.4q43.008-5.12 73.216-35.84t30.208-80.896q0-60.416-41.984-96.256t-118.784-35.84q-67.584 0-109.568 29.696t-50.176 82.944h38.912q17.408-80.896 120.832-80.896 58.368 0 90.112 26.624t31.744 73.728q0 50.176-30.72 74.752t-79.872 24.576h-49.152v32.768h48.128q45.056 0 71.68 24.064t26.624 64q0 43.008-28.16 64.512t-79.36 21.504-79.872-20.48-37.888-58.368h-36.864q9.216 52.224 49.152 81.92t107.52 29.696zM833.536 268.8h71.68v-31.744h-71.68v-84.992h-34.816v84.992h-220.16v36.864l215.040 329.728h39.936v-334.848zM611.328 268.8h187.392v281.6z" />
<glyph unicode="&#xbf;" glyph-name="questiondown" data-tags="questiondown" horiz-adv-x="505" d="M446.464 117.248q-6.144-34.816-23.040-65.024t-43.52-52.736-62.464-35.328-79.872-12.8q-43.008 0-79.36 12.288t-62.464 33.792-40.448 50.688-14.336 61.952q0 24.576 5.12 44.032t19.456 41.984 39.424 50.688 64 70.144q22.528 23.552 35.328 40.96t18.944 36.864 7.68 43.52 1.536 60.928h36.864q0-41.984-2.048-69.632t-9.728-49.664-23.040-41.984-40.96-46.592q-30.72-30.72-52.224-53.76t-35.84-43.008-20.992-39.424-6.656-44.032q0-25.6 11.264-48.64t32.256-40.96 50.688-28.16 66.56-10.24q32.768 0 60.928 10.24t50.176 27.648 36.864 41.984 20.992 54.272h38.912zM278.528 704v-65.536h-55.296v65.536h55.296z" />
<glyph unicode="&#xc0;" glyph-name="Agrave" data-tags="Agrave" horiz-adv-x="657" d="M605.184 151.040l-86.016 218.112h-381.952l-87.040-218.112h-39.936l292.864 737.28h52.224l291.84-737.28h-41.984zM149.504 401.92h357.376l-177.152 451.584zM372.736 937.472h-34.816l-124.928 140.288h54.272z" />
<glyph unicode="&#xc1;" glyph-name="Aacute" data-tags="Aacute" horiz-adv-x="657" d="M605.184 151.040l-86.016 218.112h-381.952l-87.040-218.112h-39.936l292.864 737.28h52.224l291.84-737.28h-41.984zM149.504 401.92h357.376l-177.152 451.584zM382.976 1077.76h54.272l-124.928-140.288h-34.816z" />
<glyph unicode="&#xc2;" glyph-name="Acircumflex" data-tags="Acircumflex" horiz-adv-x="657" d="M605.184 151.040l-86.016 218.112h-381.952l-87.040-218.112h-39.936l292.864 737.28h52.224l291.84-737.28h-41.984zM149.504 401.92h357.376l-177.152 451.584zM457.728 937.472h-34.816l-93.184 115.712-92.16-115.712h-35.84l106.496 140.288h44.032z" />
<glyph unicode="&#xc3;" glyph-name="Atilde" data-tags="Atilde" horiz-adv-x="657" d="M605.184 151.040l-86.016 218.112h-381.952l-87.040-218.112h-39.936l292.864 737.28h52.224l291.84-737.28h-41.984zM149.504 401.92h357.376l-177.152 451.584zM384 973.312q-20.48 0-33.792 5.12t-25.088 11.264-23.040 11.264-27.648 5.12q-17.408 0-34.816-7.68t-39.936-25.088v36.864q20.48 15.36 37.376 22.528t38.4 7.168q20.48 0 33.792-5.12t25.088-11.264 23.040-11.264 27.648-5.12q17.408 0 34.816 7.68t39.936 25.088v-36.864q-20.48-15.36-37.376-22.528t-38.4-7.168z" />
<glyph unicode="&#xc4;" glyph-name="Adieresis" data-tags="Adieresis" horiz-adv-x="657" d="M605.184 151.040l-86.016 218.112h-381.952l-87.040-218.112h-39.936l292.864 737.28h52.224l291.84-737.28h-41.984zM149.504 401.92h357.376l-177.152 451.584zM205.824 1004.032v58.368h47.104v-58.368h-47.104zM406.528 1004.032v58.368h47.104v-58.368h-47.104z" />
<glyph unicode="&#xc5;" glyph-name="Aring" data-tags="Aring" horiz-adv-x="657" d="M605.184 151.040l-86.016 218.112h-381.952l-87.040-218.112h-39.936l284.672 716.8q-38.912 9.216-61.952 39.936t-23.040 73.728q0 52.224 32.768 84.992t84.992 32.768 84.992-32.768 32.768-84.992q0-43.008-22.528-72.704t-60.416-40.96l284.672-716.8h-41.984zM149.504 401.92h357.376l-177.152 451.584zM242.688 981.504q0-44.032 24.576-67.072t60.416-23.040 60.416 23.040 24.576 67.072-24.576 67.072-60.416 23.040-60.416-23.040-24.576-67.072z" />
<glyph unicode="&#xc6;" glyph-name="AE" data-tags="AE" horiz-adv-x="939" d="M847.872 509.44h-337.92v-324.608h367.616v-33.792h-405.504v218.112h-300.032l-132.096-218.112h-39.936l446.464 737.28h431.104v-33.792h-367.616v-311.296h337.92v-33.792zM472.064 401.92v460.8l-279.552-460.8h279.552z" />
<glyph unicode="&#xc7;" glyph-name="Ccedilla" data-tags="Ccedilla" horiz-adv-x="732" d="M515.072 4.608q0-20.48-8.192-37.888t-23.040-30.72-34.816-20.992-44.544-7.68q-46.080 0-77.824 20.992t-37.888 62.976h33.792q3.072-26.624 26.624-40.448t56.32-13.824q34.816 0 55.808 18.944t20.992 47.616q0 30.72-26.624 49.664t-91.136 18.944l5.12 64.512q-69.632 3.072-127.488 31.232t-99.328 76.8-64 116.224-22.528 150.528q0 95.232 25.6 168.448t69.632 122.88 103.424 75.264 128 25.6q57.344 0 107.52-14.848t89.088-44.032 65.536-72.192 35.84-100.352h-36.864q-20.48 99.328-90.624 148.48t-170.496 49.152q-60.416 0-113.152-23.552t-91.648-69.632-60.928-112.64-22.016-152.576q0-78.848 22.016-142.336t61.44-108.032 92.672-68.096 115.712-23.552q51.2 0 94.72 14.848t76.8 43.008 54.784 69.12 28.672 93.184h37.888q-7.168-52.224-29.184-97.792t-58.368-79.36-84.48-54.272-107.52-22.528v-37.888q57.344-5.12 86.016-30.72t28.672-62.464z" />
<glyph unicode="&#xc8;" glyph-name="Egrave" data-tags="Egrave" horiz-adv-x="574" d="M483.328 509.44h-358.4v-324.608h388.096v-33.792h-425.984v737.28h425.984v-33.792h-388.096v-311.296h358.4v-33.792zM364.544 937.472h-34.816l-124.928 140.288h54.272z" />
<glyph unicode="&#xc9;" glyph-name="Eacute" data-tags="Eacute" horiz-adv-x="574" d="M483.328 509.44h-358.4v-324.608h388.096v-33.792h-425.984v737.28h425.984v-33.792h-388.096v-311.296h358.4v-33.792zM340.992 1077.76h54.272l-124.928-140.288h-34.816z" />
<glyph unicode="&#xca;" glyph-name="Ecircumflex" data-tags="Ecircumflex" horiz-adv-x="574" d="M483.328 509.44h-358.4v-324.608h388.096v-33.792h-425.984v737.28h425.984v-33.792h-388.096v-311.296h358.4v-33.792zM431.104 937.472h-34.816l-93.184 115.712-92.16-115.712h-35.84l106.496 140.288h44.032z" />
<glyph unicode="&#xcb;" glyph-name="Edieresis" data-tags="Edieresis" horiz-adv-x="574" d="M483.328 509.44h-358.4v-324.608h388.096v-33.792h-425.984v737.28h425.984v-33.792h-388.096v-311.296h358.4v-33.792zM167.936 1004.032v58.368h47.104v-58.368h-47.104zM368.64 1004.032v58.368h47.104v-58.368h-47.104z" />
<glyph unicode="&#xcc;" glyph-name="Igrave" data-tags="Igrave" horiz-adv-x="212" d="M124.928 888.32v-737.28h-37.888v737.28h37.888zM153.6 937.472h-34.816l-124.928 140.288h54.272z" />
<glyph unicode="&#xcd;" glyph-name="Iacute" data-tags="Iacute" horiz-adv-x="212" d="M124.928 888.32v-737.28h-37.888v737.28h37.888zM164.864 1077.76h54.272l-124.928-140.288h-34.816z" />
<glyph unicode="&#xce;" glyph-name="Icircumflex" data-tags="Icircumflex" horiz-adv-x="212" d="M124.928 888.32v-737.28h-37.888v737.28h37.888zM234.496 937.472h-34.816l-93.184 115.712-92.16-115.712h-35.84l106.496 140.288h44.032z" />
<glyph unicode="&#xcf;" glyph-name="Idieresis" data-tags="Idieresis" horiz-adv-x="212" d="M124.928 888.32v-737.28h-37.888v737.28h37.888zM-17.408 1004.032v58.368h47.104v-58.368h-47.104zM183.296 1004.032v58.368h47.104v-58.368h-47.104z" />
<glyph unicode="&#xd0;" glyph-name="Eth" data-tags="Eth" horiz-adv-x="690" d="M87.040 521.728h-61.44v33.792h61.44v332.8h194.56q76.8 0 141.824-24.576t111.616-71.68 72.704-115.712 26.112-156.672q0-87.040-27.136-155.648t-74.24-115.712-112.128-72.192-139.776-25.088h-193.536v370.688zM368.64 521.728h-243.712v-336.896h160.768q65.536 0 122.368 22.016t98.304 64 65.024 104.448 23.552 144.384-23.552 144.384-65.536 104.96-98.816 64-123.392 21.504h-158.72v-299.008h243.712v-33.792z" />
<glyph unicode="&#xd1;" glyph-name="Ntilde" data-tags="Ntilde" horiz-adv-x="726" d="M638.976 888.32v-737.28h-39.936l-475.136 684.032v-684.032h-36.864v737.28h41.984l475.136-678.912v678.912h34.816zM429.056 973.312q-20.48 0-33.792 5.12t-25.088 11.264-23.040 11.264-27.648 5.12q-17.408 0-34.816-7.68t-39.936-25.088v36.864q20.48 15.36 37.376 22.528t38.4 7.168q20.48 0 33.792-5.12t25.088-11.264 23.040-11.264 27.648-5.12q17.408 0 34.816 7.68t39.936 25.088v-36.864q-20.48-15.36-37.376-22.528t-38.4-7.168z" />
<glyph unicode="&#xd2;" glyph-name="Ograve" data-tags="Ograve" horiz-adv-x="762" d="M380.928 169.472q56.32 0 108.032 20.48t91.136 63.488 62.976 109.056 23.552 156.16q0 86.016-22.016 151.552t-60.416 110.080-90.624 67.072-112.64 22.528-112.64-22.528-90.624-67.072-60.416-110.080-22.016-151.552q0-88.064 23.552-153.6t62.976-109.056 91.136-65.024 108.032-21.504zM380.928 135.68q-67.584 0-126.976 25.088t-102.912 74.24-69.12 120.32-25.6 163.328q0 93.184 25.6 164.864t69.632 120.832 102.912 74.24 126.464 25.088 126.464-25.088 102.912-74.24 69.632-120.832 25.6-164.864q0-94.208-25.6-165.888t-69.12-119.808-102.912-72.704-126.976-24.576zM415.744 937.472h-34.816l-124.928 140.288h54.272z" />
<glyph unicode="&#xd3;" glyph-name="Oacute" data-tags="Oacute" horiz-adv-x="762" d="M380.928 169.472q56.32 0 108.032 20.48t91.136 63.488 62.976 109.056 23.552 156.16q0 86.016-22.016 151.552t-60.416 110.080-90.624 67.072-112.64 22.528-112.64-22.528-90.624-67.072-60.416-110.080-22.016-151.552q0-88.064 23.552-153.6t62.976-109.056 91.136-65.024 108.032-21.504zM380.928 135.68q-67.584 0-126.976 25.088t-102.912 74.24-69.12 120.32-25.6 163.328q0 93.184 25.6 164.864t69.632 120.832 102.912 74.24 126.464 25.088 126.464-25.088 102.912-74.24 69.632-120.832 25.6-164.864q0-94.208-25.6-165.888t-69.12-119.808-102.912-72.704-126.976-24.576zM440.32 1077.76h54.272l-124.928-140.288h-34.816z" />
<glyph unicode="&#xd4;" glyph-name="Ocircumflex" data-tags="Ocircumflex" horiz-adv-x="762" d="M380.928 169.472q56.32 0 108.032 20.48t91.136 63.488 62.976 109.056 23.552 156.16q0 86.016-22.016 151.552t-60.416 110.080-90.624 67.072-112.64 22.528-112.64-22.528-90.624-67.072-60.416-110.080-22.016-151.552q0-88.064 23.552-153.6t62.976-109.056 91.136-65.024 108.032-21.504zM380.928 135.68q-67.584 0-126.976 25.088t-102.912 74.24-69.12 120.32-25.6 163.328q0 93.184 25.6 164.864t69.632 120.832 102.912 74.24 126.464 25.088 126.464-25.088 102.912-74.24 69.632-120.832 25.6-164.864q0-94.208-25.6-165.888t-69.12-119.808-102.912-72.704-126.976-24.576zM508.928 937.472h-34.816l-93.184 115.712-92.16-115.712h-35.84l106.496 140.288h44.032z" />
<glyph unicode="&#xd5;" glyph-name="Otilde" data-tags="Otilde" horiz-adv-x="762" d="M380.928 169.472q56.32 0 108.032 20.48t91.136 63.488 62.976 109.056 23.552 156.16q0 86.016-22.016 151.552t-60.416 110.080-90.624 67.072-112.64 22.528-112.64-22.528-90.624-67.072-60.416-110.080-22.016-151.552q0-88.064 23.552-153.6t62.976-109.056 91.136-65.024 108.032-21.504zM380.928 135.68q-67.584 0-126.976 25.088t-102.912 74.24-69.12 120.32-25.6 163.328q0 93.184 25.6 164.864t69.632 120.832 102.912 74.24 126.464 25.088 126.464-25.088 102.912-74.24 69.632-120.832 25.6-164.864q0-94.208-25.6-165.888t-69.12-119.808-102.912-72.704-126.976-24.576zM435.2 973.312q-20.48 0-33.792 5.12t-25.088 11.264-23.040 11.264-27.648 5.12q-17.408 0-34.816-7.68t-39.936-25.088v36.864q20.48 15.36 37.376 22.528t38.4 7.168q20.48 0 33.792-5.12t25.088-11.264 23.040-11.264 27.648-5.12q17.408 0 34.816 7.68t39.936 25.088v-36.864q-20.48-15.36-37.376-22.528t-38.4-7.168z" />
<glyph unicode="&#xd6;" glyph-name="Odieresis" data-tags="Odieresis" horiz-adv-x="762" d="M380.928 169.472q56.32 0 108.032 20.48t91.136 63.488 62.976 109.056 23.552 156.16q0 86.016-22.016 151.552t-60.416 110.080-90.624 67.072-112.64 22.528-112.64-22.528-90.624-67.072-60.416-110.080-22.016-151.552q0-88.064 23.552-153.6t62.976-109.056 91.136-65.024 108.032-21.504zM380.928 135.68q-67.584 0-126.976 25.088t-102.912 74.24-69.12 120.32-25.6 163.328q0 93.184 25.6 164.864t69.632 120.832 102.912 74.24 126.464 25.088 126.464-25.088 102.912-74.24 69.632-120.832 25.6-164.864q0-94.208-25.6-165.888t-69.12-119.808-102.912-72.704-126.976-24.576zM256 1004.032v58.368h47.104v-58.368h-47.104zM456.704 1004.032v58.368h47.104v-58.368h-47.104z" />
<glyph unicode="&#xd7;" glyph-name="multiply" data-tags="multiply" d="M175.104 637.44l132.096-132.096 132.096 132.096 24.576-24.576-132.096-132.096 132.096-132.096-24.576-24.576-132.096 132.096-132.096-132.096-24.576 24.576 132.096 132.096-132.096 132.096z" />
<glyph unicode="&#xd8;" glyph-name="Oslash" data-tags="Oslash" horiz-adv-x="762" d="M380.928 135.68q-58.368 0-114.688 19.456l-43.008-116.736h-35.84l48.128 131.072q-79.872 41.984-129.536 129.536t-49.664 219.648q0 93.184 25.6 164.864t69.632 120.832 102.912 74.24 126.464 25.088q62.464 0 117.76-21.504l39.936 108.544h35.84l-45.056-122.88q78.848-43.008 127.488-130.56t48.64-218.624q0-94.208-25.6-165.888t-69.12-119.808-102.912-72.704-126.976-24.576zM95.232 518.656q0-121.856 43.008-200.704t109.568-115.712l238.592 647.168q-50.176 20.48-105.472 20.48-60.416 0-112.64-22.528t-90.624-67.072-60.416-110.080-22.016-151.552zM380.928 169.472q56.32 0 108.032 20.48t91.136 63.488 62.976 109.056 23.552 156.16q0 118.784-40.96 198.144t-108.544 118.272l-238.592-647.168q49.152-18.432 102.4-18.432z" />
<glyph unicode="&#xd9;" glyph-name="Ugrave" data-tags="Ugrave" horiz-adv-x="717" d="M358.4 135.68q-66.56 0-117.76 20.48t-86.528 55.808-53.76 81.92-18.432 97.792v496.64h36.864v-497.664q0-49.152 18.432-89.6t50.688-69.632 75.776-45.568 94.72-16.384q50.176 0 94.208 16.384t76.288 45.568 50.688 69.632 18.432 89.6v497.664h36.864v-496.64q0-51.2-18.944-97.792t-54.272-81.92-86.528-55.808-116.736-20.48zM410.624 937.472h-34.816l-124.928 140.288h54.272z" />
<glyph unicode="&#xda;" glyph-name="Uacute" data-tags="Uacute" horiz-adv-x="717" d="M358.4 135.68q-66.56 0-117.76 20.48t-86.528 55.808-53.76 81.92-18.432 97.792v496.64h36.864v-497.664q0-49.152 18.432-89.6t50.688-69.632 75.776-45.568 94.72-16.384q50.176 0 94.208 16.384t76.288 45.568 50.688 69.632 18.432 89.6v497.664h36.864v-496.64q0-51.2-18.944-97.792t-54.272-81.92-86.528-55.808-116.736-20.48zM407.552 1077.76h54.272l-124.928-140.288h-34.816z" />
<glyph unicode="&#xdb;" glyph-name="Ucircumflex" data-tags="Ucircumflex" horiz-adv-x="717" d="M358.4 135.68q-66.56 0-117.76 20.48t-86.528 55.808-53.76 81.92-18.432 97.792v496.64h36.864v-497.664q0-49.152 18.432-89.6t50.688-69.632 75.776-45.568 94.72-16.384q50.176 0 94.208 16.384t76.288 45.568 50.688 69.632 18.432 89.6v497.664h36.864v-496.64q0-51.2-18.944-97.792t-54.272-81.92-86.528-55.808-116.736-20.48zM485.376 937.472h-34.816l-93.184 115.712-92.16-115.712h-35.84l106.496 140.288h44.032z" />
<glyph unicode="&#xdc;" glyph-name="Udieresis" data-tags="Udieresis" horiz-adv-x="717" d="M358.4 135.68q-66.56 0-117.76 20.48t-86.528 55.808-53.76 81.92-18.432 97.792v496.64h36.864v-497.664q0-49.152 18.432-89.6t50.688-69.632 75.776-45.568 94.72-16.384q50.176 0 94.208 16.384t76.288 45.568 50.688 69.632 18.432 89.6v497.664h36.864v-496.64q0-51.2-18.944-97.792t-54.272-81.92-86.528-55.808-116.736-20.48zM234.496 1004.032v58.368h47.104v-58.368h-47.104zM435.2 1004.032v58.368h47.104v-58.368h-47.104z" />
<glyph unicode="&#xdd;" glyph-name="Yacute" data-tags="Yacute" horiz-adv-x="635" d="M51.2 888.32l265.216-412.672 269.312 412.672h38.912l-288.768-449.536v-287.744h-37.888v289.792l-287.744 447.488h40.96zM366.592 1077.76h54.272l-124.928-140.288h-34.816z" />
<glyph unicode="&#xde;" glyph-name="Thorn" data-tags="Thorn" horiz-adv-x="639" d="M124.928 888.32v-136.192h212.992q119.808 0 184.832-60.416t65.024-166.912q0-51.2-18.944-91.648t-52.736-68.608-79.872-43.52-100.352-15.36h-210.944v-154.624h-37.888v737.28h37.888zM124.928 718.336v-377.856h210.944q97.28 0 154.624 48.64t57.344 135.68q0 91.136-54.272 142.336t-152.576 51.2h-216.064z" />
<glyph unicode="&#xdf;" glyph-name="germandbls" data-tags="germandbls" horiz-adv-x="558" d="M229.376 240.128q8.192-35.84 43.008-54.784t82.944-18.944q26.624 0 50.688 9.216t42.496 26.112 29.184 40.448 10.752 52.224q0 46.080-24.576 77.824t-86.016 65.536q-29.696 16.384-48.64 30.72t-30.208 29.184-15.36 30.72-4.096 35.328q0 29.696 17.408 50.688t37.888 40.448 37.888 42.496 17.408 57.856q0 58.368-37.376 88.064t-95.744 29.696q-27.648 0-52.224-7.68t-44.032-26.112-30.72-48.64-11.264-75.264v-564.224h-36.864v562.176q0 89.088 43.52 139.776t131.584 50.688q34.816 0 65.536-8.704t53.76-26.624 36.352-45.568 13.312-65.536q0-36.864-17.408-62.976t-38.912-47.616-38.912-40.448-17.408-41.472q0-28.672 18.432-51.712t65.536-47.616q71.68-37.888 100.864-78.336t29.184-88.576q0-33.792-12.8-62.976t-35.84-51.712-55.296-35.328-71.168-12.8q-67.584 0-109.568 29.696t-52.224 74.752h38.912z" />
<glyph unicode="&#xe0;" glyph-name="agrave" data-tags="agrave" horiz-adv-x="532" d="M68.608 550.4q3.072 32.768 18.944 60.416t41.472 47.104 60.416 30.208 76.8 10.752q40.96 0 75.776-11.776t60.416-33.792 39.424-53.76 13.824-71.68v-376.832h-29.696l-6.144 95.232q-12.288-21.504-29.696-41.472t-41.472-35.328-54.272-24.576-67.072-9.216-69.12 9.728-55.808 28.672-37.376 46.592-13.824 64.512q0 66.56 46.080 108.032t159.744 60.928l161.792 26.624v54.272q0 61.44-40.96 97.28t-113.664 35.84q-67.584 0-110.592-32.768t-48.128-84.992h-36.864zM418.816 450.048l-147.456-24.576q-53.248-9.216-88.064-22.016t-55.808-29.696-29.696-38.4-8.704-48.128q0-61.44 41.984-90.624t106.496-29.184q33.792 0 66.048 12.288t57.856 34.816 41.472 53.76 15.872 70.144v111.616zM301.056 763.392h-34.816l-124.928 140.288h54.272z" />
<glyph unicode="&#xe1;" glyph-name="aacute" data-tags="aacute" horiz-adv-x="532" d="M68.608 550.4q3.072 32.768 18.944 60.416t41.472 47.104 60.416 30.208 76.8 10.752q40.96 0 75.776-11.776t60.416-33.792 39.424-53.76 13.824-71.68v-376.832h-29.696l-6.144 95.232q-12.288-21.504-29.696-41.472t-41.472-35.328-54.272-24.576-67.072-9.216-69.12 9.728-55.808 28.672-37.376 46.592-13.824 64.512q0 66.56 46.080 108.032t159.744 60.928l161.792 26.624v54.272q0 61.44-40.96 97.28t-113.664 35.84q-67.584 0-110.592-32.768t-48.128-84.992h-36.864zM418.816 450.048l-147.456-24.576q-53.248-9.216-88.064-22.016t-55.808-29.696-29.696-38.4-8.704-48.128q0-61.44 41.984-90.624t106.496-29.184q33.792 0 66.048 12.288t57.856 34.816 41.472 53.76 15.872 70.144v111.616zM336.896 903.68h54.272l-124.928-140.288h-34.816z" />
<glyph unicode="&#xe2;" glyph-name="acircumflex" data-tags="acircumflex" horiz-adv-x="532" d="M68.608 550.4q3.072 32.768 18.944 60.416t41.472 47.104 60.416 30.208 76.8 10.752q40.96 0 75.776-11.776t60.416-33.792 39.424-53.76 13.824-71.68v-376.832h-29.696l-6.144 95.232q-12.288-21.504-29.696-41.472t-41.472-35.328-54.272-24.576-67.072-9.216-69.12 9.728-55.808 28.672-37.376 46.592-13.824 64.512q0 66.56 46.080 108.032t159.744 60.928l161.792 26.624v54.272q0 61.44-40.96 97.28t-113.664 35.84q-67.584 0-110.592-32.768t-48.128-84.992h-36.864zM418.816 450.048l-147.456-24.576q-53.248-9.216-88.064-22.016t-55.808-29.696-29.696-38.4-8.704-48.128q0-61.44 41.984-90.624t106.496-29.184q33.792 0 66.048 12.288t57.856 34.816 41.472 53.76 15.872 70.144v111.616zM397.312 763.392h-34.816l-93.184 115.712-92.16-115.712h-35.84l106.496 140.288h44.032z" />
<glyph unicode="&#xe3;" glyph-name="atilde" data-tags="atilde" horiz-adv-x="532" d="M68.608 550.4q3.072 32.768 18.944 60.416t41.472 47.104 60.416 30.208 76.8 10.752q40.96 0 75.776-11.776t60.416-33.792 39.424-53.76 13.824-71.68v-376.832h-29.696l-6.144 95.232q-12.288-21.504-29.696-41.472t-41.472-35.328-54.272-24.576-67.072-9.216-69.12 9.728-55.808 28.672-37.376 46.592-13.824 64.512q0 66.56 46.080 108.032t159.744 60.928l161.792 26.624v54.272q0 61.44-40.96 97.28t-113.664 35.84q-67.584 0-110.592-32.768t-48.128-84.992h-36.864zM418.816 450.048l-147.456-24.576q-53.248-9.216-88.064-22.016t-55.808-29.696-29.696-38.4-8.704-48.128q0-61.44 41.984-90.624t106.496-29.184q33.792 0 66.048 12.288t57.856 34.816 41.472 53.76 15.872 70.144v111.616zM320.512 799.232q-20.48 0-33.792 5.12t-25.088 11.264-23.040 11.264-27.648 5.12q-17.408 0-34.816-7.68t-39.936-25.088v36.864q20.48 15.36 37.376 22.528t38.4 7.168q20.48 0 33.792-5.12t25.088-11.264 23.040-11.264 27.648-5.12q17.408 0 34.816 7.68t39.936 25.088v-36.864q-20.48-15.36-37.376-22.528t-38.4-7.168z" />
<glyph unicode="&#xe4;" glyph-name="adieresis" data-tags="adieresis" horiz-adv-x="532" d="M68.608 550.4q3.072 32.768 18.944 60.416t41.472 47.104 60.416 30.208 76.8 10.752q40.96 0 75.776-11.776t60.416-33.792 39.424-53.76 13.824-71.68v-376.832h-29.696l-6.144 95.232q-12.288-21.504-29.696-41.472t-41.472-35.328-54.272-24.576-67.072-9.216-69.12 9.728-55.808 28.672-37.376 46.592-13.824 64.512q0 66.56 46.080 108.032t159.744 60.928l161.792 26.624v54.272q0 61.44-40.96 97.28t-113.664 35.84q-67.584 0-110.592-32.768t-48.128-84.992h-36.864zM418.816 450.048l-147.456-24.576q-53.248-9.216-88.064-22.016t-55.808-29.696-29.696-38.4-8.704-48.128q0-61.44 41.984-90.624t106.496-29.184q33.792 0 66.048 12.288t57.856 34.816 41.472 53.76 15.872 70.144v111.616zM142.336 829.952v58.368h47.104v-58.368h-47.104zM343.040 829.952v58.368h47.104v-58.368h-47.104z" />
<glyph unicode="&#xe5;" glyph-name="aring" data-tags="aring" horiz-adv-x="532" d="M68.608 550.4q3.072 32.768 18.944 60.416t41.472 47.104 60.416 30.208 76.8 10.752q40.96 0 75.776-11.776t60.416-33.792 39.424-53.76 13.824-71.68v-376.832h-29.696l-6.144 95.232q-12.288-21.504-29.696-41.472t-41.472-35.328-54.272-24.576-67.072-9.216-69.12 9.728-55.808 28.672-37.376 46.592-13.824 64.512q0 66.56 46.080 108.032t159.744 60.928l161.792 26.624v54.272q0 61.44-40.96 97.28t-113.664 35.84q-67.584 0-110.592-32.768t-48.128-84.992h-36.864zM418.816 450.048l-147.456-24.576q-53.248-9.216-88.064-22.016t-55.808-29.696-29.696-38.4-8.704-48.128q0-61.44 41.984-90.624t106.496-29.184q33.792 0 66.048 12.288t57.856 34.816 41.472 53.76 15.872 70.144v111.616zM178.176 867.84q0-44.032 24.576-67.072t60.416-23.040 60.416 23.040 24.576 67.072-24.576 67.072-60.416 23.040-60.416-23.040-24.576-67.072zM380.928 867.84q0-52.224-32.768-84.992t-84.992-32.768-84.992 32.768-32.768 84.992 32.768 84.992 84.992 32.768 84.992-32.768 32.768-84.992z" />
<glyph unicode="&#xe6;" glyph-name="ae" data-tags="ae" horiz-adv-x="949" d="M880.64 297.472q-20.48-76.8-79.36-119.296t-135.68-42.496q-33.792 0-68.096 8.704t-64 28.16-54.272 49.152-39.936 71.68q-7.168-29.696-23.040-58.368t-41.984-50.688-62.464-35.328-84.48-13.312q-36.864 0-69.12 9.216t-55.808 27.648-37.376 46.080-13.824 63.488q0 64.512 48.128 105.984t160.768 53.76l158.72 17.408v75.776q0 61.44-40.96 97.28t-113.664 35.84q-67.584 0-110.592-32.768t-48.128-84.992h-36.864q3.072 32.768 18.944 60.416t41.472 47.104 60.416 30.208 76.8 10.752q70.656 0 119.808-32.768t63.488-94.208q16.384 33.792 39.424 57.856t49.664 39.424 55.808 22.528 58.88 7.168q44.032 0 86.016-14.848t74.752-47.104 53.76-83.456 23.040-123.904h-436.224v-22.528q0-64.512 18.432-110.080t48.128-74.24 68.096-41.984 77.312-13.312q28.672 0 56.32 7.68t51.2 24.064 40.96 40.96 26.624 57.344h38.912zM237.568 167.424q32.768 0 64.512 11.776t56.832 33.28 41.472 51.2 18.432 66.56v98.304l-144.384-15.36q-52.224-6.144-88.064-17.408t-57.344-27.648-30.72-37.888-9.216-46.080q0-60.416 41.984-88.576t106.496-28.16zM653.312 668.16q-36.864 0-70.656-13.824t-59.904-40.448-43.52-65.024-22.528-87.552h394.24q-9.216 96.256-62.464 151.552t-135.168 55.296z" />
<glyph unicode="&#xe7;" glyph-name="ccedilla" data-tags="ccedilla" horiz-adv-x="547" d="M404.48 4.608q0-20.48-8.192-37.888t-23.040-30.72-34.816-20.992-44.544-7.68q-46.080 0-77.824 20.992t-37.888 62.976h33.792q3.072-26.624 26.624-40.448t56.32-13.824q34.816 0 55.808 18.944t20.992 47.616q0 30.72-26.624 49.664t-91.136 18.944l5.12 64.512q-45.056 4.096-82.944 23.552t-65.536 54.272-43.52 84.48-15.872 114.176q0 71.68 18.944 125.44t50.688 89.6 73.728 53.248 89.088 17.408q40.96 0 76.8-11.264t62.976-32.256 45.056-50.176 24.064-65.024h-38.912q-10.24 58.368-55.808 93.184t-113.152 34.816q-40.96 0-76.8-15.872t-62.464-47.616-41.984-79.872-15.36-113.664q0-62.464 15.872-108.544t42.496-75.776 61.952-44.544 75.264-14.848q33.792 0 63.488 10.24t52.736 27.648 37.888 41.984 19.968 54.272h37.888q-6.144-35.84-24.064-65.536t-44.544-51.712-61.44-34.816-75.776-13.824v-37.888q57.344-5.12 86.016-30.72t28.672-62.464z" />
<glyph unicode="&#xe8;" glyph-name="egrave" data-tags="egrave" horiz-adv-x="582" d="M515.072 292.352q-19.456-72.704-76.8-114.688t-138.24-41.984q-53.248 0-98.816 18.432t-78.848 54.784-52.224 88.576-18.944 119.808 18.432 120.32 50.176 88.576 75.264 54.272 92.672 18.432 92.672-17.92 75.776-53.76 50.688-90.624 18.432-128.512h-436.224q1.024-61.44 18.432-107.008t46.080-75.264 66.56-44.032 80.896-14.336q64.512 0 111.616 32.256t63.488 92.672h38.912zM287.744 668.16q-39.936 0-74.752-14.848t-61.44-43.52-43.008-71.68-19.456-98.304h397.312q-3.072 56.32-19.456 99.328t-43.008 71.68-61.44 43.008-74.752 14.336zM326.656 763.392h-34.816l-124.928 140.288h54.272z" />
<glyph unicode="&#xe9;" glyph-name="eacute" data-tags="eacute" horiz-adv-x="582" d="M515.072 292.352q-19.456-72.704-76.8-114.688t-138.24-41.984q-53.248 0-98.816 18.432t-78.848 54.784-52.224 88.576-18.944 119.808 18.432 120.32 50.176 88.576 75.264 54.272 92.672 18.432 92.672-17.92 75.776-53.76 50.688-90.624 18.432-128.512h-436.224q1.024-61.44 18.432-107.008t46.080-75.264 66.56-44.032 80.896-14.336q64.512 0 111.616 32.256t63.488 92.672h38.912zM287.744 668.16q-39.936 0-74.752-14.848t-61.44-43.52-43.008-71.68-19.456-98.304h397.312q-3.072 56.32-19.456 99.328t-43.008 71.68-61.44 43.008-74.752 14.336zM360.448 903.68h54.272l-124.928-140.288h-34.816z" />
<glyph unicode="&#xea;" glyph-name="ecircumflex" data-tags="ecircumflex" horiz-adv-x="582" d="M515.072 292.352q-19.456-72.704-76.8-114.688t-138.24-41.984q-53.248 0-98.816 18.432t-78.848 54.784-52.224 88.576-18.944 119.808 18.432 120.32 50.176 88.576 75.264 54.272 92.672 18.432 92.672-17.92 75.776-53.76 50.688-90.624 18.432-128.512h-436.224q1.024-61.44 18.432-107.008t46.080-75.264 66.56-44.032 80.896-14.336q64.512 0 111.616 32.256t63.488 92.672h38.912zM287.744 668.16q-39.936 0-74.752-14.848t-61.44-43.52-43.008-71.68-19.456-98.304h397.312q-3.072 56.32-19.456 99.328t-43.008 71.68-61.44 43.008-74.752 14.336zM414.72 763.392h-34.816l-93.184 115.712-92.16-115.712h-35.84l106.496 140.288h44.032z" />
<glyph unicode="&#xeb;" glyph-name="edieresis" data-tags="edieresis" horiz-adv-x="582" d="M515.072 292.352q-19.456-72.704-76.8-114.688t-138.24-41.984q-53.248 0-98.816 18.432t-78.848 54.784-52.224 88.576-18.944 119.808 18.432 120.32 50.176 88.576 75.264 54.272 92.672 18.432 92.672-17.92 75.776-53.76 50.688-90.624 18.432-128.512h-436.224q1.024-61.44 18.432-107.008t46.080-75.264 66.56-44.032 80.896-14.336q64.512 0 111.616 32.256t63.488 92.672h38.912zM287.744 668.16q-39.936 0-74.752-14.848t-61.44-43.52-43.008-71.68-19.456-98.304h397.312q-3.072 56.32-19.456 99.328t-43.008 71.68-61.44 43.008-74.752 14.336zM163.84 829.952v58.368h47.104v-58.368h-47.104zM364.544 829.952v58.368h47.104v-58.368h-47.104z" />
<glyph unicode="&#xec;" glyph-name="igrave" data-tags="igrave" horiz-adv-x="188" d="M75.776 151.040v532.48h36.864v-532.48h-36.864zM144.384 763.392h-34.816l-124.928 140.288h54.272z" />
<glyph unicode="&#xed;" glyph-name="iacute" data-tags="iacute" horiz-adv-x="188" d="M75.776 151.040v532.48h36.864v-532.48h-36.864zM150.528 903.68h54.272l-124.928-140.288h-34.816z" />
<glyph unicode="&#xee;" glyph-name="icircumflex" data-tags="icircumflex" horiz-adv-x="188" d="M75.776 151.040v532.48h36.864v-532.48h-36.864zM223.232 763.392h-34.816l-93.184 115.712-92.16-115.712h-35.84l106.496 140.288h44.032z" />
<glyph unicode="&#xef;" glyph-name="idieresis" data-tags="idieresis" horiz-adv-x="188" d="M75.776 151.040v532.48h36.864v-532.48h-36.864zM-28.672 829.952v58.368h47.104v-58.368h-47.104zM172.032 829.952v58.368h47.104v-58.368h-47.104z" />
<glyph unicode="&#xf0;" glyph-name="eth" data-tags="eth" horiz-adv-x="549" d="M145.408 893.44q40.96-8.192 86.528-23.552t89.6-44.032l59.392 62.464h44.032l-76.8-80.896q30.72-23.552 58.368-55.296t47.616-73.216 31.744-92.672 11.776-114.688q0-70.656-11.264-132.096t-37.888-106.496-71.168-71.168-111.104-26.112q-51.2 0-91.136 19.456t-67.584 53.76-41.984 81.92-14.336 102.912q0 50.176 13.312 95.232t39.936 78.848 66.048 53.248 90.624 19.456q43.008 0 76.288-12.288t57.856-33.28 40.448-47.104 24.064-53.76q-2.048 55.296-12.8 99.84t-28.672 80.384-40.96 62.976-50.688 47.616l-61.44-64.512h-44.032l78.848 82.944q-38.912 24.576-81.408 38.4t-82.432 22.016zM267.264 607.744q-36.864 0-69.12-12.288t-56.832-38.4-38.4-67.072-13.824-99.328q0-47.104 12.288-87.552t34.816-70.144 55.296-46.592 74.752-16.896q49.152 0 84.992 17.92t59.392 48.64 34.816 71.68 11.264 88.064q0 36.864-11.776 74.752t-35.328 68.096-59.392 49.664-82.944 19.456z" />
<glyph unicode="&#xf1;" glyph-name="ntilde" data-tags="ntilde" horiz-adv-x="560" d="M81.92 151.040v532.48h30.72l5.12-101.376q26.624 57.344 75.776 87.040t107.52 29.696q40.96 0 74.752-12.8t57.856-35.84 36.864-56.32 12.8-74.24v-368.64h-36.864v366.592q0 70.656-39.936 110.592t-113.664 39.936q-30.72 0-61.952-12.8t-56.32-36.864-40.448-58.368-15.36-77.312v-331.776h-36.864zM345.088 799.232q-20.48 0-33.792 5.12t-25.088 11.264-23.040 11.264-27.648 5.12q-17.408 0-34.816-7.68t-39.936-25.088v36.864q20.48 15.36 37.376 22.528t38.4 7.168q20.48 0 33.792-5.12t25.088-11.264 23.040-11.264 27.648-5.12q17.408 0 34.816 7.68t39.936 25.088v-36.864q-20.48-15.36-37.376-22.528t-38.4-7.168z" />
<glyph unicode="&#xf2;" glyph-name="ograve" data-tags="ograve" horiz-adv-x="579" d="M89.088 417.28q0-62.464 15.36-109.568t42.496-78.336 64-47.104 78.848-15.872q43.008 0 79.872 15.872t63.488 47.104 41.472 78.336 14.848 109.568-14.848 109.568-41.472 78.848-63.488 47.104-79.872 15.36-79.872-15.872-64-47.104-41.984-78.336-14.848-109.568zM51.2 417.28q0 69.632 17.92 122.368t50.176 88.064 75.776 53.248 94.72 17.92q52.224 0 95.744-17.92t75.264-53.76 49.152-88.576 17.408-121.344q0-69.632-17.92-122.368t-49.152-88.064-74.752-53.248-93.696-17.92q-51.2 0-95.232 18.432t-76.288 53.76-50.688 88.064-18.432 121.344zM326.656 763.392h-34.816l-124.928 140.288h54.272z" />
<glyph unicode="&#xf3;" glyph-name="oacute" data-tags="oacute" horiz-adv-x="579" d="M89.088 417.28q0-62.464 15.36-109.568t42.496-78.336 64-47.104 78.848-15.872q43.008 0 79.872 15.872t63.488 47.104 41.472 78.336 14.848 109.568-14.848 109.568-41.472 78.848-63.488 47.104-79.872 15.36-79.872-15.872-64-47.104-41.984-78.336-14.848-109.568zM51.2 417.28q0 69.632 17.92 122.368t50.176 88.064 75.776 53.248 94.72 17.92q52.224 0 95.744-17.92t75.264-53.76 49.152-88.576 17.408-121.344q0-69.632-17.92-122.368t-49.152-88.064-74.752-53.248-93.696-17.92q-51.2 0-95.232 18.432t-76.288 53.76-50.688 88.064-18.432 121.344zM356.352 903.68h54.272l-124.928-140.288h-34.816z" />
<glyph unicode="&#xf4;" glyph-name="ocircumflex" data-tags="ocircumflex" horiz-adv-x="579" d="M89.088 417.28q0-62.464 15.36-109.568t42.496-78.336 64-47.104 78.848-15.872q43.008 0 79.872 15.872t63.488 47.104 41.472 78.336 14.848 109.568-14.848 109.568-41.472 78.848-63.488 47.104-79.872 15.36-79.872-15.872-64-47.104-41.984-78.336-14.848-109.568zM51.2 417.28q0 69.632 17.92 122.368t50.176 88.064 75.776 53.248 94.72 17.92q52.224 0 95.744-17.92t75.264-53.76 49.152-88.576 17.408-121.344q0-69.632-17.92-122.368t-49.152-88.064-74.752-53.248-93.696-17.92q-51.2 0-95.232 18.432t-76.288 53.76-50.688 88.064-18.432 121.344zM417.792 763.392h-34.816l-93.184 115.712-92.16-115.712h-35.84l106.496 140.288h44.032z" />
<glyph unicode="&#xf5;" glyph-name="otilde" data-tags="otilde" horiz-adv-x="579" d="M89.088 417.28q0-62.464 15.36-109.568t42.496-78.336 64-47.104 78.848-15.872q43.008 0 79.872 15.872t63.488 47.104 41.472 78.336 14.848 109.568-14.848 109.568-41.472 78.848-63.488 47.104-79.872 15.36-79.872-15.872-64-47.104-41.984-78.336-14.848-109.568zM51.2 417.28q0 69.632 17.92 122.368t50.176 88.064 75.776 53.248 94.72 17.92q52.224 0 95.744-17.92t75.264-53.76 49.152-88.576 17.408-121.344q0-69.632-17.92-122.368t-49.152-88.064-74.752-53.248-93.696-17.92q-51.2 0-95.232 18.432t-76.288 53.76-50.688 88.064-18.432 121.344zM343.040 799.232q-20.48 0-33.792 5.12t-25.088 11.264-23.040 11.264-27.648 5.12q-17.408 0-34.816-7.68t-39.936-25.088v36.864q20.48 15.36 37.376 22.528t38.4 7.168q20.48 0 33.792-5.12t25.088-11.264 23.040-11.264 27.648-5.12q17.408 0 34.816 7.68t39.936 25.088v-36.864q-20.48-15.36-37.376-22.528t-38.4-7.168z" />
<glyph unicode="&#xf6;" glyph-name="odieresis" data-tags="odieresis" horiz-adv-x="579" d="M89.088 417.28q0-62.464 15.36-109.568t42.496-78.336 64-47.104 78.848-15.872q43.008 0 79.872 15.872t63.488 47.104 41.472 78.336 14.848 109.568-14.848 109.568-41.472 78.848-63.488 47.104-79.872 15.36-79.872-15.872-64-47.104-41.984-78.336-14.848-109.568zM51.2 417.28q0 69.632 17.92 122.368t50.176 88.064 75.776 53.248 94.72 17.92q52.224 0 95.744-17.92t75.264-53.76 49.152-88.576 17.408-121.344q0-69.632-17.92-122.368t-49.152-88.064-74.752-53.248-93.696-17.92q-51.2 0-95.232 18.432t-76.288 53.76-50.688 88.064-18.432 121.344zM165.888 829.952v58.368h47.104v-58.368h-47.104zM366.592 829.952v58.368h47.104v-58.368h-47.104z" />
<glyph unicode="&#xf7;" glyph-name="divide" data-tags="divide" d="M281.6 216.576v65.536h51.2v-65.536h-51.2zM281.6 679.424v65.536h51.2v-65.536h-51.2zM512 463.36h-409.6v34.816h409.6v-34.816z" />
<glyph unicode="&#xf8;" glyph-name="oslash" data-tags="oslash" horiz-adv-x="579" d="M51.2 417.28q0 69.632 17.92 122.368t50.176 88.064 75.776 53.248 94.72 17.92q55.296 0 98.304-19.456l52.224 116.736h36.864l-59.392-132.096q51.2-32.768 80.384-94.72t29.184-152.064q0-69.632-17.92-122.368t-49.152-88.064-74.752-53.248-93.696-17.92q-54.272 0-101.376 20.48l-52.224-117.76h-36.864l59.392 134.144q-50.176 32.768-79.872 94.208t-29.696 150.528zM289.792 166.4q43.008 0 79.872 15.872t63.488 47.104 41.472 78.336 14.848 109.568q0 78.848-23.040 132.096t-62.976 82.944l-199.68-447.488q37.888-18.432 86.016-18.432zM89.088 417.28q0-77.824 23.552-131.072t62.464-82.944l199.68 446.464q-38.912 18.432-84.992 18.432-43.008 0-79.872-15.872t-64-47.104-41.984-78.336-14.848-109.568z" />
<glyph unicode="&#xf9;" glyph-name="ugrave" data-tags="ugrave" horiz-adv-x="555" d="M113.664 683.52v-364.544q0-76.8 40.96-114.688t110.592-37.888q35.84 0 67.072 14.336t54.272 39.424 36.352 59.904 13.312 75.776v327.68h36.864v-532.48h-30.72l-5.12 95.232q-14.336-28.672-34.304-49.664t-44.032-34.304-50.176-19.968-51.712-6.656q-38.912 0-71.68 11.264t-56.832 33.792-37.888 56.832-13.824 79.36v366.592h36.864zM316.416 763.392h-34.816l-124.928 140.288h54.272z" />
<glyph unicode="&#xfa;" glyph-name="uacute" data-tags="uacute" horiz-adv-x="555" d="M113.664 683.52v-364.544q0-76.8 40.96-114.688t110.592-37.888q35.84 0 67.072 14.336t54.272 39.424 36.352 59.904 13.312 75.776v327.68h36.864v-532.48h-30.72l-5.12 95.232q-14.336-28.672-34.304-49.664t-44.032-34.304-50.176-19.968-51.712-6.656q-38.912 0-71.68 11.264t-56.832 33.792-37.888 56.832-13.824 79.36v366.592h36.864zM338.944 903.68h54.272l-124.928-140.288h-34.816z" />
</font>
</defs>
</svg>
