<?xml version="1.0" encoding="utf-8"?>
<!-- Generator: Adobe Illustrator 19.2.1, SVG Export Plug-In . SVG Version: 6.00 Build 0)  -->
<svg version="1.1" id="Login" xmlns="http://www.w3.org/2000/svg" xmlns:xlink="http://www.w3.org/1999/xlink" x="0px" y="0px"
	 viewBox="0 0 310 26" style="enable-background:new 0 0 310 26;" xml:space="preserve">
<style type="text/css">
	.st0{fill:#9F9E9E;}
	.st1{fill:#A0A0A0;}
	.st2{fill:#049FD9;}
</style>
<g>
	<g>
		<path class="st1" d="M16.7,21v1.6h0.1c0.4,0.1,0.7,0.1,1.1,0.1c0.3,0,0.7,0,1,0s0.6-0.1,0.9-0.2c0.4-0.1,0.7-0.3,1-0.5
			c0.2-0.2,0.4-0.5,0.6-0.8c0.2-0.5,0.2-1.1,0-1.6c-0.1-0.3-0.3-0.5-0.5-0.7s-0.5-0.3-0.7-0.4L19,18.1c-0.1-0.1-0.3-0.2-0.3-0.3
			c-0.1-0.1,0-0.3,0-0.4c0,0,0-0.1,0.1-0.1l0.1-0.1c0,0,0,0,0.1,0c0.1-0.1,0.3-0.1,0.4-0.1c0.3,0,0.5,0,0.8,0s0.6,0.1,0.9,0.2h0.1
			v-1.5h-0.1c-0.3-0.1-0.6-0.1-0.9-0.2c-0.4-0.1-0.8-0.1-1.2,0c-0.5,0-1,0.2-1.4,0.6c-0.3,0.2-0.5,0.5-0.6,0.8c-0.2,0.5-0.2,1,0,1.5
			c0.1,0.2,0.2,0.5,0.4,0.6c0.2,0.2,0.3,0.3,0.5,0.4c0.3,0.1,0.5,0.2,0.8,0.3c0.1,0,0.2,0.1,0.3,0.1l0.1,0.1l0,0
			c0.1,0.1,0.3,0.1,0.4,0.2s0.1,0.2,0.2,0.3c0,0.1,0,0.2,0,0.3c0,0.1-0.1,0.3-0.3,0.3c-0.1,0.1-0.3,0.1-0.5,0.1s-0.5,0-0.7,0
			c-0.3,0-0.6-0.1-0.9-0.1C17.1,21.1,16.9,21.1,16.7,21L16.7,21"/>
		<path class="st1" d="M10.2,22.6v-1.9l0,0C9.8,20.9,9.3,21,8.9,21c-0.5,0-1-0.1-1.3-0.4c-0.3-0.2-0.5-0.5-0.6-0.8
			c-0.1-0.4-0.1-0.7,0-1.1s0.3-0.7,0.6-1c0.3-0.2,0.6-0.4,0.9-0.4c0.6-0.1,1.2,0,1.8,0.3l0,0v-1.9h-0.1c-0.5-0.2-1.1-0.2-1.7-0.2
			c-0.5,0-1,0.1-1.5,0.3c-0.5,0.2-0.9,0.5-1.2,1c-1,1.3-1.1,3.2-0.1,4.5c0.5,0.6,1.2,1.1,2,1.3c0.8,0.2,1.7,0.2,2.5-0.1L10.2,22.6"
			/>
		<polyline class="st1" points="14.4,22.7 14.4,15.8 12.6,15.8 12.6,22.7 14.4,22.7 		"/>
		<polyline class="st1" points="40.3,21.9 40.3,21.8 39.5,21.8 39.5,21.9 39.9,21.9 39.9,22.7 40,22.7 40,21.9 40.3,21.9 		"/>
		<polyline class="st1" points="40.4,22.7 40.5,22.7 40.5,22 40.5,22 40.8,22.7 40.9,22.7 41.2,21.9 41.2,22.7 41.3,22.7 41.3,21.8 
			41.1,21.8 40.8,22.5 40.6,21.8 40.4,21.8 40.4,22.7 		"/>
		<path class="st1" d="M1.3,10.2c0,0.2,0.1,0.4,0.3,0.6C1.7,10.9,1.9,11,2.2,11c0.2,0,0.4-0.1,0.6-0.2C2.9,10.6,3,10.4,3,10.2v-2
			C3,8,2.9,7.8,2.8,7.7C2.6,7.5,2.4,7.4,2.2,7.4S1.8,7.5,1.6,7.6C1.4,7.8,1.3,8,1.3,8.2V10.2"/>
		<path class="st1" d="M6.1,10.2c0,0.2,0.1,0.4,0.3,0.6C6.5,10.9,6.7,11,7,11c0.2,0,0.4-0.1,0.6-0.2c0.2-0.1,0.3-0.4,0.3-0.6V5.9
			c0-0.2-0.1-0.4-0.3-0.6C7.4,5.1,7.2,5,7,5C6.7,5,6.5,5.1,6.4,5.3C6.2,5.4,6.1,5.6,6.1,5.9V10.2"/>
		<path class="st1" d="M10.9,11.9c0,0.2,0.1,0.4,0.3,0.6c0.2,0.1,0.4,0.2,0.6,0.2c0.2,0,0.4-0.1,0.6-0.2c0.2-0.1,0.3-0.4,0.3-0.6
			V2.6c0-0.2-0.1-0.4-0.3-0.6S12,1.8,11.8,1.8c-0.2,0-0.4,0.1-0.6,0.2c-0.2,0.2-0.3,0.4-0.3,0.6V11.9"/>
		<path class="st1" d="M15.7,10.2c0,0.2,0.1,0.4,0.3,0.6c0.2,0.1,0.4,0.2,0.6,0.2s0.4-0.1,0.6-0.2c0.2-0.1,0.3-0.4,0.3-0.6V5.9
			c0-0.2-0.1-0.4-0.3-0.6C17,5.1,16.7,5,16.5,5s-0.4,0.1-0.6,0.2c-0.2,0.2-0.3,0.4-0.3,0.6v4.4"/>
		<path class="st1" d="M20.4,10.2c0,0.2,0.1,0.4,0.3,0.6c0.2,0.1,0.4,0.2,0.6,0.2s0.4-0.1,0.6-0.2c0.2-0.1,0.3-0.4,0.3-0.6v-2
			c0-0.2-0.1-0.4-0.3-0.6c-0.2-0.2-0.4-0.2-0.6-0.2s-0.4,0.1-0.6,0.2c-0.2,0.2-0.3,0.4-0.3,0.6V10.2"/>
		<path class="st1" d="M25.2,10.2c0,0.2,0.1,0.4,0.3,0.6c0.2,0.1,0.4,0.2,0.6,0.2s0.4-0.1,0.6-0.2c0.2-0.1,0.3-0.4,0.3-0.6V5.9
			c0-0.2-0.1-0.4-0.3-0.6C26.5,5.1,26.3,5,26.1,5c-0.2,0-0.4,0.1-0.6,0.2c-0.2,0.2-0.3,0.4-0.3,0.6V10.2"/>
		<path class="st1" d="M30,11.9c0,0.2,0.1,0.4,0.3,0.6c0.2,0.1,0.4,0.2,0.6,0.2s0.4-0.1,0.6-0.2c0.2-0.1,0.3-0.4,0.3-0.6V2.6
			c0-0.2-0.1-0.4-0.3-0.6c-0.2-0.2-0.4-0.2-0.6-0.2S30.5,1.9,30.3,2C30.1,2.1,30,2.3,30,2.6V11.9"/>
		<path class="st1" d="M34.8,10.2c0,0.2,0.1,0.4,0.3,0.6c0.2,0.1,0.4,0.2,0.6,0.2c0.2,0,0.4-0.1,0.6-0.2c0.2-0.1,0.3-0.4,0.3-0.6
			V5.9c0-0.2-0.1-0.4-0.3-0.6C36.1,5.1,35.9,5,35.6,5c-0.2,0-0.4,0.1-0.6,0.2c-0.2,0.2-0.3,0.4-0.3,0.6L34.8,10.2"/>
		<path class="st1" d="M39.6,10.2c0,0.2,0.1,0.4,0.3,0.6c0.2,0.1,0.4,0.2,0.6,0.2c0.2,0,0.4-0.1,0.6-0.2c0.2-0.1,0.3-0.4,0.3-0.6v-2
			c0-0.2-0.1-0.4-0.3-0.6s-0.4-0.2-0.6-0.2c-0.2,0-0.4,0.1-0.6,0.2c-0.2,0.2-0.3,0.4-0.3,0.6V10.2"/>
		<path class="st1" d="M28.5,22.6v-1.9l0,0c-0.4,0.2-0.9,0.3-1.3,0.3c-0.5,0-1-0.1-1.3-0.4c-0.3-0.2-0.5-0.5-0.6-0.8
			c-0.1-0.4-0.1-0.7,0-1.1s0.3-0.7,0.6-1c0.3-0.2,0.6-0.4,0.9-0.4c0.6-0.1,1.2,0,1.8,0.3l0,0v-1.9h-0.1c-0.5-0.2-1.1-0.2-1.7-0.2
			c-0.5,0-1,0.1-1.5,0.3c-0.5,0.2-0.9,0.5-1.2,1c-1,1.3-1.1,3.2-0.1,4.5c0.5,0.6,1.2,1.1,2,1.3c0.8,0.2,1.7,0.2,2.5-0.1L28.5,22.6"
			/>
		<path class="st1" d="M30.3,19.2c0,1.1,0.5,2.1,1.4,2.8c0.9,0.7,2,0.9,3.1,0.7c1.5-0.3,2.6-1.4,2.9-2.9c0.3-1.5-0.4-2.9-1.7-3.7
			c-1.1-0.7-2.5-0.7-3.7-0.1C31.1,16.7,30.4,17.9,30.3,19.2 M32.9,17.8c0.4-0.3,0.9-0.4,1.3-0.4c0.5,0.1,0.9,0.3,1.2,0.7
			c0.3,0.4,0.4,0.9,0.4,1.3c-0.1,0.5-0.3,0.9-0.7,1.2c-0.4,0.3-0.9,0.4-1.3,0.4c-0.5-0.1-0.9-0.3-1.2-0.7c-0.3-0.4-0.4-0.9-0.4-1.3
			C32.3,18.5,32.5,18.1,32.9,17.8"/>
	</g>
</g>
<g>
	<g>
		<path class="st2" d="M56.9,15c0-4.4,2.6-6.9,6.1-6.9c3,0,5.2,1.8,5.5,4.3H67c-0.3-2-1.9-3.1-4-3.1c-2.7,0-4.6,1.9-4.6,5.7
			c0,3.5,1.9,5.5,4.5,5.5c2.2,0,3.9-1.4,4.1-3.5h1.4c-0.2,2.5-2.3,4.7-5.6,4.7C59.2,21.7,56.9,19.2,56.9,15z"/>
		<path class="st2" d="M74.5,11.8c2.6,0,4.5,1.7,4.5,5c0,3.3-1.9,5-4.5,5c-2.6,0-4.5-1.7-4.5-5C70,13.4,72,11.8,74.5,11.8z
			 M74.6,20.6c1.8,0,3.1-1.3,3.1-3.9c0-2.6-1.3-3.9-3.1-3.9s-3.1,1.3-3.1,3.9C71.4,19.3,72.8,20.6,74.6,20.6z"/>
		<path class="st2" d="M81.2,21.5V12h1.1l0.2,1.4c0.7-1.1,1.8-1.7,3-1.7c2,0,3.3,1.3,3.3,3.4v6.3h-1.4v-6.3c0-1.5-0.8-2.3-2.3-2.3
			c-1.4,0-2.6,1-2.6,2.7v5.8H81.2z"/>
		<path class="st2" d="M93.2,13.2v6.2c0,0.8,0.4,1.2,1.1,1.2c0.3,0,0.6,0,1.1-0.1v1.1c-0.5,0.1-0.8,0.2-1.3,0.2
			c-1.5,0-2.3-0.9-2.3-2.4v-6.2h-1.4V12h1.4l0.1-2.3h1.3V12h2.1v1.2H93.2z"/>
		<path class="st2" d="M96.8,14.6c0.2-1.7,1.6-2.8,3.9-2.8c2.3,0,3.7,1.3,3.7,3.2v6.5h-1.1l-0.2-1.4c-0.6,0.9-1.7,1.7-3.3,1.7
			c-2,0-3.2-1.1-3.2-2.7c0-1.7,1-2.6,3.6-3.1l2.8-0.5v-0.7c0-1.3-0.9-2-2.4-2c-1.4,0-2.3,0.7-2.4,1.7H96.8z M103.1,16.6l-2.5,0.4
			c-2,0.3-2.6,1-2.6,1.9c0,1.1,0.8,1.7,2.1,1.7c1.4,0,2.9-1.1,2.9-2.5V16.6z"/>
		<path class="st2" d="M106.9,10.1V8.4h1.6v1.7H106.9z M107,21.5V12h1.4v9.4H107z"/>
		<path class="st2" d="M111,21.5V12h1.1l0.2,1.4c0.7-1.1,1.8-1.7,3-1.7c2,0,3.3,1.3,3.3,3.4v6.3h-1.4v-6.3c0-1.5-0.8-2.3-2.3-2.3
			c-1.4,0-2.6,1-2.6,2.7v5.8H111z"/>
		<path class="st2" d="M129.3,18.8c-0.5,1.7-2,2.9-4.1,2.9c-2.6,0-4.6-1.7-4.6-5s1.9-5,4.4-5c2.5,0,4.4,1.6,4.4,5.3H122
			c0.1,2.4,1.5,3.5,3.2,3.5c1.3,0,2.3-0.7,2.6-1.8H129.3z M122.1,16h6c-0.1-2.1-1.3-3.1-3-3.1C123.5,12.8,122.3,13.9,122.1,16z"/>
		<path class="st2" d="M131.7,21.5V12h1.1l0.2,1.6c0.5-1.3,1.4-1.9,2.5-1.9c0.4,0,0.8,0.1,1,0.1v1.3c-0.3-0.1-0.7-0.2-1.1-0.2
			c-1.3,0-2.4,1.1-2.4,3.4v5H131.7z"/>
		<path class="st2" d="M148,8.4c3.1,0,4.9,1.5,4.9,4.2c0,2.6-1.8,4-5,4h-2.9v4.8h-1.4V8.4H148z M145.1,9.6v5.9h2.9
			c2.3,0,3.4-1.1,3.4-2.9c0-1.9-1.2-3-3.4-3H145.1z"/>
		<path class="st2" d="M158.8,11.8c2.6,0,4.5,1.7,4.5,5c0,3.3-1.9,5-4.5,5c-2.6,0-4.5-1.7-4.5-5C154.2,13.4,156.2,11.8,158.8,11.8z
			 M158.8,20.6c1.8,0,3.1-1.3,3.1-3.9c0-2.6-1.3-3.9-3.1-3.9s-3.1,1.3-3.1,3.9C155.6,19.3,157,20.6,158.8,20.6z"/>
		<path class="st2" d="M166.8,21.5h-1.4V8.4h1.4V21.5z"/>
		<path class="st2" d="M169.3,10.1V8.4h1.6v1.7H169.3z M169.4,21.5V12h1.4v9.4H169.4z"/>
		<path class="st2" d="M181.3,18.6c-0.3,1.8-1.8,3.2-4,3.2c-2.4,0-4.4-1.7-4.4-4.9c0-3.2,1.8-5.1,4.4-5.1c2.1,0,3.7,1.1,4,3h-1.5
			c-0.2-1.2-1.2-1.8-2.4-1.8c-1.7,0-3,1.3-3,4c0,2.5,1.3,3.7,3,3.7c1.3,0,2.3-0.8,2.5-2H181.3z"/>
		<path class="st2" d="M187.7,21.6c-0.8,2.3-1.3,3.4-2.9,3.4c-0.3,0-0.6-0.1-1.1-0.2v-1.1c0.3,0.1,0.6,0.1,0.9,0.1
			c0.8,0,1.1-0.6,1.7-2.4H186l-3.6-9.4h1.5l3,8.4l2.9-8.4h1.4L187.7,21.6z"/>
		<path class="st2" d="M204.1,21.5l-4.4-11v11h-1.4V8.4h2l4.5,11.4l4.3-11.4h1.9v13.1h-1.4V10.6l-4.2,10.9H204.1z"/>
		<path class="st2" d="M213.5,14.6c0.2-1.7,1.6-2.8,3.9-2.8c2.3,0,3.7,1.3,3.7,3.2v6.5h-1.1l-0.2-1.4c-0.6,0.9-1.7,1.7-3.3,1.7
			c-2,0-3.2-1.1-3.2-2.7c0-1.7,1-2.6,3.6-3.1l2.8-0.5v-0.7c0-1.3-0.9-2-2.4-2c-1.4,0-2.3,0.7-2.4,1.7H213.5z M219.7,16.6l-2.5,0.4
			c-2,0.3-2.6,1-2.6,1.9c0,1.1,0.8,1.7,2.1,1.7c1.4,0,2.9-1.1,2.9-2.5V16.6z"/>
		<path class="st2" d="M223.7,21.5V12h1.1l0.2,1.4c0.7-1.1,1.8-1.7,3-1.7c2,0,3.3,1.3,3.3,3.4v6.3h-1.4v-6.3c0-1.5-0.8-2.3-2.3-2.3
			c-1.4,0-2.6,1-2.6,2.7v5.8H223.7z"/>
		<path class="st2" d="M233.6,14.6c0.2-1.7,1.6-2.8,3.9-2.8c2.3,0,3.7,1.3,3.7,3.2v6.5H240l-0.2-1.4c-0.6,0.9-1.7,1.7-3.3,1.7
			c-2,0-3.2-1.1-3.2-2.7c0-1.7,1-2.6,3.6-3.1l2.8-0.5v-0.7c0-1.3-0.9-2-2.4-2c-1.4,0-2.3,0.7-2.4,1.7H233.6z M239.8,16.6l-2.5,0.4
			c-2,0.3-2.6,1-2.6,1.9c0,1.1,0.8,1.7,2.1,1.7c1.4,0,2.9-1.1,2.9-2.5V16.6z"/>
		<path class="st2" d="M245.1,22.2c0.2,1.1,1.2,1.7,2.6,1.7c1.8,0,2.9-1,2.9-2.6v-1.7c-0.6,0.9-1.7,1.5-3.2,1.5
			c-2.2,0-4.1-1.6-4.1-4.6c0-3,1.8-4.8,4.2-4.8c1.5,0,2.6,0.7,3.2,1.7l0.2-1.5h1.1v9.3c0,2.1-1.5,3.7-4.2,3.7
			c-2.4,0-3.8-1.1-4.1-2.8H245.1z M247.6,20c1.7,0,3-1.1,3-3.5c0-2.4-1.3-3.6-3.1-3.6c-1.7,0-3,1.2-3,3.6
			C244.6,18.8,245.9,20,247.6,20z"/>
		<path class="st2" d="M262.7,18.8c-0.5,1.7-2,2.9-4.1,2.9c-2.6,0-4.6-1.7-4.6-5s1.9-5,4.4-5c2.5,0,4.4,1.6,4.4,5.3h-7.4
			c0.1,2.4,1.5,3.5,3.2,3.5c1.3,0,2.3-0.7,2.6-1.8H262.7z M255.5,16h6c-0.1-2.1-1.3-3.1-3-3.1C256.9,12.8,255.7,13.9,255.5,16z"/>
		<path class="st2" d="M265.1,21.5V12h1.1l0.1,1.3c0.7-1.1,1.8-1.6,2.9-1.6c1.3,0,2.3,0.6,2.8,1.7c0.7-1.3,1.9-1.7,3.1-1.7
			c1.9,0,3.1,1.1,3.1,3.3v6.4h-1.4v-6.3c0-1.6-0.7-2.3-2-2.3c-1.5,0-2.5,1.3-2.5,2.8v5.8H271v-6.3c0-1.6-0.7-2.3-2-2.3
			c-1.4,0-2.5,1.2-2.5,2.7v5.8H265.1z"/>
		<path class="st2" d="M289,18.8c-0.5,1.7-2,2.9-4.1,2.9c-2.6,0-4.6-1.7-4.6-5s1.9-5,4.4-5c2.5,0,4.4,1.6,4.4,5.3h-7.4
			c0.1,2.4,1.5,3.5,3.2,3.5c1.3,0,2.3-0.7,2.6-1.8H289z M281.8,16h6c-0.1-2.1-1.3-3.1-3-3.1C283.2,12.8,282,13.9,281.8,16z"/>
		<path class="st2" d="M291.4,21.5V12h1.1l0.2,1.4c0.7-1.1,1.8-1.7,3-1.7c2,0,3.3,1.3,3.3,3.4v6.3h-1.4v-6.3c0-1.5-0.8-2.3-2.3-2.3
			c-1.4,0-2.6,1-2.6,2.7v5.8H291.4z"/>
		<path class="st2" d="M303.4,13.2v6.2c0,0.8,0.4,1.2,1.1,1.2c0.3,0,0.6,0,1.1-0.1v1.1c-0.5,0.1-0.8,0.2-1.3,0.2
			c-1.5,0-2.3-0.9-2.3-2.4v-6.2h-1.4V12h1.4l0.1-2.3h1.3V12h2.1v1.2H303.4z"/>
	</g>
</g>
</svg>
