<?xml version="1.0" encoding="utf-8"?>
<!-- Generator: Adobe Illustrator 19.2.1, SVG Export Plug-In . SVG Version: 6.00 Build 0)  -->
<svg version="1.0" id="Layer_1" xmlns="http://www.w3.org/2000/svg" xmlns:xlink="http://www.w3.org/1999/xlink" x="0px" y="0px"
	 viewBox="0 0 300 26" enable-background="new 0 0 300 26" xml:space="preserve">
<g>
	<path fill="#049FD9" d="M57.2,15.1c0-4.4,2.5-6.8,6-6.8c3,0,5.1,1.8,5.4,4.3h-1.4c-0.3-2-1.9-3.1-4-3.1c-2.6,0-4.5,1.9-4.5,5.6
		c0,3.5,1.9,5.5,4.5,5.5c2.2,0,3.9-1.4,4.1-3.5h1.4c-0.2,2.5-2.3,4.7-5.5,4.7C59.6,21.8,57.2,19.3,57.2,15.1z"/>
	<path fill="#049FD9" d="M74.8,11.9c2.5,0,4.5,1.6,4.5,5c0,3.3-1.9,5-4.5,5c-2.6,0-4.5-1.7-4.5-5C70.3,13.5,72.2,11.9,74.8,11.9z
		 M74.8,20.7c1.8,0,3.1-1.3,3.1-3.9c0-2.6-1.3-3.9-3.1-3.9c-1.8,0-3.1,1.3-3.1,3.9C71.6,19.3,73,20.7,74.8,20.7z"/>
	<path fill="#049FD9" d="M81.4,21.5v-9.4h1.1l0.2,1.4c0.7-1.1,1.8-1.7,3-1.7c2,0,3.3,1.2,3.3,3.4v6.2h-1.3v-6.2
		c0-1.5-0.8-2.3-2.3-2.3c-1.3,0-2.6,1-2.6,2.7v5.8H81.4z"/>
	<path fill="#049FD9" d="M93.2,13.3v6.1c0,0.8,0.4,1.2,1.1,1.2c0.3,0,0.6,0,1.1-0.1v1.1c-0.5,0.1-0.8,0.2-1.3,0.2
		c-1.5,0-2.3-0.9-2.3-2.4v-6.1h-1.4v-1.2h1.4L92,9.9h1.2v2.2h2.1v1.2H93.2z"/>
	<path fill="#049FD9" d="M97,10.2V8.5h1.5v1.7H97z M97.1,21.5v-9.4h1.4v9.4H97.1z"/>
	<path fill="#049FD9" d="M108.7,12.1l-3.4,9.4h-1.8l-3.4-9.4h1.5l2.9,8.3l2.9-8.3H108.7z"/>
	<path fill="#049FD9" d="M125.1,21.5l-1.4-3.5h-6.4l-1.4,3.5h-1.5l5.3-13h1.7l5.3,13H125.1z M117.8,16.8h5.5l-2.7-6.9L117.8,16.8z"
		/>
	<path fill="#049FD9" d="M134.9,21.5l-0.2-1.5c-0.6,1.1-1.7,1.8-3.2,1.8c-2.3,0-4.1-1.7-4.1-4.9c0-3.4,1.8-5,4.2-5
		c1.5,0,2.5,0.7,3.1,1.7v-5h1.4v13H134.9z M131.7,20.6c1.7,0,3-1.3,3-3.8c0-2.5-1.2-3.9-3-3.9c-1.7,0-3,1.2-3,3.9
		C128.8,19.4,130,20.6,131.7,20.6z"/>
	<path fill="#049FD9" d="M138.7,21.5v-9.4h1.1l0.1,1.3c0.7-1.1,1.8-1.5,2.8-1.5c1.3,0,2.3,0.6,2.8,1.7c0.7-1.2,1.9-1.7,3.1-1.7
		c1.9,0,3.1,1.1,3.1,3.3v6.4h-1.4v-6.2c0-1.6-0.7-2.3-2-2.3c-1.5,0-2.5,1.3-2.5,2.7v5.8h-1.3v-6.2c0-1.6-0.7-2.3-2-2.3
		c-1.4,0-2.5,1.2-2.5,2.7v5.8H138.7z"/>
	<path fill="#049FD9" d="M154.2,10.2V8.5h1.5v1.7H154.2z M154.3,21.5v-9.4h1.4v9.4H154.3z"/>
	<path fill="#049FD9" d="M158.3,21.5v-9.4h1.1l0.2,1.4c0.7-1.1,1.8-1.7,3-1.7c2,0,3.3,1.2,3.3,3.4v6.2h-1.3v-6.2
		c0-1.5-0.8-2.3-2.3-2.3c-1.3,0-2.6,1-2.6,2.7v5.8H158.3z"/>
	<path fill="#049FD9" d="M168.3,10.2V8.5h1.5v1.7H168.3z M168.4,21.5v-9.4h1.4v9.4H168.4z"/>
	<path fill="#049FD9" d="M175.1,17.1c-2-0.4-3.1-1.2-3.1-2.6c0-1.5,1.2-2.6,3.6-2.6c2,0,3.5,1,3.8,2.7h-1.4c-0.2-1-1.1-1.6-2.4-1.6
		c-1.5,0-2.1,0.6-2.1,1.4c0,0.9,0.5,1.3,2.4,1.7c2.3,0.5,3.6,1.2,3.6,2.9c0,1.6-1.4,2.9-3.8,2.9c-2.3,0-3.7-1.1-3.9-2.8h1.4
		c0.2,1.2,1.1,1.8,2.6,1.8c1.6,0,2.4-0.8,2.4-1.7C178,17.8,177,17.5,175.1,17.1z"/>
	<path fill="#049FD9" d="M183.2,13.3v6.1c0,0.8,0.4,1.2,1.1,1.2c0.3,0,0.6,0,1.1-0.1v1.1c-0.5,0.1-0.8,0.2-1.3,0.2
		c-1.5,0-2.3-0.9-2.3-2.4v-6.1h-1.4v-1.2h1.4l0.1-2.2h1.3v2.2h2.1v1.2H183.2z"/>
	<path fill="#049FD9" d="M187.1,21.5v-9.4h1.1l0.2,1.6c0.5-1.3,1.4-1.9,2.5-1.9c0.4,0,0.8,0.1,1,0.1v1.3c-0.3-0.1-0.7-0.2-1.1-0.2
		c-1.3,0-2.4,1.1-2.4,3.4v4.9H187.1z"/>
	<path fill="#049FD9" d="M193.1,14.6c0.2-1.7,1.6-2.8,3.8-2.8c2.3,0,3.7,1.2,3.7,3.2v6.5h-1.1l-0.2-1.4c-0.6,0.9-1.7,1.7-3.3,1.7
		c-2,0-3.2-1.1-3.2-2.7c0-1.7,1-2.6,3.6-3.1l2.8-0.5v-0.6c0-1.2-0.9-2-2.4-2c-1.4,0-2.2,0.7-2.4,1.7H193.1z M199.3,16.6l-2.4,0.4
		c-2,0.3-2.5,1-2.5,1.9c0,1.1,0.8,1.7,2.1,1.7c1.4,0,2.9-1.1,2.9-2.5V16.6z"/>
	<path fill="#049FD9" d="M204.9,13.3v6.1c0,0.8,0.4,1.2,1.1,1.2c0.3,0,0.6,0,1.1-0.1v1.1c-0.5,0.1-0.8,0.2-1.3,0.2
		c-1.5,0-2.3-0.9-2.3-2.4v-6.1h-1.4v-1.2h1.4l0.1-2.2h1.2v2.2h2.1v1.2H204.9z"/>
	<path fill="#049FD9" d="M212.7,11.9c2.5,0,4.5,1.6,4.5,5c0,3.3-1.9,5-4.5,5c-2.6,0-4.5-1.7-4.5-5C208.2,13.5,210.2,11.9,212.7,11.9
		z M212.8,20.7c1.8,0,3.1-1.3,3.1-3.9c0-2.6-1.3-3.9-3.1-3.9c-1.8,0-3.1,1.3-3.1,3.9C209.6,19.3,211,20.7,212.8,20.7z"/>
	<path fill="#049FD9" d="M219.4,21.5v-9.4h1.1l0.2,1.6c0.5-1.3,1.4-1.9,2.5-1.9c0.4,0,0.8,0.1,1,0.1v1.3c-0.3-0.1-0.7-0.2-1.1-0.2
		c-1.3,0-2.4,1.1-2.4,3.4v4.9H219.4z"/>
	<path fill="#049FD9" d="M230.7,15.1c0-4.4,2.5-6.8,6-6.8c3,0,5.1,1.8,5.4,4.3h-1.4c-0.3-2-1.9-3.1-4-3.1c-2.6,0-4.6,1.9-4.6,5.6
		c0,3.5,1.9,5.5,4.5,5.5c2.2,0,3.9-1.4,4.1-3.5h1.4c-0.2,2.5-2.3,4.7-5.5,4.7C233,21.8,230.7,19.3,230.7,15.1z"/>
	<path fill="#049FD9" d="M248.2,11.9c2.5,0,4.5,1.6,4.5,5c0,3.3-1.9,5-4.5,5c-2.6,0-4.5-1.7-4.5-5C243.7,13.5,245.7,11.9,248.2,11.9
		z M248.2,20.7c1.8,0,3.1-1.3,3.1-3.9c0-2.6-1.3-3.9-3.1-3.9c-1.8,0-3.1,1.3-3.1,3.9C245.1,19.3,246.4,20.7,248.2,20.7z"/>
	<path fill="#049FD9" d="M254.8,21.5v-9.4h1.1l0.2,1.4c0.7-1.1,1.8-1.7,3-1.7c2,0,3.3,1.2,3.3,3.4v6.2H261v-6.2
		c0-1.5-0.8-2.3-2.3-2.3c-1.3,0-2.6,1-2.6,2.7v5.8H254.8z"/>
	<path fill="#049FD9" d="M267.7,17.1c-2-0.4-3.1-1.2-3.1-2.6c0-1.5,1.2-2.6,3.6-2.6c2,0,3.5,1,3.8,2.7h-1.4c-0.2-1-1.1-1.6-2.4-1.6
		c-1.5,0-2.1,0.6-2.1,1.4c0,0.9,0.5,1.3,2.4,1.7c2.3,0.5,3.6,1.2,3.6,2.9c0,1.6-1.4,2.9-3.8,2.9c-2.3,0-3.7-1.1-3.9-2.8h1.4
		c0.2,1.2,1.1,1.8,2.6,1.8c1.6,0,2.4-0.8,2.4-1.7C270.6,17.8,269.6,17.5,267.7,17.1z"/>
	<path fill="#049FD9" d="M278.1,11.9c2.5,0,4.5,1.6,4.5,5c0,3.3-1.9,5-4.5,5c-2.6,0-4.5-1.7-4.5-5C273.6,13.5,275.6,11.9,278.1,11.9
		z M278.1,20.7c1.8,0,3.1-1.3,3.1-3.9c0-2.6-1.3-3.9-3.1-3.9s-3.1,1.3-3.1,3.9C275,19.3,276.3,20.7,278.1,20.7z"/>
	<path fill="#049FD9" d="M286,21.5h-1.3v-13h1.3V21.5z"/>
	<path fill="#049FD9" d="M296.8,18.9c-0.5,1.7-1.9,2.9-4.1,2.9c-2.6,0-4.5-1.7-4.5-5s1.9-5,4.4-5c2.5,0,4.3,1.6,4.3,5.3h-7.4
		c0.1,2.4,1.5,3.5,3.2,3.5c1.3,0,2.3-0.7,2.6-1.8H296.8z M289.6,16h5.9c-0.1-2.1-1.3-3.1-2.9-3.1C291,12.9,289.8,14,289.6,16z"/>
</g>
<g>
	<g>
		<path fill="#A0A0A0" d="M16.7,21l0,1.6l0.1,0c0.4,0.1,0.7,0.1,1.1,0.1c0.3,0,0.7,0,1,0c0.3,0,0.6-0.1,0.9-0.2
			c0.4-0.1,0.7-0.3,1-0.5c0.2-0.2,0.4-0.5,0.6-0.8c0.2-0.5,0.2-1.1,0-1.6c-0.1-0.3-0.3-0.5-0.5-0.7c-0.2-0.2-0.5-0.3-0.7-0.4
			l-1.2-0.4c-0.1-0.1-0.3-0.2-0.3-0.3c-0.1-0.1,0-0.3,0-0.4c0,0,0-0.1,0.1-0.1c0,0,0.1-0.1,0.1-0.1c0,0,0,0,0.1,0
			c0.1-0.1,0.3-0.1,0.4-0.1c0.3,0,0.5,0,0.8,0c0.3,0,0.6,0.1,0.9,0.2l0.1,0v-1.5l-0.1,0c-0.3-0.1-0.6-0.1-0.9-0.2
			c-0.4-0.1-0.8-0.1-1.2,0c-0.5,0-1,0.2-1.4,0.6c-0.3,0.2-0.5,0.5-0.6,0.8c-0.2,0.5-0.2,1,0,1.5c0.1,0.2,0.2,0.5,0.4,0.6
			c0.2,0.2,0.3,0.3,0.5,0.4c0.3,0.1,0.5,0.2,0.8,0.3c0.1,0,0.2,0.1,0.3,0.1l0.1,0.1c0,0,0,0,0,0c0.1,0.1,0.3,0.1,0.4,0.2
			c0.1,0.1,0.1,0.2,0.2,0.3c0,0.1,0,0.2,0,0.3c0,0.1-0.1,0.3-0.3,0.3c-0.1,0.1-0.3,0.1-0.5,0.1c-0.2,0-0.5,0-0.7,0
			c-0.3,0-0.6-0.1-0.9-0.1C17.1,21.1,16.9,21.1,16.7,21L16.7,21"/>
		<path fill="#A0A0A0" d="M10.2,22.6v-1.9l0,0c-0.4,0.2-0.9,0.3-1.3,0.3c-0.5,0-1-0.1-1.3-0.4c-0.3-0.2-0.5-0.5-0.6-0.8
			c-0.1-0.4-0.1-0.7,0-1.1c0.1-0.4,0.3-0.7,0.6-1c0.3-0.2,0.6-0.4,0.9-0.4c0.6-0.1,1.2,0,1.8,0.3l0,0v-1.9l-0.1,0
			c-0.5-0.2-1.1-0.2-1.7-0.2c-0.5,0-1,0.1-1.5,0.3c-0.5,0.2-0.9,0.5-1.2,1c-1,1.3-1.1,3.2-0.1,4.5c0.5,0.6,1.2,1.1,2,1.3
			c0.8,0.2,1.7,0.2,2.5-0.1L10.2,22.6"/>
		<polyline fill="#A0A0A0" points="14.4,22.7 14.4,15.8 12.6,15.8 12.6,22.7 14.4,22.7 		"/>
		<polyline fill="#A0A0A0" points="40.3,21.9 40.3,21.8 39.5,21.8 39.5,21.9 39.9,21.9 39.9,22.7 40,22.7 40,21.9 40.3,21.9 		"/>
		<polyline fill="#A0A0A0" points="40.4,22.7 40.5,22.7 40.5,22 40.5,22 40.8,22.7 40.9,22.7 41.2,21.9 41.2,22.7 41.3,22.7 
			41.3,21.8 41.1,21.8 40.8,22.5 40.6,21.8 40.4,21.8 40.4,22.7 		"/>
		<path fill="#A0A0A0" d="M1.3,10.2c0,0.2,0.1,0.4,0.3,0.6C1.7,10.9,1.9,11,2.2,11c0.2,0,0.4-0.1,0.6-0.2C2.9,10.6,3,10.4,3,10.2
			V8.2C3,8,2.9,7.8,2.8,7.7C2.6,7.5,2.4,7.4,2.2,7.4c-0.2,0-0.4,0.1-0.6,0.2C1.4,7.8,1.3,8,1.3,8.2V10.2"/>
		<path fill="#A0A0A0" d="M6.1,10.2c0,0.2,0.1,0.4,0.3,0.6C6.5,10.9,6.7,11,7,11c0.2,0,0.4-0.1,0.6-0.2c0.2-0.1,0.3-0.4,0.3-0.6V5.9
			c0-0.2-0.1-0.4-0.3-0.6C7.4,5.1,7.2,5,7,5C6.7,5,6.5,5.1,6.4,5.3C6.2,5.4,6.1,5.6,6.1,5.9V10.2"/>
		<path fill="#A0A0A0" d="M10.9,11.9c0,0.2,0.1,0.4,0.3,0.6c0.2,0.1,0.4,0.2,0.6,0.2c0.2,0,0.4-0.1,0.6-0.2c0.2-0.1,0.3-0.4,0.3-0.6
			V2.6c0-0.2-0.1-0.4-0.3-0.6c-0.2-0.2-0.4-0.2-0.6-0.2c-0.2,0-0.4,0.1-0.6,0.2c-0.2,0.2-0.3,0.4-0.3,0.6V11.9"/>
		<path fill="#A0A0A0" d="M15.7,10.2c0,0.2,0.1,0.4,0.3,0.6c0.2,0.1,0.4,0.2,0.6,0.2c0.2,0,0.4-0.1,0.6-0.2c0.2-0.1,0.3-0.4,0.3-0.6
			V5.9c0-0.2-0.1-0.4-0.3-0.6C17,5.1,16.7,5,16.5,5c-0.2,0-0.4,0.1-0.6,0.2c-0.2,0.2-0.3,0.4-0.3,0.6V10.2"/>
		<path fill="#A0A0A0" d="M20.4,10.2c0,0.2,0.1,0.4,0.3,0.6c0.2,0.1,0.4,0.2,0.6,0.2c0.2,0,0.4-0.1,0.6-0.2c0.2-0.1,0.3-0.4,0.3-0.6
			V8.2c0-0.2-0.1-0.4-0.3-0.6c-0.2-0.2-0.4-0.2-0.6-0.2s-0.4,0.1-0.6,0.2c-0.2,0.2-0.3,0.4-0.3,0.6V10.2"/>
		<path fill="#A0A0A0" d="M25.2,10.2c0,0.2,0.1,0.4,0.3,0.6c0.2,0.1,0.4,0.2,0.6,0.2c0.2,0,0.4-0.1,0.6-0.2c0.2-0.1,0.3-0.4,0.3-0.6
			V5.9c0-0.2-0.1-0.4-0.3-0.6C26.5,5.1,26.3,5,26.1,5c-0.2,0-0.4,0.1-0.6,0.2c-0.2,0.2-0.3,0.4-0.3,0.6V10.2"/>
		<path fill="#A0A0A0" d="M30,11.9c0,0.2,0.1,0.4,0.3,0.6c0.2,0.1,0.4,0.2,0.6,0.2c0.2,0,0.4-0.1,0.6-0.2c0.2-0.1,0.3-0.4,0.3-0.6
			V2.6c0-0.2-0.1-0.4-0.3-0.6c-0.2-0.2-0.4-0.2-0.6-0.2c-0.2,0-0.4,0.1-0.6,0.2C30.1,2.1,30,2.3,30,2.6V11.9"/>
		<path fill="#A0A0A0" d="M34.8,10.2c0,0.2,0.1,0.4,0.3,0.6c0.2,0.1,0.4,0.2,0.6,0.2c0.2,0,0.4-0.1,0.6-0.2c0.2-0.1,0.3-0.4,0.3-0.6
			V5.9c0-0.2-0.1-0.4-0.3-0.6C36.1,5.1,35.9,5,35.6,5c-0.2,0-0.4,0.1-0.6,0.2c-0.2,0.2-0.3,0.4-0.3,0.6V10.2"/>
		<path fill="#A0A0A0" d="M39.6,10.2c0,0.2,0.1,0.4,0.3,0.6c0.2,0.1,0.4,0.2,0.6,0.2c0.2,0,0.4-0.1,0.6-0.2c0.2-0.1,0.3-0.4,0.3-0.6
			V8.2c0-0.2-0.1-0.4-0.3-0.6c-0.2-0.2-0.4-0.2-0.6-0.2c-0.2,0-0.4,0.1-0.6,0.2c-0.2,0.2-0.3,0.4-0.3,0.6V10.2"/>
		<path fill="#A0A0A0" d="M28.5,22.6v-1.9l0,0c-0.4,0.2-0.9,0.3-1.3,0.3c-0.5,0-1-0.1-1.3-0.4c-0.3-0.2-0.5-0.5-0.6-0.8
			c-0.1-0.4-0.1-0.7,0-1.1c0.1-0.4,0.3-0.7,0.6-1c0.3-0.2,0.6-0.4,0.9-0.4c0.6-0.1,1.2,0,1.8,0.3l0,0v-1.9l-0.1,0
			c-0.5-0.2-1.1-0.2-1.7-0.2c-0.5,0-1,0.1-1.5,0.3c-0.5,0.2-0.9,0.5-1.2,1c-1,1.3-1.1,3.2-0.1,4.5c0.5,0.6,1.2,1.1,2,1.3
			c0.8,0.2,1.7,0.2,2.5-0.1L28.5,22.6"/>
		<path fill="#A0A0A0" d="M30.3,19.2c0,1.1,0.5,2.1,1.4,2.8c0.9,0.7,2,0.9,3.1,0.7c1.5-0.3,2.6-1.4,2.9-2.9c0.3-1.5-0.4-2.9-1.7-3.7
			c-1.1-0.7-2.5-0.7-3.7-0.1C31.1,16.7,30.4,17.9,30.3,19.2 M32.9,17.8c0.4-0.3,0.9-0.4,1.3-0.4c0.5,0.1,0.9,0.3,1.2,0.7
			c0.3,0.4,0.4,0.9,0.4,1.3c-0.1,0.5-0.3,0.9-0.7,1.2c-0.4,0.3-0.9,0.4-1.3,0.4c-0.5-0.1-0.9-0.3-1.2-0.7c-0.3-0.4-0.4-0.9-0.4-1.3
			C32.3,18.5,32.5,18.1,32.9,17.8"/>
	</g>
</g>
</svg>
