<?xml version="1.0" encoding="UTF-8" standalone="no"?>
<!-- Created with Inkscape (http://www.inkscape.org/) -->

<svg
   xmlns:dc="http://purl.org/dc/elements/1.1/"
   xmlns:cc="http://creativecommons.org/ns#"
   xmlns:rdf="http://www.w3.org/1999/02/22-rdf-syntax-ns#"
   xmlns:svg="http://www.w3.org/2000/svg"
   xmlns="http://www.w3.org/2000/svg"
   xmlns:sodipodi="http://sodipodi.sourceforge.net/DTD/sodipodi-0.dtd"
   xmlns:inkscape="http://www.inkscape.org/namespaces/inkscape"
   width="84"
   height="50"
   viewBox="0 0 83.999996 50.000001"
   id="svg2"
   version="1.1"
   inkscape:version="0.91 r13725"
   sodipodi:docname="cisco_logo.svg">
  <defs
     id="defs4" />
  <sodipodi:namedview
     id="base"
     pagecolor="#ffffff"
     bordercolor="#666666"
     borderopacity="1.0"
     inkscape:pageopacity="0.0"
     inkscape:pageshadow="2"
     inkscape:zoom="0.98994949"
     inkscape:cx="193.17254"
     inkscape:cy="108.36687"
     inkscape:document-units="px"
     inkscape:current-layer="layer1"
     showgrid="false"
     units="px"
     inkscape:window-width="1440"
     inkscape:window-height="793"
     inkscape:window-x="0"
     inkscape:window-y="1"
     inkscape:window-maximized="1" />
  <metadata
     id="metadata7">
    <rdf:RDF>
      <cc:Work
         rdf:about="">
        <dc:format>image/svg+xml</dc:format>
        <dc:type
           rdf:resource="http://purl.org/dc/dcmitype/StillImage" />
        <dc:title></dc:title>
      </cc:Work>
    </rdf:RDF>
  </metadata>
  <g
     inkscape:label="Layer 1"
     inkscape:groupmode="layer"
     id="layer1"
     transform="translate(0,-1002.3621)">
    <g
       id="g3442"
       transform="matrix(2,0,0,2,-0.0643452,1003.2324)">
      <g
         id="g3444">
        <path
           style="fill:#049fd9"
           inkscape:connector-curvature="0"
           class="st0"
           d="m 16.7,21.1 0,1.6 0.1,0 c 0.4,0.1 0.7,0.1 1.1,0.1 0.3,0 0.7,0 1,0 0.3,0 0.6,-0.1 0.9,-0.2 0.4,-0.1 0.7,-0.3 1,-0.5 0.2,-0.2 0.4,-0.5 0.6,-0.8 0.2,-0.5 0.2,-1.1 0,-1.6 C 21.3,19.4 21.1,19.2 20.9,19 20.7,18.8 20.4,18.7 20.2,18.6 L 19,18.2 c -0.1,-0.1 -0.3,-0.2 -0.3,-0.3 -0.1,-0.1 0,-0.3 0,-0.4 0,0 0,-0.1 0.1,-0.1 0,0 0.1,-0.1 0.1,-0.1 0,0 0,0 0.1,0 0.1,-0.1 0.3,-0.1 0.4,-0.1 0.3,0 0.5,0 0.8,0 0.3,0 0.6,0.1 0.9,0.2 l 0.1,0 0,-1.5 -0.1,0 c -0.3,-0.1 -0.6,-0.1 -0.9,-0.2 -0.4,-0.1 -0.8,-0.1 -1.2,0 -0.5,0 -1,0.2 -1.4,0.6 -0.3,0.2 -0.5,0.5 -0.6,0.8 -0.2,0.5 -0.2,1 0,1.5 0.1,0.2 0.2,0.5 0.4,0.6 0.2,0.2 0.3,0.3 0.5,0.4 0.3,0.1 0.5,0.2 0.8,0.3 0.1,0 0.2,0.1 0.3,0.1 l 0.1,0.1 c 0,0 0,0 0,0 0.1,0.1 0.3,0.1 0.4,0.2 0.1,0.1 0.1,0.2 0.2,0.3 0,0.1 0,0.2 0,0.3 0,0.1 -0.1,0.3 -0.3,0.3 -0.1,0.1 -0.3,0.1 -0.5,0.1 -0.2,0 -0.5,0 -0.7,0 -0.3,0 -0.6,-0.1 -0.9,-0.1 -0.2,0 -0.4,0 -0.6,-0.1 l 0,0"
           id="path3446" />
        <path
           style="fill:#049fd9"
           inkscape:connector-curvature="0"
           class="st0"
           d="m 10.2,22.6 0,-1.9 0,0 C 9.8,20.9 9.3,21 8.9,21 8.4,21 7.9,20.9 7.6,20.6 7.3,20.4 7.1,20.1 7,19.8 6.9,19.4 6.9,19.1 7,18.7 c 0.1,-0.4 0.3,-0.7 0.6,-1 0.3,-0.2 0.6,-0.4 0.9,-0.4 0.6,-0.1 1.2,0 1.8,0.3 l 0,0 0,-1.9 -0.1,0 C 9.7,15.5 9.1,15.5 8.5,15.5 c -0.5,0 -1,0.1 -1.5,0.3 -0.5,0.2 -0.9,0.5 -1.2,1 -1,1.3 -1.1,3.2 -0.1,4.5 0.5,0.6 1.2,1.1 2,1.3 0.8,0.2 1.7,0.2 2.5,-0.1 l 0,0.1"
           id="path3448" />
        <polyline
           style="fill:#049fd9"
           class="st0"
           points="14.3,22.8 14.3,15.8 12.6,15.8 12.6,22.8 14.3,22.8    "
           id="polyline3450" />
        <polyline
           style="fill:#049fd9"
           class="st0"
           points="40.3,22 40.3,21.9 39.5,21.9 39.5,22 39.8,22 39.8,22.8 40,22.8 40,22 40.3,22    "
           id="polyline3452" />
        <polyline
           style="fill:#049fd9"
           class="st0"
           points="40.3,22.8 40.5,22.8 40.5,22 40.5,22 40.7,22.8 40.9,22.8 41.2,22 41.2,22.8 41.3,22.8 41.3,21.9      41.1,21.9 40.8,22.6 40.5,21.9 40.3,21.9 40.3,22.8    "
           id="polyline3454" />
        <path
           style="fill:#049fd9"
           inkscape:connector-curvature="0"
           class="st0"
           d="m 1.3,10.2 c 0,0.2 0.1,0.4 0.3,0.6 C 1.7,11 1.9,11 2.1,11 2.3,11 2.5,10.9 2.7,10.8 2.9,10.7 3,10.5 3,10.2 L 3,8.3 C 3,8.1 2.9,7.9 2.7,7.7 2.6,7.6 2.4,7.5 2.1,7.5 1.9,7.5 1.7,7.6 1.5,7.7 1.4,7.9 1.3,8.1 1.3,8.3 l 0,1.9"
           id="path3456" />
        <path
           style="fill:#049fd9"
           inkscape:connector-curvature="0"
           class="st0"
           d="m 6.1,10.2 c 0,0.2 0.1,0.4 0.3,0.6 0.1,0.2 0.3,0.2 0.5,0.2 0.2,0 0.4,-0.1 0.6,-0.2 0.2,-0.1 0.3,-0.4 0.3,-0.6 l 0,-4.3 C 7.8,5.7 7.7,5.5 7.5,5.3 7.4,5.2 7.2,5.1 6.9,5.1 6.7,5.1 6.5,5.2 6.3,5.3 6.2,5.5 6.1,5.7 6.1,5.9 l 0,4.3"
           id="path3458" />
        <path
           style="fill:#049fd9"
           inkscape:connector-curvature="0"
           class="st0"
           d="m 10.8,12 c 0,0.2 0.1,0.4 0.3,0.6 0.2,0.1 0.4,0.2 0.6,0.2 0.2,0 0.4,-0.1 0.6,-0.2 0.2,-0.1 0.3,-0.4 0.3,-0.6 l 0,-9.4 C 12.6,2.4 12.5,2.2 12.3,2 12.1,1.8 11.9,1.8 11.7,1.8 11.5,1.8 11.3,1.9 11.1,2 10.9,2.2 10.8,2.4 10.8,2.6 l 0,9.4"
           id="path3460" />
        <path
           style="fill:#049fd9"
           inkscape:connector-curvature="0"
           class="st0"
           d="m 15.6,10.2 c 0,0.2 0.1,0.4 0.3,0.6 0.2,0.1 0.4,0.2 0.6,0.2 0.2,0 0.4,-0.1 0.6,-0.2 0.2,-0.1 0.3,-0.4 0.3,-0.6 l 0,-4.3 C 17.4,5.7 17.3,5.5 17.1,5.3 16.9,5.1 16.7,5.1 16.5,5.1 c -0.2,0 -0.4,0.1 -0.6,0.2 -0.2,0.2 -0.3,0.4 -0.3,0.6 l 0,4.3"
           id="path3462" />
        <path
           style="fill:#049fd9"
           inkscape:connector-curvature="0"
           class="st0"
           d="m 20.4,10.2 c 0,0.2 0.1,0.4 0.3,0.6 0.2,0.1 0.4,0.2 0.6,0.2 0.2,0 0.4,-0.1 0.6,-0.2 0.2,-0.1 0.3,-0.4 0.3,-0.6 l 0,-1.9 C 22.2,8.1 22.1,7.9 21.9,7.7 21.7,7.5 21.5,7.5 21.3,7.5 c -0.2,0 -0.4,0.1 -0.6,0.2 -0.2,0.2 -0.3,0.4 -0.3,0.6 l 0,1.9"
           id="path3464" />
        <path
           style="fill:#049fd9"
           inkscape:connector-curvature="0"
           class="st0"
           d="m 25.2,10.2 c 0,0.2 0.1,0.4 0.3,0.6 0.2,0.1 0.4,0.2 0.6,0.2 0.2,0 0.4,-0.1 0.6,-0.2 0.2,-0.1 0.3,-0.4 0.3,-0.6 L 27,5.9 C 27,5.7 26.9,5.5 26.7,5.3 26.5,5.1 26.3,5.1 26.1,5.1 c -0.2,0 -0.4,0.1 -0.6,0.2 -0.2,0.2 -0.3,0.4 -0.3,0.6 l 0,4.3"
           id="path3466" />
        <path
           style="fill:#049fd9"
           inkscape:connector-curvature="0"
           class="st0"
           d="m 30,12 c 0,0.2 0.1,0.4 0.3,0.6 0.2,0.1 0.4,0.2 0.6,0.2 0.2,0 0.4,-0.1 0.6,-0.2 0.2,-0.1 0.3,-0.4 0.3,-0.6 l 0,-9.4 C 31.8,2.4 31.7,2.2 31.5,2 31.3,1.8 31.1,1.8 30.9,1.8 30.7,1.8 30.5,1.9 30.3,2 30.1,2.2 30,2.4 30,2.6 l 0,9.4"
           id="path3468" />
        <path
           style="fill:#049fd9"
           inkscape:connector-curvature="0"
           class="st0"
           d="m 34.8,10.2 c 0,0.2 0.1,0.4 0.3,0.6 0.2,0.1 0.4,0.2 0.6,0.2 0.2,0 0.4,-0.1 0.6,-0.2 0.2,-0.1 0.3,-0.4 0.3,-0.6 l 0,-4.3 C 36.6,5.7 36.5,5.5 36.3,5.3 36.1,5.1 35.9,5.1 35.7,5.1 c -0.2,0 -0.4,0.1 -0.6,0.2 -0.2,0.2 -0.3,0.4 -0.3,0.6 l 0,4.3"
           id="path3470" />
        <path
           style="fill:#049fd9"
           inkscape:connector-curvature="0"
           class="st0"
           d="m 39.5,10.2 c 0,0.2 0.1,0.4 0.3,0.6 0.2,0.2 0.4,0.2 0.6,0.2 0.2,0 0.4,-0.1 0.6,-0.2 0.2,-0.1 0.3,-0.4 0.3,-0.6 l 0,-1.9 C 41.3,8.1 41.2,7.9 41,7.7 40.8,7.5 40.6,7.5 40.4,7.5 40.2,7.5 40,7.6 39.8,7.7 39.6,7.9 39.5,8.1 39.5,8.3 l 0,1.9"
           id="path3472" />
        <path
           style="fill:#049fd9"
           inkscape:connector-curvature="0"
           class="st0"
           d="m 28.5,22.6 0,-1.9 0,0 c -0.4,0.2 -0.9,0.3 -1.3,0.3 -0.5,0 -1,-0.1 -1.3,-0.4 -0.3,-0.2 -0.5,-0.5 -0.6,-0.8 -0.1,-0.4 -0.1,-0.7 0,-1.1 0.1,-0.4 0.3,-0.7 0.6,-1 0.3,-0.2 0.6,-0.4 0.9,-0.4 0.6,-0.1 1.2,0 1.8,0.3 l 0,0 0,-1.9 -0.1,0 c -0.5,-0.2 -1.1,-0.2 -1.7,-0.2 -0.5,0 -1,0.1 -1.5,0.3 -0.5,0.2 -0.9,0.5 -1.2,1 -1,1.3 -1.1,3.2 -0.1,4.5 0.5,0.6 1.2,1.1 2,1.3 0.8,0.2 1.7,0.2 2.5,-0.1 l 0,0.1"
           id="path3474" />
        <path
           style="fill:#049fd9"
           inkscape:connector-curvature="0"
           class="st0"
           d="m 30.3,19.3 c 0,1.1 0.5,2.1 1.4,2.8 0.9,0.7 2,0.9 3.1,0.7 1.5,-0.3 2.6,-1.4 2.9,-2.9 C 38,18.4 37.3,17 36,16.2 c -1.1,-0.7 -2.5,-0.7 -3.7,-0.1 -1.2,0.7 -1.9,1.9 -2,3.2 m 2.6,-1.4 c 0.4,-0.3 0.9,-0.4 1.3,-0.4 0.5,0.1 0.9,0.3 1.2,0.7 0.3,0.4 0.4,0.9 0.4,1.3 -0.1,0.5 -0.3,0.9 -0.7,1.2 -0.4,0.3 -0.9,0.4 -1.3,0.4 -0.5,-0.1 -0.9,-0.3 -1.2,-0.7 -0.3,-0.4 -0.4,-0.9 -0.4,-1.3 0,-0.5 0.3,-0.9 0.7,-1.2"
           id="path3476" />
      </g>
    </g>
  </g>
  <style
     id="style3430"
     type="text/css">
	.st0{fill:#049FD9;}
	.st1{fill:#A0A0A0;}
	.st2{opacity:0.8;}
	.st3{font-family:'CiscoSansLight';}
	.st4{font-size:18px;}
</style>
</svg>
