<?xml version="1.0" encoding="utf-8"?>
<!-- Generator: Adobe Illustrator 19.2.1, SVG Export Plug-In . SVG Version: 6.00 Build 0)  -->
<svg version="1.1" id="Login" xmlns="http://www.w3.org/2000/svg" xmlns:xlink="http://www.w3.org/1999/xlink" x="0px" y="0px"
	 viewBox="0 0 326 58" style="enable-background:new 0 0 326 58;" xml:space="preserve">
<style type="text/css">
	.st0{fill:#9F9E9E;}
	.st1{fill:#049FD9;}
	.st2{fill:#A0A0A0;}
</style>
<g>
	<path class="st0" d="M158.4,21.2l0,1.6l0.1,0c0.4,0.1,0.7,0.1,1.1,0.1c0.3,0,0.7,0,1,0c0.3,0,0.6-0.1,0.9-0.2
		c0.4-0.1,0.7-0.3,1-0.5c0.2-0.2,0.4-0.5,0.6-0.8c0.2-0.5,0.2-1.1,0-1.6c-0.1-0.3-0.3-0.5-0.5-0.7c-0.2-0.2-0.5-0.3-0.7-0.4
		l-1.2-0.4c-0.1-0.1-0.3-0.2-0.3-0.3c-0.1-0.1,0-0.3,0-0.4c0,0,0-0.1,0.1-0.1c0,0,0.1-0.1,0.1-0.1c0,0,0,0,0.1,0
		c0.1-0.1,0.3-0.1,0.4-0.1c0.3,0,0.5,0,0.8,0c0.3,0,0.6,0.1,0.9,0.2l0.1,0v-1.5l-0.1,0c-0.3-0.1-0.6-0.1-0.9-0.2
		c-0.4-0.1-0.8-0.1-1.2,0c-0.5,0-1,0.2-1.4,0.5c-0.3,0.2-0.5,0.5-0.6,0.8c-0.2,0.5-0.2,1,0,1.5c0.1,0.2,0.2,0.5,0.4,0.6
		c0.2,0.2,0.3,0.3,0.5,0.4c0.3,0.1,0.5,0.2,0.8,0.3c0.1,0,0.2,0.1,0.3,0.1l0.1,0.1c0,0,0,0,0,0c0.1,0.1,0.3,0.1,0.4,0.2
		c0.1,0.1,0.1,0.2,0.2,0.3c0,0.1,0,0.2,0,0.3c0,0.1-0.1,0.3-0.3,0.3c-0.1,0.1-0.3,0.1-0.5,0.1c-0.2,0-0.5,0-0.7,0
		c-0.3,0-0.6-0.1-0.9-0.1C158.8,21.3,158.7,21.3,158.4,21.2L158.4,21.2"/>
	<path class="st0" d="M151.9,22.8v-1.8l0,0c-0.4,0.2-0.9,0.3-1.3,0.3c-0.5,0-1-0.1-1.3-0.4c-0.3-0.2-0.5-0.5-0.6-0.8
		c-0.1-0.4-0.1-0.7,0-1.1c0.1-0.4,0.3-0.7,0.6-0.9c0.3-0.2,0.6-0.4,0.9-0.4c0.6-0.1,1.2,0,1.8,0.3l0,0v-1.9l-0.1,0
		c-0.5-0.2-1.1-0.2-1.7-0.2c-0.5,0-1,0.1-1.5,0.3c-0.5,0.2-0.9,0.5-1.2,0.9c-1,1.3-1.1,3.2-0.1,4.5c0.5,0.6,1.2,1.1,2,1.3
		c0.8,0.2,1.7,0.2,2.5-0.1L151.9,22.8"/>
	<polyline class="st0" points="156.1,22.9 156.1,16 154.3,16 154.3,22.9 156.1,22.9 	"/>
	<polyline class="st0" points="182,22.1 182,22 181.3,22 181.3,22.1 181.6,22.1 181.6,22.9 181.7,22.9 181.7,22.1 182,22.1 	"/>
	<polyline class="st0" points="182.1,22.9 182.2,22.9 182.2,22.2 182.2,22.2 182.5,22.9 182.6,22.9 182.9,22.1 182.9,22.9 183,22.9 
		183,22 182.8,22 182.5,22.7 182.3,22 182.1,22 182.1,22.9 	"/>
	<path class="st0" d="M143,10.4c0,0.2,0.1,0.4,0.3,0.6c0.2,0.1,0.4,0.2,0.6,0.2c0.2,0,0.4-0.1,0.6-0.2c0.2-0.1,0.3-0.4,0.3-0.6V8.5
		c0-0.2-0.1-0.4-0.3-0.6c-0.2-0.2-0.4-0.2-0.6-0.2c-0.2,0-0.4,0.1-0.6,0.2c-0.2,0.2-0.3,0.4-0.3,0.6V10.4"/>
	<path class="st0" d="M147.8,10.4c0,0.2,0.1,0.4,0.3,0.6c0.2,0.1,0.4,0.2,0.6,0.2c0.2,0,0.4-0.1,0.6-0.2c0.2-0.1,0.3-0.4,0.3-0.6
		V6.1c0-0.2-0.1-0.4-0.3-0.6c-0.2-0.2-0.4-0.2-0.6-0.2c-0.2,0-0.4,0.1-0.6,0.2c-0.2,0.2-0.3,0.4-0.3,0.6V10.4"/>
	<path class="st0" d="M152.6,12.1c0,0.2,0.1,0.4,0.3,0.6c0.2,0.1,0.4,0.2,0.6,0.2c0.2,0,0.4-0.1,0.6-0.2c0.2-0.1,0.3-0.4,0.3-0.6
		V2.9c0-0.2-0.1-0.4-0.3-0.6c-0.2-0.2-0.4-0.2-0.6-0.2c-0.2,0-0.4,0.1-0.6,0.2c-0.2,0.2-0.3,0.4-0.3,0.6V12.1"/>
	<path class="st0" d="M157.4,10.4c0,0.2,0.1,0.4,0.3,0.6c0.2,0.1,0.4,0.2,0.6,0.2c0.2,0,0.4-0.1,0.6-0.2c0.2-0.1,0.3-0.4,0.3-0.6
		V6.1c0-0.2-0.1-0.4-0.3-0.6c-0.2-0.2-0.4-0.2-0.6-0.2c-0.2,0-0.4,0.1-0.6,0.2c-0.2,0.2-0.3,0.4-0.3,0.6V10.4"/>
	<path class="st0" d="M162.1,10.4c0,0.2,0.1,0.4,0.3,0.6c0.2,0.1,0.4,0.2,0.6,0.2s0.4-0.1,0.6-0.2c0.2-0.1,0.3-0.4,0.3-0.6V8.5
		c0-0.2-0.1-0.4-0.3-0.6c-0.2-0.2-0.4-0.2-0.6-0.2c-0.2,0-0.4,0.1-0.6,0.2c-0.2,0.2-0.3,0.4-0.3,0.6V10.4"/>
	<path class="st0" d="M166.9,10.4c0,0.2,0.1,0.4,0.3,0.6c0.2,0.1,0.4,0.2,0.6,0.2c0.2,0,0.4-0.1,0.6-0.2c0.2-0.1,0.3-0.4,0.3-0.6
		V6.1c0-0.2-0.1-0.4-0.3-0.6c-0.2-0.2-0.4-0.2-0.6-0.2c-0.2,0-0.4,0.1-0.6,0.2c-0.2,0.2-0.3,0.4-0.3,0.6V10.4"/>
	<path class="st0" d="M171.7,12.1c0,0.2,0.1,0.4,0.3,0.6c0.2,0.1,0.4,0.2,0.6,0.2s0.4-0.1,0.6-0.2c0.2-0.1,0.3-0.4,0.3-0.6V2.9
		c0-0.2-0.1-0.4-0.3-0.6C173,2.1,172.8,2,172.6,2c-0.2,0-0.4,0.1-0.6,0.2c-0.2,0.2-0.3,0.4-0.3,0.6V12.1"/>
	<path class="st0" d="M176.5,10.4c0,0.2,0.1,0.4,0.3,0.6c0.2,0.1,0.4,0.2,0.6,0.2s0.4-0.1,0.6-0.2c0.2-0.1,0.3-0.4,0.3-0.6V6.1
		c0-0.2-0.1-0.4-0.3-0.6c-0.2-0.2-0.4-0.2-0.6-0.2c-0.2,0-0.4,0.1-0.6,0.2c-0.2,0.2-0.3,0.4-0.3,0.6V10.4"/>
	<path class="st0" d="M181.3,10.4c0,0.2,0.1,0.4,0.3,0.6c0.2,0.1,0.4,0.2,0.6,0.2c0.2,0,0.4-0.1,0.6-0.2c0.2-0.1,0.3-0.4,0.3-0.6
		V8.5c0-0.2-0.1-0.4-0.3-0.6c-0.2-0.2-0.4-0.2-0.6-0.2c-0.2,0-0.4,0.1-0.6,0.2c-0.2,0.2-0.3,0.4-0.3,0.6V10.4"/>
	<path class="st0" d="M170.2,22.8v-1.8l0,0c-0.4,0.2-0.9,0.3-1.3,0.3c-0.5,0-1-0.1-1.3-0.4c-0.3-0.2-0.5-0.5-0.6-0.8
		c-0.1-0.4-0.1-0.7,0-1.1c0.1-0.4,0.3-0.7,0.6-0.9c0.3-0.2,0.6-0.4,0.9-0.4c0.6-0.1,1.2,0,1.8,0.3l0,0v-1.9l-0.1,0
		c-0.5-0.2-1.1-0.2-1.7-0.2c-0.5,0-1,0.1-1.5,0.3c-0.5,0.2-0.9,0.5-1.2,0.9c-1,1.3-1.1,3.2-0.1,4.5c0.5,0.6,1.2,1.1,2,1.3
		c0.8,0.2,1.7,0.2,2.5-0.1L170.2,22.8"/>
	<path class="st0" d="M172.1,19.4c0,1.1,0.5,2.1,1.4,2.8c0.9,0.7,2,0.9,3.1,0.7c1.5-0.3,2.6-1.4,2.9-2.9c0.3-1.5-0.4-2.9-1.7-3.7
		c-1.1-0.7-2.5-0.7-3.7-0.1C172.8,16.9,172.1,18.1,172.1,19.4 M174.6,18c0.4-0.3,0.9-0.4,1.3-0.4c0.5,0.1,0.9,0.3,1.2,0.7
		c0.3,0.4,0.4,0.9,0.4,1.3s-0.3,0.9-0.7,1.2c-0.4,0.3-0.9,0.4-1.3,0.4c-0.5-0.1-0.9-0.3-1.2-0.7c-0.3-0.4-0.4-0.9-0.4-1.3
		C174,18.8,174.2,18.3,174.6,18"/>
</g>
<g>
	<path class="st1" d="M1.7,46.8c0-5.9,3.4-9.2,8.1-9.2c4,0,6.9,2.4,7.3,5.8h-1.9c-0.4-2.7-2.6-4.2-5.4-4.2c-3.5,0-6.1,2.6-6.1,7.5
		c0,4.7,2.6,7.4,6.1,7.4c3,0,5.2-1.9,5.5-4.7h1.9c-0.3,3.4-3.1,6.3-7.4,6.3C4.9,55.8,1.7,52.5,1.7,46.8z"/>
	<path class="st1" d="M25.4,42.5c3.4,0,6.1,2.2,6.1,6.7c0,4.4-2.6,6.7-6.1,6.7s-6.1-2.3-6.1-6.7C19.3,44.7,21.9,42.5,25.4,42.5z
		 M25.4,54.4c2.4,0,4.2-1.7,4.2-5.2s-1.7-5.2-4.2-5.2c-2.4,0-4.2,1.7-4.2,5.2C21.1,52.5,22.9,54.4,25.4,54.4z"/>
	<path class="st1" d="M34.3,55.4V42.8h1.5l0.3,1.9c0.9-1.5,2.4-2.3,4-2.3c2.7,0,4.4,1.6,4.4,4.6v8.3h-1.7V47c0-2-1.1-3.1-3.1-3.1
		c-1.7,0-3.5,1.3-3.5,3.6v7.8h-1.9V55.4z"/>
	<path class="st1" d="M50.1,44.4v8.2c0,1.1,0.5,1.6,1.5,1.6c0.4,0,0.8,0,1.5-0.1v1.5c-0.7,0.1-1.1,0.3-1.7,0.3c-2,0-3.1-1.2-3.1-3.2
		v-8.2h-1.9v-1.6h1.9l0.3-3h1.6v3H53v1.6C53,44.4,50.1,44.4,50.1,44.4z"/>
	<path class="st1" d="M55.2,40.2v-2.3h2v2.3H55.2z M55.4,55.4V42.8h1.9v12.7H55.4z"/>
	<path class="st1" d="M71,42.8l-4.6,12.7H64l-4.6-12.7h2L65.3,54l3.9-11.2C69.2,42.8,71,42.8,71,42.8z"/>
	<path class="st1" d="M93.1,55.4l-1.9-4.7h-8.6l-1.9,4.7h-2l7.1-17.5h2.3l7.1,17.5H93.1z M83.2,49.1h7.4L87,39.8L83.2,49.1z"/>
	<path class="st1" d="M106.3,55.4l-0.3-2c-0.8,1.5-2.3,2.4-4.3,2.4c-3.1,0-5.5-2.3-5.5-6.6c0-4.6,2.4-6.7,5.7-6.7
		c2,0,3.4,0.9,4.2,2.3v-6.7h1.9v17.5h-1.6V55.4z M102,54.2c2.3,0,4-1.7,4-5.1s-1.6-5.2-4-5.2c-2.3,0-4,1.6-4,5.2
		C98.1,52.6,99.7,54.2,102,54.2z"/>
	<path class="st1" d="M111.4,55.4V42.8h1.5l0.1,1.7c0.9-1.5,2.4-2,3.8-2c1.7,0,3.1,0.8,3.8,2.3c0.9-1.6,2.6-2.3,4.2-2.3
		c2.6,0,4.2,1.5,4.2,4.4v8.6H127v-8.3c0-2.2-0.9-3.1-2.7-3.1c-2,0-3.4,1.7-3.4,3.6v7.8h-1.7v-8.3c0-2.2-0.9-3.1-2.7-3.1
		c-1.9,0-3.4,1.6-3.4,3.6v7.8h-1.7V55.4z"/>
	<path class="st1" d="M132.2,40.2v-2.3h2v2.3H132.2z M132.4,55.4V42.8h1.9v12.7H132.4z"/>
	<path class="st1" d="M137.8,55.4V42.8h1.5l0.3,1.9c0.9-1.5,2.4-2.3,4-2.3c2.7,0,4.4,1.6,4.4,4.6v8.3h-1.7V47c0-2-1.1-3.1-3.1-3.1
		c-1.7,0-3.5,1.3-3.5,3.6v7.8h-1.9V55.4z"/>
	<path class="st1" d="M151.2,40.2v-2.3h2v2.3H151.2z M151.4,55.4V42.8h1.9v12.7H151.4z"/>
	<path class="st1" d="M160.4,49.5c-2.7-0.5-4.2-1.6-4.2-3.5c0-2,1.6-3.5,4.8-3.5c2.7,0,4.7,1.3,5.1,3.6h-1.9
		c-0.3-1.3-1.5-2.2-3.2-2.2c-2,0-2.8,0.8-2.8,1.9c0,1.2,0.7,1.7,3.2,2.3c3.1,0.7,4.8,1.6,4.8,3.9c0,2.2-1.9,3.9-5.1,3.9
		c-3.1,0-5-1.5-5.2-3.8h1.9c0.3,1.6,1.5,2.4,3.5,2.4c2.2,0,3.2-1.1,3.2-2.3C164.3,50.5,162.9,50.1,160.4,49.5z"/>
	<path class="st1" d="M171.3,44.4v8.2c0,1.1,0.5,1.6,1.5,1.6c0.4,0,0.8,0,1.5-0.1v1.5c-0.7,0.1-1.1,0.3-1.7,0.3
		c-2,0-3.1-1.2-3.1-3.2v-8.2h-1.9v-1.6h1.9l0.1-3h1.7v3h2.8v1.6C174.1,44.4,171.3,44.4,171.3,44.4z"/>
	<path class="st1" d="M176.5,55.4V42.8h1.5l0.3,2.2c0.7-1.7,1.9-2.6,3.4-2.6c0.5,0,1.1,0.1,1.3,0.1v1.7c-0.4-0.1-0.9-0.3-1.5-0.3
		c-1.7,0-3.2,1.5-3.2,4.6v6.6h-1.7V55.4z"/>
	<path class="st1" d="M184.6,46.1c0.3-2.3,2.2-3.8,5.1-3.8c3.1,0,5,1.6,5,4.3v8.7h-1.5l-0.3-1.9c-0.8,1.2-2.3,2.3-4.4,2.3
		c-2.7,0-4.3-1.5-4.3-3.6c0-2.3,1.3-3.5,4.8-4.2l3.8-0.7v-0.8c0-1.6-1.2-2.7-3.2-2.7c-1.9,0-3,0.9-3.2,2.3
		C186.4,46.1,184.6,46.1,184.6,46.1z M192.9,48.8l-3.2,0.5c-2.7,0.4-3.4,1.3-3.4,2.6c0,1.5,1.1,2.3,2.8,2.3c1.9,0,3.9-1.5,3.9-3.4
		v-2H192.9z"/>
	<path class="st1" d="M200.5,44.4v8.2c0,1.1,0.5,1.6,1.5,1.6c0.4,0,0.8,0,1.5-0.1v1.5c-0.7,0.1-1.1,0.3-1.7,0.3
		c-2,0-3.1-1.2-3.1-3.2v-8.2h-1.9v-1.6h1.9l0.1-3h1.6v3h2.8v1.6C203.2,44.4,200.5,44.4,200.5,44.4z"/>
	<path class="st1" d="M211,42.5c3.4,0,6.1,2.2,6.1,6.7c0,4.4-2.6,6.7-6.1,6.7s-6.1-2.3-6.1-6.7C204.9,44.7,207.6,42.5,211,42.5z
		 M211.1,54.4c2.4,0,4.2-1.7,4.2-5.2s-1.7-5.2-4.2-5.2c-2.4,0-4.2,1.7-4.2,5.2C206.8,52.5,208.7,54.4,211.1,54.4z"/>
	<path class="st1" d="M220,55.4V42.8h1.5l0.3,2.2c0.7-1.7,1.9-2.6,3.4-2.6c0.5,0,1.1,0.1,1.3,0.1v1.7c-0.4-0.1-0.9-0.3-1.5-0.3
		c-1.7,0-3.2,1.5-3.2,4.6v6.6H220V55.4z"/>
	<path class="st1" d="M235.2,46.8c0-5.9,3.4-9.2,8.1-9.2c4,0,6.9,2.4,7.3,5.8h-1.9c-0.4-2.7-2.6-4.2-5.4-4.2c-3.5,0-6.2,2.6-6.2,7.5
		c0,4.7,2.6,7.4,6.1,7.4c3,0,5.2-1.9,5.5-4.7h1.9c-0.3,3.4-3.1,6.3-7.4,6.3C238.3,55.8,235.2,52.5,235.2,46.8z"/>
	<path class="st1" d="M258.8,42.5c3.4,0,6.1,2.2,6.1,6.7c0,4.4-2.6,6.7-6.1,6.7c-3.5,0-6.1-2.3-6.1-6.7
		C252.7,44.7,255.4,42.5,258.8,42.5z M258.8,54.4c2.4,0,4.2-1.7,4.2-5.2s-1.7-5.2-4.2-5.2s-4.2,1.7-4.2,5.2
		C254.6,52.5,256.3,54.4,258.8,54.4z"/>
	<path class="st1" d="M267.7,55.4V42.8h1.5l0.3,1.9c0.9-1.5,2.4-2.3,4-2.3c2.7,0,4.4,1.6,4.4,4.6v8.3H276V47c0-2-1.1-3.1-3.1-3.1
		c-1.7,0-3.5,1.3-3.5,3.6v7.8h-1.7V55.4z"/>
	<path class="st1" d="M285,49.5c-2.7-0.5-4.2-1.6-4.2-3.5c0-2,1.6-3.5,4.8-3.5c2.7,0,4.7,1.3,5.1,3.6h-1.9c-0.3-1.3-1.5-2.2-3.2-2.2
		c-2,0-2.8,0.8-2.8,1.9c0,1.2,0.7,1.7,3.2,2.3c3.1,0.7,4.8,1.6,4.8,3.9c0,2.2-1.9,3.9-5.1,3.9c-3.1,0-5-1.5-5.2-3.8h1.9
		c0.3,1.6,1.5,2.4,3.5,2.4c2.2,0,3.2-1.1,3.2-2.3C288.9,50.5,287.6,50.1,285,49.5z"/>
	<path class="st1" d="M299,42.5c3.4,0,6.1,2.2,6.1,6.7c0,4.4-2.6,6.7-6.1,6.7c-3.5,0-6.1-2.3-6.1-6.7C293,44.7,295.7,42.5,299,42.5z
		 M299,54.4c2.4,0,4.2-1.7,4.2-5.2s-1.7-5.2-4.2-5.2c-2.4,0-4.2,1.7-4.2,5.2C294.8,52.5,296.6,54.4,299,54.4z"/>
	<path class="st1" d="M309.7,55.4h-1.7V37.9h1.7V55.4z"/>
	<path class="st1" d="M324.2,51.9c-0.7,2.3-2.6,3.9-5.5,3.9c-3.5,0-6.1-2.3-6.1-6.7s2.6-6.7,5.9-6.7c3.4,0,5.8,2.2,5.8,7.1h-10
		c0.1,3.2,2,4.7,4.3,4.7c1.7,0,3.1-0.9,3.5-2.4h2V51.9z M314.5,48h7.9c-0.1-2.8-1.7-4.2-3.9-4.2C316.4,43.9,314.8,45.3,314.5,48z"/>
</g>
</svg>
