<?xml version="1.0" encoding="utf-8"?>
<!-- Generator: Adobe Illustrator 19.2.1, SVG Export Plug-In . SVG Version: 6.00 Build 0)  -->
<svg version="1.1" id="Login" xmlns="http://www.w3.org/2000/svg" xmlns:xlink="http://www.w3.org/1999/xlink" x="0px" y="0px"
	 viewBox="0 0 334 64" style="enable-background:new 0 0 334 64;" xml:space="preserve">
<style type="text/css">
	.st0{fill:#9F9E9E;}
	.st1{fill:#A0A0A0;}
	.st2{fill:#049FD9;}
</style>
<g>
	<path class="st0" d="M162.4,20.2l0,1.6l0.1,0c0.4,0.1,0.7,0.1,1.1,0.1c0.3,0,0.7,0,1,0c0.3,0,0.6-0.1,0.9-0.2
		c0.4-0.1,0.7-0.3,1-0.5c0.2-0.2,0.4-0.5,0.6-0.8c0.2-0.5,0.2-1.1,0-1.6c-0.1-0.3-0.3-0.5-0.5-0.7c-0.2-0.2-0.5-0.3-0.7-0.4
		l-1.2-0.4c-0.1-0.1-0.3-0.2-0.3-0.3c-0.1-0.1,0-0.3,0-0.4c0,0,0-0.1,0.1-0.1c0,0,0.1-0.1,0.1-0.1c0,0,0,0,0.1,0
		c0.1-0.1,0.3-0.1,0.4-0.1c0.3,0,0.5,0,0.8,0c0.3,0,0.6,0.1,0.9,0.2l0.1,0V15l-0.1,0c-0.3-0.1-0.6-0.1-0.9-0.2
		c-0.4-0.1-0.8-0.1-1.2,0c-0.5,0-1,0.2-1.4,0.5c-0.3,0.2-0.5,0.5-0.6,0.8c-0.2,0.5-0.2,1,0,1.5c0.1,0.2,0.2,0.5,0.4,0.6
		c0.2,0.2,0.3,0.3,0.5,0.4c0.3,0.1,0.5,0.2,0.8,0.3c0.1,0,0.2,0.1,0.3,0.1l0.1,0.1c0,0,0,0,0,0c0.1,0.1,0.3,0.1,0.4,0.2
		c0.1,0.1,0.1,0.2,0.2,0.3c0,0.1,0,0.2,0,0.3c0,0.1-0.1,0.3-0.3,0.3c-0.1,0.1-0.3,0.1-0.5,0.1c-0.2,0-0.5,0-0.7,0
		c-0.3,0-0.6-0.1-0.9-0.1C162.8,20.3,162.7,20.2,162.4,20.2L162.4,20.2"/>
	<path class="st0" d="M155.9,21.7v-1.8l0,0c-0.4,0.2-0.9,0.3-1.3,0.3c-0.5,0-1-0.1-1.3-0.4c-0.3-0.2-0.5-0.5-0.6-0.8
		c-0.1-0.4-0.1-0.7,0-1.1c0.1-0.4,0.3-0.7,0.6-0.9c0.3-0.2,0.6-0.4,0.9-0.4c0.6-0.1,1.2,0,1.8,0.3l0,0V15l-0.1,0
		c-0.5-0.2-1.1-0.2-1.7-0.2c-0.5,0-1,0.1-1.5,0.3c-0.5,0.2-0.9,0.5-1.2,0.9c-1,1.3-1.1,3.2-0.1,4.5c0.5,0.6,1.2,1.1,2,1.3
		c0.8,0.2,1.7,0.2,2.5-0.1L155.9,21.7"/>
	<polyline class="st0" points="160.1,21.8 160.1,14.9 158.3,14.9 158.3,21.8 160.1,21.8 	"/>
	<polyline class="st0" points="186,21 186,20.9 185.3,20.9 185.3,21 185.6,21 185.6,21.8 185.7,21.8 185.7,21 186,21 	"/>
	<polyline class="st0" points="186.1,21.8 186.2,21.8 186.2,21.1 186.2,21.1 186.5,21.8 186.6,21.8 186.9,21.1 186.9,21.8 187,21.8 
		187,20.9 186.8,20.9 186.5,21.7 186.3,20.9 186.1,20.9 186.1,21.8 	"/>
	<path class="st0" d="M147,9.4c0,0.2,0.1,0.4,0.3,0.6c0.2,0.1,0.4,0.2,0.6,0.2c0.2,0,0.4-0.1,0.6-0.2c0.2-0.1,0.3-0.4,0.3-0.6V7.4
		c0-0.2-0.1-0.4-0.3-0.6c-0.2-0.2-0.4-0.2-0.6-0.2c-0.2,0-0.4,0.1-0.6,0.2C147.1,7,147,7.2,147,7.4V9.4"/>
	<path class="st0" d="M151.8,9.4c0,0.2,0.1,0.4,0.3,0.6c0.2,0.1,0.4,0.2,0.6,0.2c0.2,0,0.4-0.1,0.6-0.2c0.2-0.1,0.3-0.4,0.3-0.6V5.1
		c0-0.2-0.1-0.4-0.3-0.6c-0.2-0.2-0.4-0.2-0.6-0.2c-0.2,0-0.4,0.1-0.6,0.2c-0.2,0.2-0.3,0.4-0.3,0.6V9.4"/>
	<path class="st0" d="M156.6,11.1c0,0.2,0.1,0.4,0.3,0.6c0.2,0.1,0.4,0.2,0.6,0.2c0.2,0,0.4-0.1,0.6-0.2c0.2-0.1,0.3-0.4,0.3-0.6
		V1.8c0-0.2-0.1-0.4-0.3-0.6C157.9,1,157.7,1,157.4,1c-0.2,0-0.4,0.1-0.6,0.2c-0.2,0.2-0.3,0.4-0.3,0.6V11.1"/>
	<path class="st0" d="M161.4,9.4c0,0.2,0.1,0.4,0.3,0.6c0.2,0.1,0.4,0.2,0.6,0.2c0.2,0,0.4-0.1,0.6-0.2c0.2-0.1,0.3-0.4,0.3-0.6V5.1
		c0-0.2-0.1-0.4-0.3-0.6c-0.2-0.2-0.4-0.2-0.6-0.2c-0.2,0-0.4,0.1-0.6,0.2c-0.2,0.2-0.3,0.4-0.3,0.6V9.4"/>
	<path class="st0" d="M166.1,9.4c0,0.2,0.1,0.4,0.3,0.6c0.2,0.1,0.4,0.2,0.6,0.2s0.4-0.1,0.6-0.2c0.2-0.1,0.3-0.4,0.3-0.6V7.4
		c0-0.2-0.1-0.4-0.3-0.6c-0.2-0.2-0.4-0.2-0.6-0.2c-0.2,0-0.4,0.1-0.6,0.2c-0.2,0.2-0.3,0.4-0.3,0.6V9.4"/>
	<path class="st0" d="M170.9,9.4c0,0.2,0.1,0.4,0.3,0.6c0.2,0.1,0.4,0.2,0.6,0.2c0.2,0,0.4-0.1,0.6-0.2c0.2-0.1,0.3-0.4,0.3-0.6V5.1
		c0-0.2-0.1-0.4-0.3-0.6c-0.2-0.2-0.4-0.2-0.6-0.2c-0.2,0-0.4,0.1-0.6,0.2c-0.2,0.2-0.3,0.4-0.3,0.6V9.4"/>
	<path class="st0" d="M175.7,11.1c0,0.2,0.1,0.4,0.3,0.6c0.2,0.1,0.4,0.2,0.6,0.2s0.4-0.1,0.6-0.2c0.2-0.1,0.3-0.4,0.3-0.6V1.8
		c0-0.2-0.1-0.4-0.3-0.6C177,1,176.8,1,176.6,1c-0.2,0-0.4,0.1-0.6,0.2c-0.2,0.2-0.3,0.4-0.3,0.6V11.1"/>
	<path class="st0" d="M180.5,9.4c0,0.2,0.1,0.4,0.3,0.6c0.2,0.1,0.4,0.2,0.6,0.2s0.4-0.1,0.6-0.2c0.2-0.1,0.3-0.4,0.3-0.6V5.1
		c0-0.2-0.1-0.4-0.3-0.6c-0.2-0.2-0.4-0.2-0.6-0.2c-0.2,0-0.4,0.1-0.6,0.2c-0.2,0.2-0.3,0.4-0.3,0.6V9.4"/>
	<path class="st0" d="M185.3,9.4c0,0.2,0.1,0.4,0.3,0.6c0.2,0.1,0.4,0.2,0.6,0.2c0.2,0,0.4-0.1,0.6-0.2c0.2-0.1,0.3-0.4,0.3-0.6V7.4
		c0-0.2-0.1-0.4-0.3-0.6c-0.2-0.2-0.4-0.2-0.6-0.2c-0.2,0-0.4,0.1-0.6,0.2c-0.2,0.2-0.3,0.4-0.3,0.6V9.4"/>
	<path class="st0" d="M174.2,21.7v-1.8l0,0c-0.4,0.2-0.9,0.3-1.3,0.3c-0.5,0-1-0.1-1.3-0.4c-0.3-0.2-0.5-0.5-0.6-0.8
		c-0.1-0.4-0.1-0.7,0-1.1c0.1-0.4,0.3-0.7,0.6-0.9c0.3-0.2,0.6-0.4,0.9-0.4c0.6-0.1,1.2,0,1.8,0.3l0,0V15l-0.1,0
		c-0.5-0.2-1.1-0.2-1.7-0.2c-0.5,0-1,0.1-1.5,0.3c-0.5,0.2-0.9,0.5-1.2,0.9c-1,1.3-1.1,3.2-0.1,4.5c0.5,0.6,1.2,1.1,2,1.3
		c0.8,0.2,1.7,0.2,2.5-0.1L174.2,21.7"/>
	<path class="st0" d="M176.1,18.4c0,1.1,0.5,2.1,1.4,2.8c0.9,0.7,2,0.9,3.1,0.7c1.5-0.3,2.6-1.4,2.9-2.9c0.3-1.5-0.4-2.9-1.7-3.7
		c-1.1-0.7-2.5-0.7-3.7-0.1C176.8,15.9,176.1,17.1,176.1,18.4 M178.6,17c0.4-0.3,0.9-0.4,1.3-0.4c0.5,0.1,0.9,0.3,1.2,0.7
		c0.3,0.4,0.4,0.9,0.4,1.3s-0.3,0.9-0.7,1.2c-0.4,0.3-0.9,0.4-1.3,0.4c-0.5-0.1-0.9-0.3-1.2-0.7c-0.3-0.4-0.4-0.9-0.4-1.3
		C178,17.7,178.2,17.3,178.6,17"/>
</g>
<g>
	<g>
		<path class="st2" d="M1.8,45.7c0-5.9,3.4-9.1,8-9.1c4,0,6.9,2.4,7.3,5.8h-1.9c-0.4-2.6-2.5-4.2-5.4-4.2c-3.5,0-6.1,2.6-6.1,7.5
			c0,4.7,2.5,7.3,6,7.3c3,0,5.2-1.9,5.4-4.7h1.9c-0.3,3.4-3.1,6.3-7.4,6.3C5,54.7,1.8,51.3,1.8,45.7z"/>
		<path class="st2" d="M25.3,41.4c3.4,0,6,2.2,6,6.6c0,4.4-2.5,6.6-6,6.6c-3.4,0-6-2.3-6-6.6C19.3,43.6,22,41.4,25.3,41.4z
			 M25.3,53.2c2.4,0,4.1-1.8,4.1-5.2c0-3.5-1.7-5.2-4.1-5.2c-2.4,0-4.2,1.7-4.2,5.2C21.2,51.4,23,53.2,25.3,53.2z"/>
		<path class="st2" d="M34.2,54.3V41.8h1.5l0.2,1.9c0.9-1.5,2.4-2.2,4-2.2c2.7,0,4.4,1.7,4.4,4.5v8.4h-1.8V46c0-2-1.1-3.1-3-3.1
			c-1.8,0-3.5,1.4-3.5,3.6v7.8H34.2z"/>
		<path class="st2" d="M50.1,43.3v8.2c0,1.1,0.6,1.6,1.5,1.6c0.4,0,0.8,0,1.5-0.2v1.5c-0.6,0.2-1.1,0.2-1.7,0.2
			c-2,0-3.1-1.2-3.1-3.2v-8.2h-1.8v-1.5h1.8l0.1-3h1.7v3h2.8v1.5H50.1z"/>
		<path class="st2" d="M54.9,45.2c0.2-2.2,2.2-3.7,5.1-3.7c3.1,0,4.9,1.7,4.9,4.2v8.7h-1.5l-0.2-1.9c-0.8,1.2-2.2,2.3-4.4,2.3
			c-2.6,0-4.3-1.4-4.3-3.6c0-2.2,1.3-3.5,4.8-4.1l3.8-0.6v-0.9c0-1.7-1.2-2.7-3.2-2.7c-1.9,0-3,0.9-3.2,2.3H54.9z M63.2,47.8
			l-3.3,0.6c-2.6,0.5-3.4,1.3-3.4,2.6c0,1.4,1.1,2.2,2.8,2.2c1.9,0,3.8-1.4,3.8-3.4V47.8z"/>
		<path class="st2" d="M68.2,39.2V37h2.1v2.2H68.2z M68.3,54.3V41.8h1.8v12.5H68.3z"/>
		<path class="st2" d="M73.7,54.3V41.8h1.5l0.2,1.9c0.9-1.5,2.4-2.2,4-2.2c2.7,0,4.4,1.7,4.4,4.5v8.4H82V46c0-2-1.1-3.1-3-3.1
			c-1.8,0-3.5,1.4-3.5,3.6v7.8H73.7z"/>
		<path class="st2" d="M98.1,50.8c-0.6,2.3-2.6,3.9-5.5,3.9c-3.5,0-6.1-2.3-6.1-6.6s2.5-6.6,5.9-6.6c3.4,0,5.8,2.1,5.8,7h-9.9
			c0.1,3.2,2,4.7,4.3,4.7c1.7,0,3-0.9,3.4-2.4H98.1z M88.4,47h8c-0.2-2.8-1.8-4.1-3.9-4.1C90.4,42.9,88.7,44.3,88.4,47z"/>
		<path class="st2" d="M101.2,54.3V41.8h1.5l0.2,2.1c0.7-1.7,1.9-2.5,3.4-2.5c0.6,0,1,0.1,1.3,0.2v1.8c-0.4-0.1-0.9-0.2-1.4-0.2
			c-1.7,0-3.2,1.5-3.2,4.6v6.6H101.2z"/>
		<path class="st2" d="M122.9,37c4.2,0,6.5,2,6.5,5.5c0,3.4-2.4,5.4-6.6,5.4H119v6.4h-1.9V37H122.9z M119,38.5v7.8h3.8
			c3.1,0,4.6-1.4,4.6-3.8c0-2.5-1.6-4-4.5-4H119z"/>
		<path class="st2" d="M137.1,41.4c3.4,0,6,2.2,6,6.6c0,4.4-2.5,6.6-6,6.6c-3.4,0-6-2.3-6-6.6C131.1,43.6,133.8,41.4,137.1,41.4z
			 M137.2,53.2c2.4,0,4.1-1.8,4.1-5.2c0-3.5-1.7-5.2-4.1-5.2c-2.4,0-4.2,1.7-4.2,5.2C133,51.4,134.8,53.2,137.2,53.2z"/>
		<path class="st2" d="M147.8,54.3H146V37h1.8V54.3z"/>
		<path class="st2" d="M151.2,39.2V37h2.1v2.2H151.2z M151.3,54.3V41.8h1.8v12.5H151.3z"/>
		<path class="st2" d="M167.1,50.5c-0.4,2.4-2.4,4.2-5.4,4.2c-3.3,0-5.8-2.3-5.8-6.5c0-4.3,2.4-6.7,5.8-6.7c2.8,0,4.9,1.5,5.3,4h-2
			c-0.3-1.5-1.6-2.4-3.3-2.4c-2.3,0-3.9,1.7-3.9,5.3c0,3.4,1.8,4.9,3.9,4.9c1.8,0,3.1-1,3.4-2.7H167.1z"/>
		<path class="st2" d="M175.6,54.5c-1.1,3.1-1.8,4.6-3.8,4.6c-0.5,0-0.9-0.1-1.4-0.2v-1.5c0.5,0.1,0.8,0.2,1.2,0.2
			c1.1,0,1.5-0.8,2.3-3.2h-0.6l-4.8-12.5h1.9l4,11.1l3.8-11.1h1.8L175.6,54.5z"/>
		<path class="st2" d="M197.3,54.3l-5.9-14.6v14.6h-1.8V37h2.7l6,15.2L204,37h2.6v17.3h-1.8V39.8l-5.5,14.5H197.3z"/>
		<path class="st2" d="M209.8,45.2c0.2-2.2,2.2-3.7,5.1-3.7c3.1,0,4.9,1.7,4.9,4.2v8.7h-1.5l-0.2-1.9c-0.8,1.2-2.2,2.3-4.4,2.3
			c-2.6,0-4.3-1.4-4.3-3.6c0-2.2,1.3-3.5,4.8-4.1l3.8-0.6v-0.9c0-1.7-1.2-2.7-3.2-2.7c-1.9,0-3,0.9-3.2,2.3H209.8z M218.1,47.8
			l-3.3,0.6c-2.6,0.5-3.4,1.3-3.4,2.6c0,1.4,1.1,2.2,2.8,2.2c1.9,0,3.8-1.4,3.8-3.4V47.8z"/>
		<path class="st2" d="M223.3,54.3V41.8h1.5l0.2,1.9c0.9-1.5,2.4-2.2,4-2.2c2.7,0,4.4,1.7,4.4,4.5v8.4h-1.8V46c0-2-1.1-3.1-3-3.1
			c-1.8,0-3.5,1.4-3.5,3.6v7.8H223.3z"/>
		<path class="st2" d="M236.5,45.2c0.2-2.2,2.2-3.7,5.1-3.7c3.1,0,4.9,1.7,4.9,4.2v8.7h-1.5l-0.2-1.9c-0.8,1.2-2.2,2.3-4.4,2.3
			c-2.6,0-4.3-1.4-4.3-3.6c0-2.2,1.3-3.5,4.8-4.1l3.8-0.6v-0.9c0-1.7-1.2-2.7-3.2-2.7c-1.9,0-3,0.9-3.2,2.3H236.5z M244.8,47.8
			l-3.3,0.6c-2.6,0.5-3.4,1.3-3.4,2.6c0,1.4,1.1,2.2,2.8,2.2c1.9,0,3.8-1.4,3.8-3.4V47.8z"/>
		<path class="st2" d="M251.7,55.3c0.3,1.5,1.6,2.3,3.5,2.3c2.4,0,3.8-1.3,3.8-3.5v-2.2c-0.8,1.2-2.3,2-4.3,2
			c-2.9,0-5.5-2.2-5.5-6.1c0-4,2.3-6.3,5.6-6.3c2,0,3.4,0.9,4.2,2.3l0.3-1.9h1.5v12.4c0,2.8-2,4.9-5.6,4.9c-3.1,0-5-1.4-5.5-3.7
			H251.7z M255.1,52.4c2.3,0,4-1.5,4-4.6c0-3.2-1.7-4.8-4.1-4.8c-2.2,0-4,1.5-4,4.8C251.1,50.7,252.9,52.4,255.1,52.4z"/>
		<path class="st2" d="M275.2,50.8c-0.6,2.3-2.6,3.9-5.5,3.9c-3.5,0-6.1-2.3-6.1-6.6s2.5-6.6,5.9-6.6c3.4,0,5.8,2.1,5.8,7h-9.9
			c0.1,3.2,2,4.7,4.3,4.7c1.7,0,3-0.9,3.4-2.4H275.2z M265.6,47h8c-0.2-2.8-1.8-4.1-3.9-4.1C267.5,42.9,265.9,44.3,265.6,47z"/>
		<path class="st2" d="M278.4,54.3V41.8h1.5l0.2,1.7c0.9-1.5,2.4-2.1,3.8-2.1c1.8,0,3.1,0.8,3.7,2.2c0.9-1.7,2.5-2.2,4.1-2.2
			c2.5,0,4.2,1.5,4.2,4.4v8.5h-1.8V46c0-2.1-0.9-3-2.7-3c-2,0-3.3,1.7-3.3,3.7v7.7h-1.8V46c0-2.1-1-3-2.7-3c-1.9,0-3.3,1.6-3.3,3.6
			v7.7H278.4z"/>
		<path class="st2" d="M310.1,50.8c-0.6,2.3-2.6,3.9-5.5,3.9c-3.5,0-6.1-2.3-6.1-6.6s2.5-6.6,5.9-6.6c3.4,0,5.8,2.1,5.8,7h-9.9
			c0.1,3.2,2,4.7,4.3,4.7c1.7,0,3-0.9,3.4-2.4H310.1z M300.5,47h8c-0.2-2.8-1.8-4.1-3.9-4.1C302.4,42.9,300.8,44.3,300.5,47z"/>
		<path class="st2" d="M313.3,54.3V41.8h1.5l0.2,1.9c0.9-1.5,2.4-2.2,4-2.2c2.7,0,4.4,1.7,4.4,4.5v8.4h-1.8V46c0-2-1.1-3.1-3-3.1
			c-1.8,0-3.5,1.4-3.5,3.6v7.8H313.3z"/>
		<path class="st2" d="M329.2,43.3v8.2c0,1.1,0.6,1.6,1.5,1.6c0.4,0,0.8,0,1.5-0.2v1.5c-0.6,0.2-1.1,0.2-1.7,0.2
			c-2,0-3.1-1.2-3.1-3.2v-8.2h-1.8v-1.5h1.8l0.1-3h1.7v3h2.8v1.5H329.2z"/>
	</g>
</g>
</svg>
